<?xml version="1.0" encoding="UTF-8"?>
<svg width="342px" height="58px" viewBox="0 0 342 58" version="1.1" xmlns="http://www.w3.org/2000/svg" xmlns:xlink="http://www.w3.org/1999/xlink">
    <!-- Generator: Sketch 51.2 (57519) - http://www.bohemiancoding.com/sketch -->
    <title>Group</title>
    <desc>Created with Sketch.</desc>
    <defs>
        <filter x="-14.0%" y="-11.1%" width="130.0%" height="131.1%" filterUnits="objectBoundingBox" id="filter-1">
            <feOffset dx="0" dy="2" in="SourceAlpha" result="shadowOffsetOuter1"></feOffset>
            <feGaussianBlur stdDeviation="2" in="shadowOffsetOuter1" result="shadowBlurOuter1"></feGaussianBlur>
            <feColorMatrix values="0 0 0 0 0   0 0 0 0 0   0 0 0 0 0  0 0 0 0.5 0" type="matrix" in="shadowBlurOuter1" result="shadowMatrixOuter1"></feColorMatrix>
            <feMerge>
                <feMergeNode in="shadowMatrixOuter1"></feMergeNode>
                <feMergeNode in="SourceGraphic"></feMergeNode>
            </feMerge>
        </filter>
        <path d="M65.0670807,41 L65.0670807,16.8310559 L75.3229814,16.8310559 C77.2575666,16.8310559 78.9271151,17.4803248 80.331677,18.778882 C81.7362389,20.1039404 82.4385093,21.7204874 82.4385093,23.6285714 C82.4385093,24.7151193 82.1735016,25.7088982 81.6434783,26.6099379 C81.0869537,27.5109776 80.3449322,28.1867472 79.4173913,28.6372671 C80.5569415,29.1672904 81.4579677,29.9225624 82.1204969,30.9031056 C82.8360284,31.91015 83.1937888,33.0099319 83.1937888,34.2024845 C83.1937888,36.1635709 82.3987657,37.7933682 80.8086957,39.0919255 C79.2716279,40.3639815 77.4430748,41 75.3229814,41 L65.0670807,41 Z M68.0881988,38.2968944 L75.3229814,38.2968944 C76.6215386,38.2968944 77.7478213,37.9258836 78.7018634,37.1838509 C79.6824066,36.3888159 80.1726708,35.395037 80.1726708,34.2024845 C80.1726708,32.9834308 79.6824066,31.9631511 78.7018634,31.1416149 C77.7478213,30.3465799 76.6215386,29.9490683 75.3229814,29.9490683 L68.0881988,29.9490683 L68.0881988,38.2968944 Z M68.0881988,27.2459627 L75.3229814,27.2459627 C76.4360304,27.2459627 77.3900581,26.9014527 78.1850932,26.2124224 C79.0066294,25.523392 79.4173913,24.662117 79.4173913,23.6285714 C79.4173913,22.5155224 79.0198798,21.5614947 78.2248447,20.7664596 C77.4298097,19.9714246 76.4625316,19.573913 75.3229814,19.573913 L68.0881988,19.573913 L68.0881988,27.2459627 Z M86.6899377,41 L86.6899377,16.8310559 L89.7110557,16.8310559 L89.7110557,41 L86.6899377,41 Z M94.4395027,41 L94.4395027,16.8310559 L97.4606207,16.8310559 L97.4606207,28.6372671 L109.823354,16.8310559 L113.162484,16.8310559 L103.105341,26.6496894 L113.440745,41 L110.141366,41 L101.078012,28.6372671 L97.4606207,32.2546584 L97.4606207,41 L94.4395027,41 Z M114.512049,41 L122.382857,16.8310559 L126.278509,16.8310559 L134.149316,41 L131.128198,41 L128.703353,33.7652174 L119.958012,33.7652174 L117.533167,41 L114.512049,41 Z M120.832546,31.0621118 L127.828819,31.0621118 L124.330683,20.6074534 L120.832546,31.0621118 Z" id="path-2"></path>
        <filter x="-10.1%" y="-20.7%" width="120.3%" height="157.9%" filterUnits="objectBoundingBox" id="filter-3">
            <feOffset dx="0" dy="2" in="SourceAlpha" result="shadowOffsetOuter1"></feOffset>
            <feGaussianBlur stdDeviation="2" in="shadowOffsetOuter1" result="shadowBlurOuter1"></feGaussianBlur>
            <feColorMatrix values="0 0 0 0 0   0 0 0 0 0   0 0 0 0 0  0 0 0 0.5 0" type="matrix" in="shadowBlurOuter1"></feColorMatrix>
        </filter>
        <path d="M148.754037,41.484472 C146.320899,41.484472 144.253839,40.5047717 142.552795,38.5453416 C140.830219,36.5859115 139.968944,34.2174052 139.968944,31.4397516 C139.968944,28.6620979 140.830219,26.2828256 142.552795,24.3018634 C144.253839,22.3424333 146.320899,21.3627329 148.754037,21.3627329 C150.756532,21.3627329 152.446784,21.9010298 153.824845,22.9776398 C155.202905,24.0327175 156.053415,25.4538213 156.376398,27.2409938 L155.084472,27.2409938 C154.847618,25.9059975 154.1263,24.7971059 152.920497,23.9142857 C151.736226,23.0314656 150.34742,22.5900621 148.754037,22.5900621 C146.686946,22.5900621 144.921332,23.4513371 143.457143,25.173913 C141.992953,26.9180211 141.26087,29.0066131 141.26087,31.4397516 C141.26087,33.87289 141.992953,35.961482 143.457143,37.7055901 C144.921332,39.428166 146.686946,40.289441 148.754037,40.289441 C150.519678,40.289441 151.973079,39.772676 153.114286,38.7391304 C154.277024,37.7055849 154.933747,36.3275448 155.084472,34.6049689 L156.376398,34.6049689 C156.20414,36.6935922 155.418226,38.3623126 154.018634,39.6111801 C152.640573,40.8600477 150.885725,41.484472 148.754037,41.484472 Z M166.550311,41.226087 C163.966447,41.226087 161.899387,40.3325141 160.349068,38.5453416 C158.79875,36.7581691 158.023602,34.3896628 158.023602,31.4397516 C158.023602,28.3821793 158.79875,25.9383114 160.349068,24.1080745 C161.899387,22.2778376 163.966447,21.3627329 166.550311,21.3627329 C169.134174,21.3627329 171.201234,22.2778376 172.751553,24.1080745 C174.301871,25.9383114 175.077019,28.3821793 175.077019,31.4397516 C175.077019,34.3896628 174.301871,36.7581691 172.751553,38.5453416 C171.201234,40.3325141 169.134174,41.226087 166.550311,41.226087 Z M166.550311,40.0310559 C168.746595,40.0310559 170.501443,39.2451424 171.814907,37.6732919 C173.128371,36.1229736 173.785093,34.0451476 173.785093,31.4397516 C173.785093,28.7697589 173.128371,26.6273373 171.814907,25.0124224 C170.501443,23.3975075 168.746595,22.5900621 166.550311,22.5900621 C164.354026,22.5900621 162.599178,23.3975075 161.285714,25.0124224 C159.97225,26.6273373 159.315528,28.7697589 159.315528,31.4397516 C159.315528,34.0451476 159.97225,36.1229736 161.285714,37.6732919 C162.599178,39.2451424 164.354026,40.0310559 166.550311,40.0310559 Z M179.469565,41 L178.17764,41 L178.17764,21.847205 L179.954037,21.847205 L191.51677,39.4173913 L191.51677,21.847205 L192.808696,21.847205 L192.808696,41 L191.032298,41 L179.469565,23.6881988 L179.469565,41 Z M202.368944,41.484472 C200.517175,41.484472 198.945348,40.8600477 197.653416,39.6111801 C196.339952,38.3838448 195.68323,36.8873794 195.68323,35.1217391 L196.975155,35.1217391 C196.975155,36.5428642 197.502686,37.7594152 198.557764,38.7714286 C199.612842,39.7834419 200.883222,40.289441 202.368944,40.289441 C203.983859,40.289441 205.372665,39.8588035 206.535404,38.9975155 C207.67661,38.1362276 208.247205,37.0919316 208.247205,35.8645963 C208.247205,34.8095185 207.741206,33.9267116 206.729193,33.2161491 C205.738711,32.5055865 204.403735,32.074949 202.724224,31.9242236 C200.678665,31.751966 199.042242,31.1706054 197.814907,30.1801242 C196.587572,29.1896431 195.973913,27.9730921 195.973913,26.5304348 C195.973913,25.1093097 196.598337,23.8927587 197.847205,22.8807453 C199.096072,21.868732 200.603304,21.3627329 202.368944,21.3627329 C204.263778,21.3627329 205.889434,21.8902639 207.245963,22.9453416 C208.580959,24.0004194 209.248447,25.2708 209.248447,26.7565217 L207.956522,26.7565217 C207.956522,25.6153152 207.407459,24.6356149 206.309317,23.8173913 C205.232707,22.9991678 203.919262,22.5900621 202.368944,22.5900621 C200.969351,22.5900621 199.763566,22.9776359 198.751553,23.752795 C197.761072,24.506422 197.265839,25.4322926 197.265839,26.5304348 C197.265839,27.6070447 197.782604,28.5113835 198.816149,29.2434783 C199.871227,29.975573 201.260033,30.4169765 202.982609,30.5677019 C204.963571,30.7399595 206.55693,31.3105542 207.762733,32.2795031 C208.947004,33.248452 209.53913,34.4434712 209.53913,35.8645963 C209.53913,37.4149146 208.839344,38.7391249 207.439752,39.8372671 C206.040159,40.9354092 204.349906,41.484472 202.368944,41.484472 Z M218.324224,41 L217.032298,41 L217.032298,23.1068323 L210.475776,23.1068323 L210.475776,21.847205 L224.945342,21.847205 L224.945342,23.1068323 L218.324224,23.1068323 L218.324224,41 Z M228.43354,41 L227.141615,41 L227.141615,21.847205 L236.281988,21.847205 C237.595452,21.847205 238.715109,22.3424381 239.640994,23.3329193 C240.566878,24.3018682 241.029814,25.4861214 241.029814,26.8857143 C241.029814,28.1130496 240.749899,29.1788775 240.190062,30.0832298 C239.608693,30.9875822 238.887375,31.5151131 238.026087,31.6658385 C238.822778,31.8811605 239.468735,32.5594146 239.963975,33.7006211 C240.459216,34.8418277 240.706832,36.2198677 240.706832,37.8347826 C240.706832,38.739135 240.728364,39.417389 240.771429,39.8695652 C240.814493,40.4078702 240.90062,40.784678 241.029814,41 L239.737888,41 C239.522566,40.7416136 239.382609,40.2679123 239.318012,39.578882 L239.221118,36.8335404 C239.221118,35.5416084 238.908906,34.4327168 238.284472,33.5068323 C237.68157,32.60248 236.938721,32.1503106 236.055901,32.1503106 L228.43354,32.1503106 L228.43354,41 Z M228.43354,30.9552795 L236.055901,30.9552795 C237.067914,30.9552795 237.939955,30.5677057 238.67205,29.7925466 C239.382612,29.0389196 239.737888,28.113049 239.737888,27.0149068 C239.737888,25.9382969 239.382612,25.0124262 238.67205,24.2372671 C237.939955,23.4836401 237.067914,23.1068323 236.055901,23.1068323 L228.43354,23.1068323 L228.43354,30.9552795 Z M251.300621,41.484472 C249.319659,41.484472 247.618641,40.8385158 246.197516,39.5465839 C244.797923,38.2546519 244.098137,36.6935909 244.098137,34.863354 L244.098137,21.847205 L245.390062,21.847205 L245.390062,34.863354 C245.390062,36.370608 245.971423,37.6517546 247.134161,38.7068323 C248.275368,39.76191 249.664174,40.289441 251.300621,40.289441 C252.850939,40.289441 254.185916,39.76191 255.30559,38.7068323 C256.403732,37.6517546 256.952795,36.370608 256.952795,34.863354 L256.952795,21.847205 L258.24472,21.847205 L258.24472,34.863354 C258.24472,36.6935909 257.566466,38.2546519 256.209938,39.5465839 C254.853409,40.8385158 253.216987,41.484472 251.300621,41.484472 Z M269.742857,41.484472 C267.309719,41.484472 265.242659,40.5047717 263.541615,38.5453416 C261.819039,36.5859115 260.957764,34.2174052 260.957764,31.4397516 C260.957764,28.6620979 261.819039,26.2828256 263.541615,24.3018634 C265.242659,22.3424333 267.309719,21.3627329 269.742857,21.3627329 C271.745352,21.3627329 273.435604,21.9010298 274.813665,22.9776398 C276.191725,24.0327175 277.042234,25.4538213 277.365217,27.2409938 L276.073292,27.2409938 C275.836438,25.9059975 275.11512,24.7971059 273.909317,23.9142857 C272.725046,23.0314656 271.33624,22.5900621 269.742857,22.5900621 C267.675766,22.5900621 265.910152,23.4513371 264.445963,25.173913 C262.981773,26.9180211 262.249689,29.0066131 262.249689,31.4397516 C262.249689,33.87289 262.981773,35.961482 264.445963,37.7055901 C265.910152,39.428166 267.675766,40.289441 269.742857,40.289441 C271.508497,40.289441 272.961899,39.772676 274.103106,38.7391304 C275.265844,37.7055849 275.922567,36.3275448 276.073292,34.6049689 L277.365217,34.6049689 C277.19296,36.6935922 276.407046,38.3623126 275.007453,39.6111801 C273.629393,40.8600477 271.874545,41.484472 269.742857,41.484472 Z M285.956522,41 L284.664596,41 L284.664596,23.1068323 L278.108075,23.1068323 L278.108075,21.847205 L292.57764,21.847205 L292.57764,23.1068323 L285.956522,23.1068323 L285.956522,41 Z M296.065839,41 L294.773913,41 L294.773913,21.847205 L296.065839,21.847205 L296.065839,41 Z M307.693168,41.226087 C305.109304,41.226087 303.042244,40.3325141 301.491925,38.5453416 C299.941607,36.7581691 299.16646,34.3896628 299.16646,31.4397516 C299.16646,28.3821793 299.941607,25.9383114 301.491925,24.1080745 C303.042244,22.2778376 305.109304,21.3627329 307.693168,21.3627329 C310.277032,21.3627329 312.344092,22.2778376 313.89441,24.1080745 C315.444728,25.9383114 316.219876,28.3821793 316.219876,31.4397516 C316.219876,34.3896628 315.444728,36.7581691 313.89441,38.5453416 C312.344092,40.3325141 310.277032,41.226087 307.693168,41.226087 Z M307.693168,40.0310559 C309.889452,40.0310559 311.6443,39.2451424 312.957764,37.6732919 C314.271228,36.1229736 314.92795,34.0451476 314.92795,31.4397516 C314.92795,28.7697589 314.271228,26.6273373 312.957764,25.0124224 C311.6443,23.3975075 309.889452,22.5900621 307.693168,22.5900621 C305.496883,22.5900621 303.742036,23.3975075 302.428571,25.0124224 C301.115107,26.6273373 300.458385,28.7697589 300.458385,31.4397516 C300.458385,34.0451476 301.115107,36.1229736 302.428571,37.6732919 C303.742036,39.2451424 305.496883,40.0310559 307.693168,40.0310559 Z M320.612422,41 L319.320497,41 L319.320497,21.847205 L321.096894,21.847205 L332.659627,39.4173913 L332.659627,21.847205 L333.951553,21.847205 L333.951553,41 L332.175155,41 L320.612422,23.6881988 L320.612422,41 Z" id="path-4"></path>
        <filter x="-3.6%" y="-24.8%" width="107.2%" height="169.6%" filterUnits="objectBoundingBox" id="filter-5">
            <feOffset dx="0" dy="2" in="SourceAlpha" result="shadowOffsetOuter1"></feOffset>
            <feGaussianBlur stdDeviation="2" in="shadowOffsetOuter1" result="shadowBlurOuter1"></feGaussianBlur>
            <feColorMatrix values="0 0 0 0 0   0 0 0 0 0   0 0 0 0 0  0 0 0 0.5 0" type="matrix" in="shadowBlurOuter1"></feColorMatrix>
        </filter>
    </defs>
    <g id="Page-1" stroke="none" stroke-width="1" fill="none" fill-rule="evenodd">
        <g id="Group" transform="translate(4.000000, 0.000000)">
            <path d="M37.8968358,57.9405596 C37.6596688,57.836539 37.4391451,57.6326586 37.0521884,57.1666463 C36.3614915,56.3344814 35.9329266,56.0681886 34.9634544,55.8851123 C34.7221266,55.8393432 34.4683163,55.7769309 34.4059039,55.7394834 C34.1978627,55.6354628 33.9898215,55.3608484 33.7526545,54.8948361 C33.3823411,54.1500485 33.0494751,53.7714134 32.246436,53.1722547 C31.7804236,52.8227454 31.6181515,52.6396691 31.4225927,52.2485516 C31.2187123,51.8324692 31.0938876,51.6993228 30.4115123,51.1292898 C30.0370381,50.817228 29.7499412,50.5426135 29.6459206,50.3969847 C28.7679866,49.1487373 28.7180567,49.06136 28.7430217,48.7076899 C28.7846299,48.0835662 29.0717268,47.9337765 30.3990299,47.8463992 C31.0314752,47.8006301 32.554337,47.8422384 33.4114669,47.9212941 L33.6902421,47.946259 L33.5612566,47.7423786 C33.4905225,47.6300363 33.3948236,47.4136735 33.3490545,47.2597229 C33.2699988,46.997591 33.2533555,46.9767869 33.1451741,46.9767869 C32.9829019,46.9767869 32.8081473,46.8186755 32.6541968,46.5274178 C32.4752813,46.190391 32.4087081,45.88249 32.3338133,44.9795911 C32.2672401,44.1848736 32.1881844,43.7729519 32.080003,43.6273231 C31.7887453,43.2320448 31.7596195,43.1613107 31.3185721,41.754952 C31.227034,41.4595335 31.1146917,41.1557933 31.0689226,41.0850593 L30.989867,40.9519129 L30.0994505,40.972717 C29.0717268,40.997682 27.6279207,40.9311088 27.2368032,40.8354098 C26.9663496,40.7688366 26.6334836,40.7813191 26.4836939,40.8603747 C26.4462465,40.8853397 26.3547084,40.9560737 26.2881352,41.0268077 C26.2174012,41.0975417 26.1050589,41.1641149 26.0343249,41.1765974 L25.9053393,41.2015624 L26.0093599,41.2847788 C26.125863,41.376317 26.2090795,41.6301273 26.1924362,41.8548118 C26.1841146,41.9505108 26.221562,42.087818 26.292296,42.2376077 C26.458729,42.5704736 26.5128197,42.9116613 26.4545682,43.2528489 C26.4004775,43.581554 26.2090795,44.0101189 26.0051991,44.2597684 C25.7680321,44.5510261 25.722263,44.696655 25.722263,45.1876323 C25.722263,45.5121766 25.7430672,45.6744488 25.8013187,45.811756 C25.9303043,46.1363003 25.9261434,46.4025931 25.7805146,46.9143745 C25.6681723,47.3221353 25.6556898,47.4095126 25.6806548,47.7257353 C25.7014589,48.0544404 25.6972981,48.1002095 25.5766342,48.3997889 C25.4934177,48.6036693 25.4476486,48.7909064 25.4476486,48.9240528 C25.4476486,49.1945064 25.3977187,49.3276528 25.0981394,49.8643991 C24.9025806,50.2180692 24.8027208,50.3470548 24.6612528,50.4469146 C24.5572322,50.5176486 24.4199249,50.6216692 24.3533518,50.6799208 L24.2326878,50.7881022 L24.3408693,50.9878218 C24.4781765,51.2457929 24.4781765,51.43303 24.3450301,51.7867001 C24.2077229,52.1570135 24.1827579,52.1778176 23.9497518,52.1778176 L23.754193,52.1778176 L23.7292281,52.3858588 C23.7167456,52.5023619 23.6418508,52.7104031 23.5711167,52.8477104 C23.350593,53.2554712 23.0967827,53.3678134 22.8887415,53.1472897 C22.7680776,53.0183042 22.7264693,52.8934794 22.6266096,52.3900197 C22.5766797,52.144531 22.5350714,52.0280279 22.4851415,52.003063 C22.4435333,51.9864197 22.3769601,51.9531331 22.3395127,51.9364898 C22.2979044,51.9198465 22.2188487,51.8075042 22.1605972,51.6910011 C22.0108075,51.3914218 21.9608776,51.337331 21.8651787,51.3914218 C21.7237106,51.4663166 21.6529766,51.670197 21.6363333,52.0904403 C21.6238508,52.310964 21.6072075,52.5314877 21.5988859,52.5772568 C21.5697601,52.7187248 21.3908447,52.7644939 20.9331539,52.7520114 L20.5170715,52.7395289 L20.529554,53.1597722 C20.5503581,53.7006794 20.4921065,53.8546299 20.2507787,53.9295248 C20.100989,53.9752938 20.0177725,53.9669722 19.6391375,53.8879165 C19.3978097,53.8338258 19.1814468,53.8088608 19.1606427,53.829665 C19.1439994,53.8463083 19.1231953,54.0210629 19.1148736,54.2166216 L19.1023911,54.5661309 L18.9567623,54.6493474 C18.8319375,54.7242422 18.7445602,54.7367247 18.299352,54.7325639 C17.7958922,54.7284031 17.7875706,54.7284031 17.6669067,54.6119 C17.3298799,54.2915165 17.2341809,53.7298052 17.4339005,53.2471495 L17.5337603,53.0058217 L17.3922922,52.7728155 C17.3132366,52.6396691 17.2300201,52.4690753 17.2092159,52.3858588 C17.1426428,52.1486918 17.1592861,51.7617351 17.2466634,51.5661764 L17.325719,51.3955826 L17.0552654,51.2333104 C16.5476448,50.9378919 16.0525067,50.4094672 15.7820531,49.86856 C15.5448861,49.3900651 15.428383,48.8866054 15.382614,48.1501394 L15.357649,47.6758054 L14.7376861,47.6758054 C14.0178635,47.6716446 14.0511501,47.6550013 13.9180037,48.1210136 C13.8680738,48.2832858 13.8181439,48.4580404 13.8015006,48.516292 C13.7474099,48.7035291 13.6184243,48.6702425 13.318845,48.3914672 C13.056713,48.1501394 13.0442305,48.1418178 12.9568532,48.2042301 C12.7321687,48.3581806 12.5782182,48.2375167 12.4825192,47.8172734 C12.3951419,47.4552817 12.4117852,47.2930095 12.5490924,47.0308776 C12.6406306,46.8602838 12.6739172,46.7437807 12.6739172,46.5856694 C12.6739172,46.1987127 12.5990223,45.88249 12.4242677,45.549624 C12.1954223,45.1044158 12.1995832,44.9754303 12.440911,44.8048364 L12.6239873,44.6758509 L12.48668,44.5427045 C12.3535337,44.4178798 12.13301,44.0226014 12.13301,43.9102592 C12.13301,43.8270427 12.0581151,43.8478468 12.0331502,43.9310633 C11.9291296,44.2556076 11.9000038,45.5329807 11.966577,46.997591 C12.012346,48.016993 11.9790594,48.587026 11.8334306,49.202828 C11.4755997,50.7423331 10.543575,52.003063 9.40766986,52.4815578 C8.87508431,52.7104031 8.12197506,52.6812774 7.68092765,52.4149846 C7.2482019,52.1611743 6.92781841,51.7867001 6.62823904,51.2000238 C6.25792565,50.4635579 6.12477926,49.8727208 6.12894009,48.9947868 C6.12894009,48.25416 6.18719163,47.8880075 6.49509265,46.5981518 C6.79883284,45.337422 6.86540604,44.9130179 6.83628026,44.3388241 C6.80715449,43.7230221 6.7405813,43.4941767 6.34946379,42.728585 C5.81271742,41.6675747 5.54226382,40.9519129 5.34670506,40.0490139 C5.27181022,39.7119872 5.2510061,39.4914635 5.2510061,38.8839831 C5.24684527,38.2182511 5.25516692,38.101748 5.33838342,37.8396161 C5.44240403,37.5150718 5.64212361,37.1905275 5.81271742,37.0615419 C5.87512979,37.0157728 6.00827617,36.9700038 6.11645761,36.9616821 C6.31201637,36.9367172 6.55750502,37.0074512 6.55750502,37.0865068 C6.55750502,37.107311 6.49093182,37.2030099 6.40771533,37.2945481 C5.93754216,37.8104903 5.85848649,38.6260119 6.18719163,39.5621975 C6.31617719,39.9241892 6.50757512,40.3402717 6.53670089,40.3111459 C6.54502254,40.3069851 6.49509265,40.1405521 6.43268028,39.9449933 C6.2828906,39.5039459 6.20799575,38.8215707 6.26208647,38.4387748 C6.29953389,38.1641604 6.36610709,37.9894058 6.42851946,37.9894058 C6.51173595,37.9894058 6.61575656,38.1808037 6.7072947,38.5095089 C6.84460191,38.9838429 6.93614005,39.1835624 7.37718746,39.953315 C7.58522869,40.3153067 7.81407404,40.7688366 7.88064723,40.9602345 C8.30089052,42.1211046 8.20519155,43.3360654 7.56442457,44.9837519 C7.21075448,45.8783292 7.06512562,46.4025931 6.93197923,47.2056322 C6.69897305,48.5953476 6.81963697,49.9892239 7.2482019,50.8796403 C7.46040395,51.3206877 7.86400394,51.7242877 8.1802266,51.8199867 C8.45900185,51.9032032 8.60463071,51.9032032 8.89172761,51.8199867 C9.57410284,51.6202671 10.2023874,51.0086259 10.6559172,50.0974053 C11.2966842,48.8200322 11.6253894,46.5274178 11.5130471,44.1723911 C11.3674182,41.2598139 10.8681193,38.6551377 9.86536056,35.6427007 C9.24123687,33.7578472 9.01239152,32.8341441 8.86676266,31.60254 C8.75025957,30.5956205 8.78770699,29.8882803 9.01655235,28.7731793 C9.2121111,27.8245113 9.16218121,27.5124495 8.71697298,27.0297938 C8.15942248,26.4223134 7.47288643,26.2725238 6.39107203,26.5263341 C6.12894009,26.5845856 5.7253401,26.6719629 5.49649475,26.717732 C5.2676494,26.7635011 5.03880405,26.8092701 4.98471333,26.8217526 C4.80163704,26.8592 4.57279169,27.1254928 4.33562469,27.5831835 C4.06101027,28.1032866 3.948668,28.2322721 3.79887832,28.1948247 C3.59499792,28.1448948 3.2870969,27.5082887 3.09985979,26.7551794 C3.01248247,26.409831 3.00416082,26.2600413 3,25.5277362 L3,24.6955712 L3.13730721,24.321097 C3.49513813,23.3641074 3.7281443,22.6276414 3.81552162,22.1824332 C3.89873811,21.7663507 3.91122058,21.5999177 3.89873811,20.9924374 C3.86961234,19.5486312 3.87793399,19.3489116 3.97363295,19.0826189 C4.09845769,18.7372704 4.23160408,18.5167467 4.45212778,18.3170272 C4.66849066,18.1173076 4.65600818,18.1214684 5.39247413,18.1838808 C6.96942665,18.3253488 8.25096062,18.866256 9.41183068,19.8814972 C10.3688203,20.7219838 11.2509151,22.0700909 11.6961234,23.3682682 C11.704445,23.397394 11.8126265,23.3641074 11.9832203,23.2767301 C12.6031831,22.9646682 13.3562924,22.9272208 14.0885975,23.1768703 C14.3049604,23.2476043 14.5296449,23.3349816 14.5795748,23.3682682 C14.6336655,23.4057156 14.6877563,23.4265197 14.6960779,23.4140373 C14.7043995,23.4057156 14.6835954,23.2600868 14.646148,23.0894929 C14.5962181,22.8731301 14.5670923,22.4445651 14.5462882,21.6581693 C14.5130016,20.4889776 14.4921975,20.3475095 14.2633521,19.6193652 C14.0428284,18.9286684 13.6309068,17.9217488 13.5144037,17.7969241 C13.4769563,17.751155 13.2356285,17.5722396 12.9818182,17.3933241 C12.4076244,16.9855633 11.8833605,16.4987468 11.4631172,15.9703221 C10.6434348,14.9425984 10.2439956,13.9231964 9.61571109,11.2561078 C9.2121111,9.54600893 9.11225131,9.26723369 8.7044905,8.71800484 C8.58382659,8.55989351 8.11365341,8.03562961 7.66012353,7.55297396 C6.74890295,6.59182348 6.52421842,6.31304823 6.33282049,5.90944825 C6.22047823,5.67228125 6.20383493,5.59738641 6.20799575,5.30612868 C6.21215658,4.74025654 6.4368411,4.32833491 6.88621016,4.03707719 C7.00271325,3.96634317 7.30229262,3.82487513 7.55610292,3.72501534 C7.80991322,3.62515555 8.08036681,3.49616999 8.15942248,3.43791845 C8.31337299,3.32141536 8.52141422,2.99271022 8.9416575,2.21463602 C9.32029254,1.51561749 9.736375,0.895654627 9.99850695,0.637683503 C10.2398348,0.400516502 10.6808822,0.163349501 11.0719997,0.0634897111 C11.4131873,-0.0238876052 12.3119254,-0.0197267806 12.6697563,0.0676505357 C13.4436697,0.259048466 13.8347872,0.62520103 13.838948,1.15362575 C13.838948,1.4490443 13.8015006,1.53226079 13.5102429,1.85264428 C13.2439501,2.143902 13.2439501,2.143902 13.1732161,2.49757209 C13.1191254,2.78882981 12.9277275,3.10089166 12.4242677,3.74581947 C12.2079048,4.02459471 11.9374512,4.36578233 11.8292698,4.50725036 C11.7210883,4.6487184 11.5546553,4.91501117 11.4631172,5.09808746 C11.2425935,5.54329569 11.1635378,5.9344132 11.184342,6.51276781 C11.1968244,6.94965439 11.2051461,6.98294099 11.3549358,7.26587706 C11.6087461,7.74021107 11.9915419,8.18125847 13.318845,9.52936564 C14.6586305,10.8899553 14.8916367,11.1604089 15.524082,12.129881 C16.0774717,12.9703676 16.2022964,13.0827098 17.0968737,13.5570438 C17.9581644,14.0147345 17.9789685,14.0230562 18.0122551,13.8899098 C18.0663458,13.6818686 18.2827087,13.4946315 18.7154344,13.2824294 C19.2438592,13.0244583 19.4227746,12.8746686 19.7847664,12.3628872 C20.0801849,11.9551264 20.2091705,11.8427841 20.5378756,11.7013161 C20.9331539,11.5348831 21.1536777,11.5057573 22.0357725,11.5099181 C22.7555951,11.5099181 22.946993,11.5224006 23.2756982,11.6014563 C23.9996817,11.7678893 24.2410095,11.988413 24.2410095,12.4918727 C24.2410095,12.8080954 24.3491909,13.3989325 24.4698548,13.7442809 C24.632127,14.2186149 24.8068816,14.4641036 25.1397476,14.6929489 C25.5558301,14.9842067 25.6182424,15.0757448 26.0218424,16.0576994 L26.2548486,16.6235715 L26.2631702,17.4557365 C26.2673311,18.2712581 26.2714919,18.3003839 26.4212816,18.866256 C26.5044981,19.1824787 26.5710713,19.482058 26.5710713,19.5319879 C26.5710713,19.6609735 26.458729,19.8066024 26.3089393,19.8690147 L26.1799537,19.9231054 L26.3047785,19.9855178 C26.5253022,20.0978601 27.0786919,20.5680333 27.644564,21.1255837 C27.9483042,21.4210023 28.1854712,21.6332043 28.1729887,21.5999177 C28.0440032,21.167192 27.9441434,20.3683137 27.9441434,19.7067426 C27.9399825,18.9286684 27.7569063,17.9841612 27.4032362,16.9647592 C27.2076774,16.398887 26.9247413,15.7373159 26.7707908,15.5001489 C26.6750919,15.3503592 26.6418053,15.3295551 26.4087991,15.283786 C25.95943,15.2005695 25.8346053,15.0632623 25.7763538,14.6014108 C25.7430672,14.3392789 25.7097806,14.2560624 25.510061,13.9440005 C25.1480693,13.3906108 25.0149229,13.0910315 25.0149229,12.8330604 C25.010762,12.4252995 25.20216,12.2755099 26.2631702,11.8469449 C26.6792527,11.6805119 27.1244609,11.4807924 27.2576073,11.4017367 C27.3907537,11.322681 27.7652279,11.0022975 28.0897722,10.6902357 C28.9843495,9.83726665 29.4129144,9.53352646 30.2450794,9.17985637 C30.798469,8.94268937 31.1354958,8.8636337 31.5682216,8.8636337 C31.8469968,8.8636337 31.9593391,8.88443783 32.1257721,8.96349349 C32.5376937,9.15905225 32.7706999,9.53352646 32.8039865,10.0536295 L32.8206298,10.3532089 L32.4378339,10.7609697 C32.2297927,10.9856542 32.0009473,11.2644295 31.9343741,11.3850934 C31.7679412,11.6763511 31.5474175,11.8719099 31.0023494,12.2047758 C30.7527,12.3587264 30.515533,12.508516 30.4780855,12.533481 C30.3574216,12.6333408 30.2742051,12.8039346 30.1660237,13.174248 C30.0370381,13.6111346 29.9496608,13.7983717 29.708333,14.1187551 C29.4753268,14.430817 29.4420402,14.6263757 29.5627041,15.0091716 C29.7124938,15.5043097 30.086968,16.0576994 31.0273144,17.1852829 C32.2797226,18.6873405 33.407306,20.4764951 34.6597142,22.9521857 C35.1548524,23.9383012 35.5251658,24.5499424 36.0494297,25.2656042 L36.4030997,25.7565815 L36.5528894,25.5943093 C36.8316647,25.29473 37.368411,25.0991712 38.2047368,24.986829 C38.8912728,24.8952908 41.0257759,24.8287176 41.3045511,24.8869692 C41.8163325,24.9951506 42.3239531,25.3072125 43.181083,26.0395176 C43.4473758,26.2683629 43.8135283,26.5679423 43.9924438,26.7052495 C44.3835613,27.0006681 44.6581757,27.2919258 44.6956231,27.4458763 C44.745553,27.641435 44.6415324,27.7579381 44.2420933,27.9576577 C43.8052067,28.1740206 43.5181098,28.4403134 43.3308727,28.8064659 C43.2226912,29.018668 43.1977263,29.1268494 43.181083,29.4139463 C43.1644397,29.6885607 43.1353139,29.8217071 43.0437758,30.0172659 C42.8981469,30.3210061 42.8939861,30.4499916 43.0104892,30.774536 C43.1186706,31.0741153 43.1644397,31.7980988 43.0937057,32.1184823 C43.0188108,32.4679916 42.8565387,32.7634101 42.5486377,33.0962761 C42.3114707,33.3625688 42.2448975,33.4707503 42.136716,33.7703297 C41.9286748,34.3403626 41.9078707,34.3694884 41.6831861,34.3694884 C41.2879078,34.3694884 41.0673841,34.1364822 40.6346583,33.2502266 C40.4474212,32.8715915 40.2102542,32.434705 40.1103944,32.2849153 C39.8773883,31.9312452 39.43218,31.5151627 39.1076357,31.3404081 C38.5625677,31.0533112 37.7220811,30.9451298 37.2019781,31.0990803 C36.041108,31.4444287 34.8968812,32.6968369 33.7942627,34.8271791 C33.4697184,35.4554636 32.9371329,36.632977 32.9371329,36.7245151 C32.9371329,36.7494801 33.0161885,36.7910883 33.1160483,36.8202141 C33.2117473,36.8493398 33.4697184,36.9575213 33.6860813,37.0615419 C34.1770586,37.2987089 34.5515328,37.6482182 34.6555534,37.9686017 C34.759574,38.2765027 34.8386297,38.8839831 34.9343287,40.0906222 C35.0799575,41.9713149 35.1839781,42.7452283 35.3088029,42.9865561 C35.3337678,43.0281643 35.3961802,43.0656118 35.4502709,43.0656118 C35.8122627,43.0656118 36.0993596,44.0434055 36.0993596,45.2833313 C36.0993596,46.1737477 36.0827163,46.1529436 36.848308,46.2070343 C37.559809,46.261125 38.6333017,46.4858096 38.8038955,46.6147951 C38.841343,46.6439209 39.0285801,46.8810879 39.2282996,47.1432199 C39.4238584,47.4095126 39.6277388,47.6466796 39.6818295,47.6716446 C39.7442419,47.7007704 40.2185759,47.7382178 40.9051119,47.7673435 C43.3183902,47.8630425 44.3752396,48.0003497 44.8370912,48.279125 C44.9161468,48.324894 45.0825798,48.4497188 45.2074046,48.5495786 C45.482019,48.7701023 45.6526128,48.8574796 45.9813179,48.9531786 C46.4639736,49.0863249 46.7760354,49.3734218 46.8218045,49.7187703 C46.8634127,50.0308321 46.809322,50.1556569 46.4514911,50.5634177 C45.8981014,51.2000238 45.4445716,51.9198465 44.9203077,52.9891784 C44.6415324,53.5633722 44.5916025,53.638267 44.2795407,53.946168 C43.8842623,54.3414464 43.6096479,54.4953969 42.9563985,54.6992773 C42.6276933,54.8032979 42.2740232,54.9614092 41.7788851,55.227702 C41.3919284,55.4357433 40.855182,55.7145185 40.5930501,55.8435041 C40.027178,56.1222793 39.8441017,56.2970339 39.2823904,57.0875906 C38.841343,57.7158751 38.7414832,57.836539 38.6000151,57.9280772 C38.4668687,58.0196153 38.0923945,58.0237761 37.8968358,57.9405596 Z M36.4322255,55.181933 C35.471075,54.5286835 34.8802379,53.946168 34.5432112,53.3220444 C34.1479328,52.5897392 33.3240896,51.6618754 32.8830421,51.4538341 C32.6999659,51.3664568 32.6125886,51.291562 32.4669597,51.0835207 C32.2630793,50.8005847 32.104968,50.4968445 32.0217515,50.2513558 C31.9967865,50.1639785 31.9676607,50.0974053 31.9593391,50.105727 C31.9218917,50.1473352 32.0425556,50.7381723 32.1299329,50.9295702 C32.2672401,51.2291496 32.3795824,51.3414919 32.862238,51.6618754 C33.5529349,52.1195661 34.0189473,52.64383 34.3268483,53.3095619 C34.4017431,53.4759949 34.5515328,53.7298052 34.6597142,53.8712732 C35.0425101,54.374733 35.803941,54.9988567 36.2574709,55.1777721 C36.5029595,55.2734711 36.5695327,55.2734711 36.4322255,55.181933 Z M38.9162378,52.8102629 C39.2615862,52.4649145 39.4821099,52.3900197 40.5264769,52.2610341 C41.6457387,52.1237269 42.8066088,51.4829599 43.1477964,50.817228 C43.2559778,50.6050259 43.2310129,50.6133476 42.9647201,50.8838012 C42.6443366,51.2125063 42.2740232,51.4829599 41.8745841,51.6826795 C41.3794459,51.932329 41.0340975,52.0113846 40.3766872,52.0321887 C39.7941718,52.0529929 39.5362007,52.1070836 39.2782295,52.2651949 C39.0618667,52.3983413 38.7622873,52.7478506 38.6374625,53.022465 C38.4710296,53.3802959 38.4294213,53.5966588 38.5916935,53.2679536 C38.6624275,53.1264856 38.8080564,52.9184444 38.9162378,52.8102629 Z M12.3784986,41.0559335 C12.6447914,40.4484531 13.1482512,39.8867418 13.6725151,39.6162882 C14.1135625,39.3874428 14.4589109,39.3083872 15.0580696,39.3083872 C15.3285232,39.3083872 15.5324036,39.2959047 15.5157603,39.2792614 C15.499117,39.2626181 15.3326841,39.1502758 15.1496078,39.0254511 C14.7501686,38.7549975 14.1094016,38.1516779 13.8306264,37.7813645 C13.4644738,37.3028697 13.0941604,36.4290966 13.0899996,36.0463007 C13.0899996,35.9880492 12.9651749,35.8340986 12.7404903,35.6094141 C12.3576945,35.2266183 12.1746182,34.9228781 12.0705976,34.4859915 C11.9790594,34.1031956 11.9873811,33.8160987 12.0914017,33.7245606 C12.1371708,33.6829523 12.1746182,33.6247008 12.1746182,33.5997358 C12.1746182,33.4998761 11.9957027,33.3251214 11.6919626,33.121241 C11.5255296,33.0047379 11.3216492,32.8258225 11.2384327,32.717641 C10.8057069,32.1517689 10.4062678,30.9659339 10.0734018,29.2516742 C10.0151502,28.9437731 9.9568987,28.685802 9.94857705,28.6733195 C9.91112963,28.6400329 9.80710902,28.9437731 9.74469665,29.2766391 C9.63651521,29.8549937 9.58242449,30.6913195 9.60738944,31.4153029 C9.64899768,32.551208 9.77798324,33.1586884 10.1857441,34.0782307 C10.6767214,35.1808492 11.0387131,36.2793069 11.4464739,37.889546 C11.8043048,39.287583 12.1288491,41.0101644 12.1371708,41.5385891 L12.1371708,41.7133438 L12.2120656,41.4844984 C12.2536739,41.3596737 12.3285687,41.1641149 12.3784986,41.0559335 Z M15.9110387,36.7994099 C16.7764902,36.4748656 17.8083747,35.8757069 18.5240365,35.2765481 C19.6100117,34.3611667 20.3922468,33.2835132 20.8998674,32.0103009 C21.2618591,31.0907586 21.4116488,30.7703751 21.6238508,30.4250267 C22.0482549,29.7384906 22.5392322,29.2724783 23.138391,28.9812206 C23.9331085,28.5984247 24.9067414,28.5734597 25.8970177,28.9188082 L26.2465269,29.0353113 L26.150828,28.9354515 C26.0093599,28.781501 25.6806548,28.6067463 25.3020198,28.4819216 C24.4823373,28.2031464 23.5711167,28.3487752 22.7972034,28.8813608 C22.4768199,29.1060453 22.0024859,29.5803793 21.6821024,30.0047834 C21.3908447,30.3959009 21.2493766,30.6289071 20.6210921,31.7856163 C19.3936489,34.0449441 17.7085149,35.800812 15.8777521,36.7286759 C15.6364243,36.8493398 15.4575088,36.9491996 15.4741521,36.9491996 C15.4907954,36.9491996 15.690515,36.8826264 15.9110387,36.7994099 Z M14.3299253,35.6343791 C15.7778923,35.0601853 17.0094964,34.1864121 17.9415211,33.0671503 C18.5698056,32.3182019 18.9526014,31.6441483 19.3936489,30.5207257 C19.7847664,29.5221278 20.1217932,28.9520948 20.600288,28.4819216 C20.9289931,28.1615381 21.4033271,27.8411546 21.4490962,27.9160495 C21.4740611,27.9534969 21.4907044,27.9451752 21.5031869,27.8869237 C21.5198302,27.8245113 21.6155292,27.7745814 21.8735003,27.6913649 C22.5475539,27.4750021 23.4504528,27.5041278 24.2410095,27.7745814 C24.4074425,27.832833 24.5572322,27.878602 24.5655538,27.878602 C24.5780363,27.878602 24.5447497,27.832833 24.490659,27.7745814 C24.3533518,27.6289526 23.7708363,27.3543381 23.421327,27.2711217 C23.0177271,27.1795835 22.331191,27.2087093 21.9775209,27.333534 C21.8402137,27.3834639 21.7237106,27.4125897 21.715389,27.404268 C21.7029065,27.3959464 21.7528364,27.2087093 21.8235704,26.9965072 C22.2562962,25.6400784 22.4518549,24.5000125 22.4518549,23.3224991 C22.4518549,22.1574682 22.2979044,21.4917363 21.7819622,20.4681735 C21.478222,19.8565322 21.2576983,19.2615343 21.1411952,18.724788 C21.0454962,18.296223 21.0122096,17.1228705 21.0787828,16.6318932 C21.1370344,16.1783633 21.3284323,15.4169324 21.453257,15.1298355 C21.5780818,14.8302562 21.5364735,14.8177737 21.3367539,15.0882273 C20.9165107,15.6540994 20.7459168,16.2158107 20.7167911,17.1228705 C20.6835045,18.12979 20.8540983,18.9245075 21.3908447,20.2434889 C21.9816817,21.6956167 22.1980446,22.8107177 22.1481147,24.1713073 C22.1148281,25.0742063 22.0066467,25.7524207 21.7029065,26.9715423 L21.5697601,27.499967 L21.2909849,27.6580783 C20.9248323,27.8661196 20.2174921,28.5817814 19.8804653,29.0727587 C19.7389973,29.2849608 19.4310963,29.8050638 19.2022509,30.2336288 C18.7071128,31.1573318 18.4449808,31.5858967 17.991451,32.2141813 C16.9054758,33.7370431 15.5781727,34.9228781 14.196779,35.6010925 C13.9471295,35.7259172 13.7640532,35.825777 13.793179,35.825777 C13.8181439,35.825777 14.0594717,35.7383997 14.3299253,35.6343791 Z M32.4794422,34.332041 C34.1562545,31.8105813 35.9038008,30.2835587 37.5972564,29.8633154 C38.0965554,29.7426515 38.8995945,29.7426515 39.3656068,29.871637 C40.0646254,30.0588741 40.6721058,30.4208659 41.3003903,31.0200246 C41.7289552,31.4277854 41.7289552,31.4236246 41.354481,30.9576122 C40.855182,30.3418102 40.3267573,29.9007628 39.7608852,29.6303092 C39.1201182,29.326569 38.5750502,29.2433525 37.9467657,29.3515339 C36.8607904,29.5387711 36.0078214,30.0547133 34.8261472,31.2280658 C33.7692978,32.2849153 33.0328318,33.2502266 32.1465762,34.7647667 C31.9759824,35.0601853 32.1257721,34.8604657 32.4794422,34.332041 Z M28.4434423,33.524841 C28.3768691,32.5262431 28.2104361,31.8521895 27.8775702,31.2613524 C27.7277805,30.9908988 27.407397,30.6330679 27.240964,30.5415298 C27.1660692,30.5040824 27.1785516,30.5290473 27.2867331,30.6372287 C27.7028155,31.0533112 28.0523248,32.0893565 28.2728485,33.5789317 C28.3186176,33.8868327 28.3727083,34.2904327 28.3893516,34.473509 L28.4184774,34.806375 L28.451764,34.473509 C28.4684073,34.2904327 28.4642464,33.8618678 28.4434423,33.524841 Z M29.4628443,32.8175008 C29.375467,32.2266637 29.2256773,31.723204 29.0176361,31.319604 C28.8345598,30.9700947 28.5349805,30.6122638 28.3186176,30.4832782 C28.1979537,30.416705 28.2021145,30.4250267 28.3685475,30.5872988 C28.6930918,30.916004 28.9510629,31.5359669 29.1674258,32.4971173 C29.2756072,32.9880946 29.4129144,33.8826719 29.471166,34.473509 C29.5002918,34.7647667 29.5044526,34.710676 29.5169351,34.0366224 C29.5252567,33.4998761 29.5086134,33.1337235 29.4628443,32.8175008 Z M31.0189927,33.3126389 C31.1438175,32.717641 31.4017886,31.9811751 31.6847247,31.4111421 C31.8220319,31.1406885 31.9302133,30.916004 31.9218917,30.916004 C31.7554587,30.916004 31.0772443,30.749571 30.657001,30.6039421 C30.3532608,30.4999215 30.0994505,30.416705 30.0911289,30.416705 C30.0828072,30.416705 30.1077722,30.5082432 30.1535412,30.6205854 C30.3449392,31.1323669 30.6153928,32.5012782 30.8026299,33.9326018 L30.8775247,34.5151173 L30.9066505,34.1198389 C30.9232938,33.903476 30.9732237,33.5414843 31.0189927,33.3126389 Z M11.3466141,28.3487752 C11.3799007,28.2489154 11.3882224,28.0367134 11.3715791,27.7163299 C11.3424533,27.0547588 11.2009853,26.5346557 10.8847626,25.9022104 C10.4561977,25.0409197 9.92777293,24.5083341 9.11641214,24.1130558 C8.42155443,23.7718682 7.80159157,23.6387218 6.92365758,23.634561 C6.47428853,23.634561 5.51729887,23.7302599 5.34670506,23.7926723 C5.30509682,23.8093156 5.67124938,23.8217981 6.15390503,23.8259589 C6.93614005,23.8259589 7.09009056,23.8384414 7.53529879,23.9341403 C8.97910492,24.2462022 9.90696881,24.8744867 10.4437152,25.9188537 C10.6767214,26.3723835 10.780742,26.717732 10.8639585,27.3044083 C10.9887832,28.1615381 11.0928038,28.5027257 11.2342718,28.5027257 C11.2675584,28.5027257 11.3174883,28.4361525 11.3466141,28.3487752 Z M14.408981,27.6206309 C14.3798552,26.9757031 14.433946,26.2642021 14.5296449,26.0811258 C14.5670923,26.006231 14.716882,25.7981898 14.8625109,25.6192743 C15.0081397,25.436198 15.1288037,25.2572826 15.1288037,25.2156743 C15.1288037,25.0159547 14.3548903,24.6373197 13.6309068,24.4833692 C13.1066429,24.3710269 12.511645,24.4334393 12.2661563,24.6248372 L12.1704574,24.6997321 L12.3327295,25.0492413 C12.5948615,25.6151135 12.653113,25.9188537 12.653113,26.7135712 C12.653113,27.0922062 12.6364697,27.4500371 12.6198264,27.5166103 C12.5948615,27.6123093 12.6031831,27.6289526 12.6697563,27.6289526 C12.819546,27.6289526 13.934647,27.9285319 14.1468491,28.0242309 C14.2633521,28.0783216 14.3756944,28.1240907 14.3964985,28.1240907 C14.4173027,28.1282515 14.4256243,27.9118886 14.408981,27.6206309 Z M42.1908067,27.6664 C41.8912274,27.333534 41.1131532,26.884165 40.6138542,26.7551794 C40.2185759,26.6553196 39.6735079,26.646998 39.3239986,26.7343753 C38.9994543,26.8175918 38.4460646,27.0838845 38.2629883,27.2503175 L38.1173595,27.3793031 L38.4710296,27.2170309 C38.9162378,27.0089897 39.2615862,26.9216124 39.7234378,26.8924866 C40.4973511,26.8425567 41.3419985,27.096367 42.0077305,27.5790227 C42.2740232,27.7745814 42.2989882,27.7870639 42.1908067,27.6664 Z M23.7001023,25.5568619 C24.1619538,24.1505032 24.3533518,22.9188991 24.3117435,21.6623301 C24.2742961,20.5472291 24.1328281,20.0063219 23.5960817,18.9536333 C23.113426,18.013287 22.9511539,17.3683591 22.9220281,16.2699015 C22.8970632,15.3628417 22.9761188,14.7844871 23.2216075,14.0355387 C23.304824,13.79005 23.3838796,13.5570438 23.3922013,13.5237572 C23.446292,13.3573243 23.0884611,13.8316583 22.946993,14.1145943 C22.6349312,14.7303964 22.5142673,15.4710231 22.5808405,16.3115097 C22.6432529,17.0854231 22.8180075,17.7386725 23.2424116,18.8080045 C23.8623745,20.3558312 24.0662549,21.4085198 24.0204858,22.7607878 C23.9830384,23.7219383 23.8665353,24.4126352 23.5128652,25.7898681 C23.4088446,26.1893073 23.3256281,26.5263341 23.3256281,26.5388165 C23.3297889,26.6012289 23.5461518,26.0436784 23.7001023,25.5568619 Z M10.1815832,23.0478847 C9.71557088,21.6914559 8.55886164,20.9383466 6.7072947,20.788557 C6.57414832,20.7760745 6.47428853,20.7760745 6.48261018,20.7843961 C6.49093182,20.7968786 6.67816893,20.8509693 6.89453181,20.90506 C8.09701011,21.2088002 9.29532759,22.020161 10.0359544,23.0270806 C10.1441358,23.1768703 10.2398348,23.2933734 10.2481564,23.2850517 C10.2564781,23.2808909 10.2273523,23.1727094 10.1815832,23.0478847 Z" id="Shape" fill="#FFFFFF" fill-rule="nonzero" opacity="0.19609375" transform="translate(24.916879, 29.000000) scale(1, -1) translate(-24.916879, -29.000000) "></path>
            <g id="Group-2" filter="url(#filter-1)" transform="translate(0.000000, 7.000000)">
                <path d="M44.0828402,38.4615385 L44.0828402,33.1360947 L50,33.1360947 L50,38.4615385 L50,44.3786982 L10.9467456,44.3786982 L10.9467456,38.4615385 L44.0828402,38.4615385 Z M50,13.6094675 L50,18.9349112 L44.0828402,18.9349112 L44.0828402,13.6094675 L10.9467456,13.6094675 L10.9467456,7.69230769 L50,7.69230769 L50,13.6094675 Z" id="Combined-Shape" fill="#63808E"></path>
                <rect id="Rectangle-2" fill="#FFFFFF" x="0" y="30.7692308" width="39.0532544" height="5.91715976"></rect>
                <rect id="Rectangle-2" fill="#63808E" x="10.9467456" y="7.69230769" width="5.91715976" height="36.6863905"></rect>
                <path d="M33.1360947,15.8284024 L33.1360947,5.91715976 L5.91715976,5.91715976 L5.91715976,15.8284024 L33.1360947,15.8284024 Z M33.1360947,21.7455621 L5.91715976,21.7455621 L5.91715976,36.6863905 L-2.84217094e-14,36.6863905 L-2.84217094e-14,5.91715976 L-2.84217094e-14,0 L33.1360947,0 L39.0532544,0 L39.0532544,36.6863905 L33.1360947,36.6863905 L33.1360947,21.7455621 Z" id="Combined-Shape" fill="#FFFFFF"></path>
            </g>
            <g id="BIKA">
                <use fill="black" fill-opacity="1" filter="url(#filter-3)" xlink:href="#path-2"></use>
                <use fill="#FFFFFF" fill-rule="evenodd" xlink:href="#path-2"></use>
            </g>
            <g id="Construction">
                <use fill="black" fill-opacity="1" filter="url(#filter-5)" xlink:href="#path-4"></use>
                <use fill="#63808E" fill-rule="evenodd" xlink:href="#path-4"></use>
            </g>
        </g>
    </g>
</svg>