<?xml version="1.0" encoding="UTF-8"?>
<svg width="402px" height="198px" viewBox="0 0 402 198" version="1.1" xmlns="http://www.w3.org/2000/svg" xmlns:xlink="http://www.w3.org/1999/xlink">
    <!-- Generator: Sketch 51.2 (57519) - http://www.bohemiancoding.com/sketch -->
    <title>chasLogo</title>
    <desc>Created with Sketch.</desc>
    <defs>
        <polygon id="path-1" points="0.00020136682 0.787 91.777982 0.787 91.777982 100.861289 0.00020136682 100.861289"></polygon>
    </defs>
    <g id="Page-1" stroke="none" stroke-width="1" fill="none" fill-rule="evenodd">
        <g id="chasLogo" transform="translate(0.000000, -1.000000)">
            <path d="M99.1117,51.1473 C99.1117,35.7603 99.1117,20.3733 99.1117,4.9863 C99.1117,3.1843 99.1147,3.1803 100.8897,3.1803 C108.6847,3.1793 116.4787,3.1783 124.2737,3.1813 C125.8797,3.1813 125.8877,3.1893 125.8877,4.7933 C125.8907,15.6573 125.8887,26.5213 125.8897,37.3853 C125.8897,39.0383 125.8937,39.0413 127.5497,39.0423 C137.7267,39.0433 147.9037,39.0433 158.0817,39.0413 C159.6917,39.0413 159.6957,39.0383 159.6957,37.4623 C159.6977,26.5993 159.6957,15.7353 159.6977,4.8713 C159.6977,3.1873 159.7027,3.1813 161.3487,3.1813 C169.1827,3.1783 177.0177,3.1783 184.8527,3.1813 C186.4507,3.1813 186.4597,3.1893 186.4597,4.8133 C186.4617,35.7483 186.4617,66.6843 186.4597,97.6193 C186.4597,99.2293 186.4407,99.2473 184.8387,99.2483 C177.0037,99.2513 169.1687,99.2513 161.3347,99.2483 C159.7027,99.2473 159.6977,99.2403 159.6977,97.5333 C159.6967,86.5483 159.6977,75.5633 159.6967,64.5783 C159.6967,62.8673 159.6937,62.8643 157.9527,62.8643 C147.8157,62.8623 137.6787,62.8623 127.5417,62.8643 C125.8937,62.8643 125.8897,62.8703 125.8897,64.5513 C125.8887,75.5363 125.8897,86.5213 125.8887,97.5063 C125.8887,99.2433 125.8837,99.2483 124.1497,99.2483 C116.3547,99.2513 108.5607,99.2513 100.7657,99.2483 C99.1177,99.2473 99.1127,99.2403 99.1117,97.5503 C99.1117,82.0833 99.1117,66.6153 99.1117,51.1473" id="Fill-1" fill="#2A0D3D"></path>
            <path d="M18.7655,115.64 C19.2015,115.64 19.6375,115.64 20.0735,115.64 C30.8155,115.64 41.5575,115.651 52.3005,115.622 C53.3055,115.619 54.0365,115.912 54.7665,116.607 C68.2065,129.412 83.1015,140.204 99.4965,148.924 C117.7815,158.649 137.1005,165.452 157.4815,169.064 C164.9345,170.385 172.4945,171.267 180.0445,171.821 C187.2375,172.348 194.4865,172.418 201.7015,172.257 C207.6175,172.125 213.5185,171.342 219.4305,170.898 C220.0115,170.854 220.7315,171.015 221.1995,171.345 C230.2995,177.778 239.3725,184.25 248.4485,190.719 C248.7655,190.944 249.0485,191.217 249.3075,191.661 C210.2225,201.302 171.2555,200.981 132.5135,190.073 C86.8875,177.228 49.0715,152.237 18.5615,116.121 C18.6295,115.961 18.6975,115.801 18.7655,115.64" id="Fill-3" fill="#2A0D3D"></path>
            <path d="M246.3163,34.8153 C246.2143,34.8273 246.1123,34.8393 246.0103,34.8513 C242.5743,43.4643 239.1393,52.0773 235.6573,60.8083 L256.5563,60.8083 C253.0973,52.0283 249.7073,43.4213 246.3163,34.8153 M300.0213,99.1483 C299.3473,99.1813 298.9143,99.2203 298.4793,99.2203 C289.9993,99.2243 281.5173,99.1953 273.0373,99.2533 C271.7623,99.2623 271.1923,98.8183 270.7513,97.6623 C268.9083,92.8353 266.9463,88.0533 265.0843,83.2333 C264.7203,82.2943 264.2183,81.9553 263.2123,81.9583 C251.8233,81.9883 240.4343,81.9903 229.0453,81.9563 C227.9783,81.9523 227.4773,82.3383 227.1013,83.3103 C225.2243,88.1673 223.2543,92.9883 221.3813,97.8483 C220.9843,98.8763 220.4453,99.2533 219.3333,99.2473 C211.0543,99.2033 202.7753,99.2253 194.4963,99.2183 C194.0293,99.2183 193.5623,99.1553 192.9133,99.1073 C193.1363,98.4623 193.2753,97.9743 193.4713,97.5093 C206.5393,66.4803 219.6163,35.4543 232.6653,4.4173 C233.0583,3.4833 233.5703,3.1693 234.5643,3.1743 C242.4393,3.2093 250.3153,3.2103 258.1893,3.1733 C259.1903,3.1683 259.7003,3.5033 260.0883,4.4243 C272.3113,33.4003 284.5583,62.3663 296.8023,91.3343 C297.7143,93.4913 298.6303,95.6453 299.5393,97.8043 C299.6903,98.1653 299.8053,98.5423 300.0213,99.1483" id="Fill-5" fill="#2A0D3D"></path>
            <path d="M367.5653,33.1698 C366.0893,32.2408 364.6583,31.2708 363.1643,30.4088 C355.8643,26.1948 348.1043,23.5418 339.5633,23.9208 C337.8353,23.9978 336.0003,24.4148 334.4483,25.1608 C330.3913,27.1118 330.2033,32.4138 334.0293,34.7848 C337.3783,36.8598 341.1983,37.6838 344.9683,38.5688 C351.8063,40.1738 358.6743,41.6618 365.1813,44.4098 C370.2943,46.5698 375.0243,49.2928 378.5783,53.6968 C381.6763,57.5368 383.1623,61.9838 383.4963,66.8678 C383.8303,71.7658 383.3113,76.5408 381.4713,81.1198 C378.3863,88.7988 372.6653,93.8188 365.2093,97.0288 C359.6133,99.4378 353.7203,100.4828 347.6583,100.7208 C337.1533,101.1328 326.9853,99.5558 317.2173,95.6098 C311.2583,93.2018 305.8023,89.9478 300.8483,85.8388 C299.9083,85.0578 299.8833,84.5548 300.6773,83.6228 C305.0753,78.4568 309.4203,73.2478 313.7363,68.0128 C314.4333,67.1678 314.8853,67.1128 315.7633,67.7848 C322.5753,72.9978 330.1043,76.6398 338.6513,77.9468 C342.5713,78.5458 346.5203,78.9348 350.4413,78.0398 C351.7533,77.7408 353.1103,77.2558 354.2203,76.5168 C357.5953,74.2718 357.6543,69.4138 354.1343,67.4358 C351.3923,65.8938 348.3263,64.8218 345.2903,63.9318 C339.7153,62.2978 334.0193,61.0798 328.4443,59.4508 C322.6823,57.7668 317.1743,55.4458 312.5003,51.5278 C307.3803,47.2378 304.8603,41.6638 304.3803,35.0668 C303.9873,29.6488 304.7233,24.4288 307.0793,19.5068 C310.6783,11.9818 316.7533,7.2288 324.4213,4.3758 C331.4293,1.7698 338.7053,1.2158 346.1213,1.6668 C351.8323,2.0148 357.4253,2.8918 362.8843,4.6088 C369.1913,6.5938 374.9463,9.6268 380.1743,13.6658 C380.6283,14.0168 381.1033,14.2948 380.5893,15.0148 C376.3683,20.9318 372.1733,26.8678 367.9663,32.7948 C367.8773,32.9198 367.7383,33.0098 367.5653,33.1698" id="Fill-7" fill="#2A0D3D"></path>
            <g id="Group-11" transform="translate(0.000000, 0.213000)">
                <mask id="mask-2" fill="white">
                    <use xlink:href="#path-1"></use>
                </mask>
                <g id="Clip-10"></g>
                <path d="M50.6664,0.7868 C60.4024,1.1068 69.6114,3.0498 77.9504,8.2728 C82.9394,11.3978 87.0934,15.4148 90.6714,20.0708 C91.3574,20.9638 90.9764,21.3648 90.2804,21.8998 C84.6134,26.2558 78.9664,30.6368 73.3084,35.0038 C71.1734,36.6508 71.1984,36.6158 69.3534,34.5528 C65.2004,29.9078 60.2824,26.5028 53.9614,25.6538 C42.9684,24.1768 33.5004,29.6008 29.6504,40.0108 C25.9744,49.9468 26.7144,59.6238 33.3494,68.2228 C38.2104,74.5228 44.9214,76.9188 52.8274,76.2738 C60.1744,75.6748 65.6654,71.8808 70.3194,66.5178 C72.1414,64.4188 71.6334,64.5748 73.7774,66.0968 C79.4414,70.1168 85.0984,74.1458 90.7554,78.1738 C92.0594,79.1018 92.0534,79.1058 91.0934,80.3848 C85.4574,87.8958 78.5994,93.8798 69.7574,97.3478 C64.2174,99.5198 58.4494,100.5028 52.5074,100.7898 C44.4624,101.1778 36.7014,100.0098 29.3614,96.7128 C13.7504,89.7028 4.2494,77.6758 1.0234,60.9188 C-1.4586,48.0268 0.5354,35.7148 7.4374,24.4488 C14.9864,12.1248 26.1264,4.8188 40.2334,2.0498 C43.6614,1.3758 47.1864,1.1948 50.6664,0.7868" id="Fill-9" fill="#2A0D3D" mask="url(#mask-2)"></path>
            </g>
            <path d="M254.6776,190.4178 C255.1336,187.8768 255.5196,185.7078 255.9136,183.5398 C257.1806,176.5948 258.4696,169.6528 259.6986,162.7018 C259.8626,161.7728 260.2736,161.3268 261.1386,161.0228 C274.7906,156.2358 287.7696,150.0268 300.0736,142.4208 C312.0316,135.0278 323.1186,126.5008 333.2646,116.7628 C334.0736,115.9858 334.8806,115.6108 336.0326,115.6158 C346.6536,115.6578 357.2746,115.6398 367.8946,115.6398 L369.4356,115.6398 C369.5046,115.7608 369.5736,115.8808 369.6446,116.0008 C362.3876,124.8858 354.4236,133.1078 345.8396,140.7298 C319.3796,164.2238 289.1306,180.7678 254.6776,190.4178" id="Fill-12" fill="#2A0D3D"></path>
            <path d="M388.8759,25.0379 C383.8139,25.0019 379.8489,28.9699 379.8309,34.0889 C379.8129,39.1919 383.6579,43.1569 388.6699,43.2019 C393.7579,43.2469 397.6979,39.3429 397.7559,34.1989 C397.8139,29.0019 394.0079,25.0739 388.8759,25.0379 M388.8129,21.8369 C395.6239,21.8389 401.1309,27.3239 401.0889,34.0639 C401.0459,40.8879 395.5069,46.4339 388.7489,46.4179 C381.9689,46.4029 376.5839,40.9439 376.5969,34.0999 C376.6089,27.2689 382.0219,21.8349 388.8129,21.8369" id="Fill-14" fill="#2A0D3D"></path>
            <path d="M388.1796,33.5272 L388.7496,33.5272 C389.4116,33.5272 389.8956,33.4142 390.2006,33.1882 C390.5066,32.9622 390.6596,32.6082 390.6596,32.1252 C390.6596,31.5602 390.5176,31.1582 390.2326,30.9202 C389.9476,30.6812 389.4686,30.5622 388.7956,30.5622 L388.1796,30.5622 L388.1796,33.5272 Z M385.2986,39.4732 L385.2986,28.1972 L388.5106,28.1972 C389.7686,28.1972 390.6456,28.2552 391.1416,28.3702 C391.6366,28.4852 392.0646,28.6792 392.4236,28.9522 C392.8286,29.2602 393.1416,29.6522 393.3596,30.1302 C393.5776,30.6082 393.6866,31.1342 393.6866,31.7092 C393.6866,32.5822 393.4726,33.2922 393.0436,33.8392 C392.6156,34.3862 391.9896,34.7492 391.1676,34.9292 L394.2416,39.4732 L390.7676,39.4732 L388.1796,35.0602 L388.1796,39.4732 L385.2986,39.4732 Z" id="Fill-16" fill="#2A0D3D"></path>
        </g>
    </g>
</svg>