<?xml version="1.0" encoding="UTF-8"?>
<svg width="266px" height="60px" viewBox="0 0 266 60" version="1.1" xmlns="http://www.w3.org/2000/svg" xmlns:xlink="http://www.w3.org/1999/xlink">
    <!-- Generator: Sketch 51.2 (57519) - http://www.bohemiancoding.com/sketch -->
    <title>Group 3</title>
    <desc>Created with Sketch.</desc>
    <defs>
        <polygon id="path-1" points="0 0 265.371021 0 265.371021 59.6097872 0 59.6097872"></polygon>
    </defs>
    <g id="designs" stroke="none" stroke-width="1" fill="none" fill-rule="evenodd">
        <g id="1-Home" transform="translate(-730.000000, -3722.000000)">
            <g id="Group-3" transform="translate(-1.000000, 2721.000000)">
                <g id="Group-5" transform="translate(0.000000, 945.000000)">
                    <g id="Group-3" transform="translate(731.000000, 56.000000)">
                        <mask id="mask-2" fill="white">
                            <use xlink:href="#path-1"></use>
                        </mask>
                        <g id="Clip-2"></g>
                        <path d="M241.630596,48.9134894 C248.267617,48.9134894 251.236553,47.2734894 251.236553,42.6645532 C251.236553,37.9781702 248.034851,35.9500851 241.552723,35.9500851 L233.896979,35.9500851 L233.896979,48.9134894 L241.630596,48.9134894 Z M220.468043,5.33689362 L240.14634,5.33689362 C254.280383,5.33689362 261.389745,10.0232766 261.389745,19.002 C261.389745,23.6888085 258.966766,27.3598723 254.280383,29.4688085 C261.699957,31.8105106 265.371021,36.3381702 265.371021,43.3666809 C265.371021,53.5973191 258.342511,58.674766 244.285915,58.674766 L220.468043,58.674766 L220.468043,5.33689362 Z M247.953574,20.8777447 C247.953574,16.8151915 245.611872,14.7875319 240.770596,14.7875319 L233.896979,14.7875319 L233.896979,26.422 L240.770596,26.422 C245.611872,26.422 247.953574,24.6266809 247.953574,20.8777447 Z M165.418681,12.054766 C170.807191,6.97646809 177.599106,4.47604255 186.034851,4.47604255 C194.466766,4.47604255 201.339532,6.97646809 206.728043,12.054766 C212.194426,17.2845532 215.082511,24.0802979 215.082511,32.0428511 C215.082511,40.009234 212.194426,46.8049787 206.728043,51.9568936 C201.339532,57.0317872 194.466766,59.6100851 186.034851,59.6100851 C177.599106,59.6100851 170.807191,57.0317872 165.418681,51.9568936 C159.949319,46.8049787 157.061234,39.9317872 157.061234,32.0428511 C157.061234,24.0802979 159.949319,17.2845532 165.418681,12.054766 Z M186.034851,48.3671064 C194.85783,48.3671064 201.262085,41.649234 201.262085,32.0428511 C201.262085,22.4402979 194.85783,15.6445532 186.034851,15.6445532 C177.211021,15.6445532 170.807191,22.4402979 170.807191,32.0428511 C170.807191,41.649234 177.211021,48.3671064 186.034851,48.3671064 Z M137.784213,58.674766 L151.527191,58.674766 L151.527191,6.03859574 L137.784213,6.03859574 L137.784213,58.674766 Z M130.370596,54.2215745 L130.370596,41.7266809 C123.966766,46.1773191 117.485064,48.4445532 111.084213,48.4445532 C101.008894,48.4445532 94.7599574,41.8849787 94.7599574,32.0428511 C94.7599574,21.8126383 101.319532,15.5671064 112.096553,15.5671064 C118.031447,15.5671064 123.966766,17.4398723 129.902085,21.269234 L129.902085,8.77476596 C123.966766,5.8832766 117.876553,4.39902128 111.239532,4.39902128 C92.7322979,4.39902128 81.0174043,15.8028511 81.0174043,32.0428511 C81.0174043,40.009234 83.9863404,47.0377447 89.294,52.115617 C94.4497447,56.9543404 101.478255,59.6100851 109.987617,59.6100851 C117.407191,59.6100851 124.047617,57.814766 130.370596,54.2215745 Z M23.7459149,58.5943404 C23.7135745,58.6394468 23.6782553,58.6849787 23.6454894,58.7300851 C23.066766,58.7300851 22.1220851,57.9764681 22.5591064,57.3394468 L22.5591064,57.3037021 C23.4352766,57.4462553 23.5901702,57.7598723 23.7459149,58.5943404 Z M41.5480426,58.3224255 C41.4799574,58.3288085 41.4152766,58.335617 41.347617,58.3385957 C40.781234,58.2739149 39.6037872,57.5751915 40.361234,56.9317872 L40.361234,56.8994468 C41.1761277,56.9513617 41.7386809,57.4266809 41.5480426,58.3224255 Z M28.8693191,58.5100851 C28.5846383,58.5845532 27.8629362,57.2488085 28.4263404,56.8994468 C29.5901702,56.9351915 29.9071915,58.2415745 28.8693191,58.5100851 Z M68.6748511,58.0181702 C68.3578298,58.0181702 68.0569787,58.0602979 67.7693191,57.9602979 C67.0510213,57.7045532 66.7663404,57.0385957 67.5914468,56.7632766 C68.241234,56.828383 68.6293191,57.374766 68.6748511,58.0181702 Z M47.0757021,58.1866809 C46.5225106,58.1866809 45.141234,57.4522128 45.7850638,56.7632766 C46.4642128,56.8930638 47.2016596,57.368383 47.0757021,58.1866809 Z M62.7748511,58.3224255 C62.5037872,58.3224255 62.2250638,58.5002979 61.8922979,58.4164681 C61.1744255,58.2317872 60.3459149,57.355617 61.180383,56.7279574 C62.1995319,56.8249787 62.4063404,57.5207234 62.7748511,58.3224255 Z M20.1165532,56.8960426 C20.3433617,57.154766 20.1199574,58.1866809 19.8063404,58.2934894 C19.1369787,58.5134894 18.7650638,57.0288085 19.3050638,56.595617 C19.5995319,56.6407234 19.9195319,56.6632766 20.1165532,56.8960426 Z M16.8952766,58.0832766 L16.8629362,58.0832766 L16.8629362,58.1185957 C16.1744255,58.1185957 15.640383,57.1351915 16.0157021,56.595617 C17.0118723,56.6862553 16.8952766,57.1513617 16.8952766,58.0832766 Z M54.8088936,58.1185957 L54.8088936,58.1543404 C54.0586809,58.1543404 52.4348511,57.0062553 53.6897447,56.4564681 C54.4982553,56.5339149 54.9318723,57.3037021 54.8088936,58.1185957 Z M58.0982553,58.3224255 C57.1799574,58.3224255 55.3944255,56.9641277 56.8433617,56.2879574 C57.9625106,56.3237021 58.4344255,57.2615745 58.0982553,58.3224255 Z M37.0037872,58.1185957 L37.0037872,58.1543404 C36.2242128,58.1543404 35.1374043,56.7734894 35.7842128,56.0875319 C36.8225106,56.2134894 37.2850638,57.0641277 37.0037872,58.1185957 Z M14.3208085,56.0875319 C14.1722979,56.0973191 14.0263404,56.1066809 13.8774043,56.1198723 C13.2369787,56.1198723 12.4642128,56.2007234 11.9110213,56.0160426 C11.907617,55.9841277 11.9016596,55.9517872 11.8948511,55.9194468 C12.0374043,55.6249787 12.1761277,55.3275319 12.3186809,55.0330638 C12.781234,55.062 15.5922979,55.5373191 14.3208085,56.0875319 Z M15.2361277,54.4573191 C15.1033617,54.5773191 14.974,54.6968936 14.8450638,54.8164681 C14.346766,55.0041277 13.3957021,54.5317872 13.0659149,54.2215745 C13.0693191,54.1858298 13.0693191,54.1530638 13.0722979,54.1207234 C13.1952766,53.8360426 13.4216596,53.5777447 13.674,53.3709362 C14.1850638,53.6581702 14.9029362,53.9368936 15.2361277,54.4573191 Z M11.5229362,54.6675319 C11.6425106,54.9394468 11.1284681,55.6734894 10.9182553,55.8254043 C10.5233617,56.1100851 8.2433617,55.2500851 8.13314894,54.8066809 C8.02676596,54.3832766 8.86761702,53.4968936 9.16506383,53.2381702 C9.53059574,53.3998723 11.4033617,54.3862553 11.5229362,54.6675319 Z M16.6625106,52.9177447 C16.4910213,53.0568936 16.3165532,53.1930638 16.1420851,53.3317872 C15.9608085,53.4615745 15.7535745,53.655617 15.507617,53.6488085 C15.2199574,53.6360426 14.961234,53.3837021 14.7442128,53.2185957 C13.8484681,52.5458298 15.0357021,51.9543404 15.640383,51.575617 C16.0059149,51.702 16.8531489,52.4488085 16.6625106,52.9177447 Z M12.881234,52.8760426 C12.926766,53.1734894 12.5582553,53.5905106 12.3152766,53.7266809 C11.9178298,53.9462553 8.58974468,52.7364681 10.8952766,51.2360426 L10.8952766,51.2037021 C11.2191064,51.2875319 12.8297447,52.5330638 12.881234,52.8760426 Z M8.31442553,52.7526383 C8.28846809,53.1794468 7.59953191,53.8168936 7.29868085,54.1177447 C6.73612766,54.1177447 4.58846809,52.1190213 4.76974468,51.5334894 C4.90208511,51.1032766 5.86591489,50.7088085 6.2152766,50.4888085 C6.48038298,50.6764681 8.32421277,52.5781702 8.31442553,52.7526383 Z M17.8433617,52.6168936 C17.4935745,52.5781702 16.5654894,51.2130638 16.7335745,50.909234 C16.9765532,50.4824255 17.7037872,50.3143404 18.1178298,50.1522128 C19.0557021,50.3011489 19.5118723,52.8015745 17.8433617,52.6168936 Z M20.0782553,52.0024255 C19.6250638,52.0509362 19.2761277,50.1879574 19.3374043,49.7773191 C19.6671915,49.6768936 19.994,49.5768936 20.3208085,49.4730638 C20.9480426,49.6802979 20.7020851,51.934766 20.0782553,52.0024255 Z M22.2548511,49.4373191 C22.2480426,49.5279574 22.2420851,49.6151915 22.2352766,49.7058298 C22.0833617,50.3368936 21.8701702,50.8964681 21.4752766,51.4045532 L21.4399574,51.4045532 L21.4399574,51.4398723 L21.407617,51.4398723 C21.407617,50.7994468 21.2195319,49.9326383 21.5433617,49.3696596 C21.7795319,49.395617 22.0152766,49.4151915 22.2548511,49.4373191 Z M10.294,50.5505106 C10.2259149,50.8543404 9.90251064,51.0645532 9.68591489,51.2845532 C9.50506383,51.4624255 9.30421277,51.7696596 9.02931915,51.7696596 C8.63485106,51.7696596 7.2246383,50.2139149 7.40208511,49.848383 C7.63229787,49.3760426 8.5927234,49.0139149 9.02931915,48.7939149 C9.30080851,48.9977447 10.3620851,50.2398723 10.294,50.5505106 Z M15.4042128,50.7960426 C15.1488936,50.7960426 13.9488936,52.0543404 13.5378298,52.2194468 C13.2148511,51.9798723 12.8914468,51.7373191 12.5642128,51.4943404 C12.3220851,51.262 11.8659149,50.9968936 11.8237872,50.6437021 C11.7654894,50.1458298 13.5642128,48.9560426 13.9454894,48.6934894 C14.5118723,49.1173191 15.1846383,50.1360426 15.4042128,50.7960426 Z M18.221234,49.2049787 C18.1305957,49.3858298 16.3522979,50.2428511 16.1161277,50.168383 C15.8152766,50.074766 15.5757021,49.495617 15.4237872,49.2500851 C15.2586809,48.9879574 14.9254894,48.5773191 14.9710213,48.2279574 C15.0357021,47.7139149 16.8148511,47.0313617 17.2705957,46.8598723 C17.6493191,47.0313617 18.4254894,48.8002979 18.221234,49.2049787 Z M5.75910638,49.6607234 C5.52038298,50.1428511 4.69187234,50.3854043 4.28123404,50.6598723 C3.75740426,50.6598723 2.82591489,47.7977447 3.13612766,47.3190213 C3.34293617,47.0054043 4.10974468,46.9049787 4.4527234,46.794766 C4.76293617,46.8985957 5.8727234,49.4343404 5.75910638,49.6607234 Z M13.0722979,47.3317872 C13.1693191,47.5394468 13.2663404,47.749234 13.3599574,47.9594468 C13.2531489,48.3054043 11.1799574,49.8905106 10.9216596,49.7577447 C10.6918723,49.5117872 10.4591064,49.2662553 10.2259149,49.0202979 C10.1063404,48.849234 9.84804255,48.5611489 9.91570213,48.3249787 C9.9833617,48.0790213 12.0957021,46.9015745 12.4548511,46.6590213 C12.7488936,46.7888085 12.926766,47.0607234 13.0722979,47.3317872 Z M20.2527234,48.7939149 C20.1429362,48.8164681 20.0293191,48.8390213 19.9131489,48.862 C19.8454894,48.874766 19.7774043,48.8845532 19.7093191,48.8943404 C19.5863404,48.9202979 19.4633617,48.9398723 19.3374043,48.9654043 C18.9429362,48.9654043 18.2829362,46.8373191 18.4735745,46.5526383 C18.6965532,46.2262553 19.3888936,46.2449787 19.7446383,46.148383 C20.427617,46.3845532 20.8544255,48.2730638 20.2527234,48.7939149 Z M8.41782979,47.9790213 C8.18506383,48.1730638 7.94931915,48.3734894 7.71612766,48.5705106 C7.50591489,48.7164681 7.20804255,48.9526383 6.93017021,48.9364681 C6.50634043,48.9041277 5.49102128,46.7981702 5.74634043,46.4424255 C6.21868085,46.2322128 6.69102128,46.022 7.16293617,45.8117872 C7.41229787,45.9705106 8.48591489,47.7428511 8.41782979,47.9790213 Z M22.5846383,45.834766 C22.7497447,46.0509362 22.6914468,46.4654043 22.6948511,46.7594468 C22.707617,47.5649787 22.6850638,48.6713617 21.646766,48.548383 C21.2357021,48.4994468 20.8446383,46.242 21.0544255,45.9475319 C21.2037872,45.7339149 21.7697447,45.7279574 22.0152766,45.6760426 C22.2127234,45.6858298 22.4616596,45.6760426 22.5846383,45.834766 Z M16.7208085,45.2713617 C16.8174043,45.4560426 17.0344255,45.7828511 16.9374043,46.0288085 C16.8471915,46.2517872 14.7025106,47.3288085 14.3531489,47.4709362 C14.3531489,47.454766 13.6837872,46.5394468 13.6157021,46.3811489 C13.3599574,45.7794468 15.4884681,44.7798723 15.9480426,44.5215745 C16.3259149,44.6215745 16.5493191,44.942 16.7208085,45.2713617 Z M11.9791064,45.8764681 C11.9144255,45.8764681 9.81229787,47.3871064 9.33357447,47.5394468 C9.04548936,47.0505106 8.75442553,46.5624255 8.4633617,46.0705106 C7.98165957,45.1262553 9.97357447,44.589234 10.6237872,44.182 C11.1705957,44.3466809 11.7399574,45.3849787 11.9791064,45.8764681 Z M4.07740426,46.015617 C3.88676596,46.0577447 3.6927234,46.1032766 3.50165957,46.148383 C2.63485106,46.148383 2.8033617,43.7258298 3.18165957,43.2794468 C3.34974468,43.0785957 3.63442553,43.0628511 3.87357447,42.994766 C4.46889362,43.1530638 4.66974468,45.6177447 4.07740426,46.015617 Z M19.9488936,45.3011489 C19.8259149,45.3462553 19.6995319,45.3913617 19.5735745,45.4364681 C19.1335745,45.5500851 18.694,45.6628511 18.2535745,45.7764681 C17.8914468,45.7764681 16.9986809,44.0488085 17.1799574,43.7351915 C17.4450638,43.2726383 18.3799574,42.9134894 18.8297447,42.6905106 C19.3795319,43.1432766 20.0293191,44.5505106 19.9488936,45.3011489 Z M6.81697872,44.9807234 C6.60378723,45.3300851 5.97953191,45.3590213 5.63995745,45.5045532 C5.09655319,45.5045532 4.8927234,43.2760426 5.15442553,42.862 C5.3127234,42.6066809 5.79144681,42.5773191 6.04421277,42.4543404 C6.31229787,42.629234 6.99485106,44.6832766 6.81697872,44.9807234 Z M15.5922979,43.748383 C15.4365532,44.0037021 13.2178298,45.2943404 12.9816596,45.2266809 C12.6548511,45.1326383 12.4093191,44.6122128 12.247617,44.3530638 C12.1118723,44.0943404 11.9791064,43.8326383 11.8433617,43.5734894 C11.8433617,43.5254043 13.8063404,41.888383 14.0493191,41.7071064 C14.4535745,41.8139149 15.8182553,43.3700851 15.5922979,43.748383 Z M22.0833617,44.9968936 C21.960383,45.0194468 21.8344255,45.042 21.7110213,45.0645532 C21.5982553,45.074766 21.4850638,45.0875319 21.3718723,45.0968936 C21.2037872,45.1326383 21.0322979,45.1649787 20.8637872,45.2002979 C20.7671915,44.9934894 20.6697447,44.7866809 20.5731489,44.5794468 C20.4531489,44.2045532 19.680383,42.4381702 19.8131489,42.1858298 C19.9905957,41.8334894 20.7280426,41.5713617 21.0680426,41.4037021 C21.8408085,41.6330638 23.027617,44.6313617 22.0833617,44.9968936 Z M10.3522979,43.4377447 C10.2225106,43.5317872 10.0935745,43.6288085 9.96421277,43.7224255 C9.64378723,43.9066809 8.30506383,44.6411489 7.96208511,44.502 C7.66804255,44.3824255 7.59655319,43.8709362 7.49612766,43.6058298 C6.74591489,41.6751915 7.37017021,42.0534894 8.79314894,41.1641277 C9.46931915,41.574766 10.0548511,42.749234 10.3522979,43.4377447 Z M4.00974468,42.1828511 C3.84123404,42.1926383 3.67017021,42.2054043 3.50165957,42.2151915 C3.49229787,42.2054043 3.47910638,42.1926383 3.46931915,42.1828511 C3.46931915,41.5488085 3.91910638,40.8990213 4.31697872,40.4522128 C4.47229787,40.9441277 4.36548936,41.8530638 4.00974468,42.1828511 Z M5.95314894,41.5394468 C5.75910638,41.6526383 5.56208511,41.7624255 5.36804255,41.875617 C4.79229787,41.875617 5.16123404,40.022 5.36804255,39.7764681 L5.36804255,39.7407234 C5.89825532,39.8411489 6.22208511,41.0930638 5.95314894,41.5394468 Z M18.2795319,41.9437021 C18.2701702,42.2249787 16.9986809,42.9722128 16.7208085,43.0143404 C16.4293191,43.0560426 15.0127234,41.1641277 15.0450638,40.8696596 C15.0808085,40.5139149 15.8182553,39.7666809 16.1161277,39.5696596 L16.1161277,39.5373191 C16.6561277,39.6990213 18.3025106,41.3871064 18.2795319,41.9437021 Z M13.4250638,40.8309362 C13.441234,41.2513617 11.6263404,42.7228511 11.2352766,42.7037021 C10.9280426,42.6905106 9.70846809,40.7632766 9.79570213,40.5007234 C10.3233617,39.9768936 10.8471915,39.4530638 11.3680426,38.9258298 L11.3680426,38.8934894 C11.7561277,39.0100851 13.4088936,40.4075319 13.4250638,40.8309362 Z M8.25612766,40.5364681 C7.85868085,40.7824255 7.46038298,41.0249787 7.06293617,41.2675319 C6.32208511,41.2675319 7.10804255,39.0517872 7.16293617,38.722 C7.44761702,38.9905106 8.51187234,40.1998723 8.25612766,40.5364681 Z M27.4459149,38.3402979 C27.2033617,38.7994468 26.9578298,39.2590213 26.7148511,39.7211489 C26.540383,40.2262553 26.3625106,40.7309362 26.1880426,41.2317872 L26.1880426,41.2675319 C26.1782553,41.254766 26.1650638,41.2449787 26.1522979,41.2317872 C25.6088936,41.2317872 25.1591064,38.7449787 25.4408085,38.2139149 L25.4408085,38.182 C25.7220851,38.182 25.8093191,39.0164681 26.1101702,39.1198723 C26.4693191,39.2428511 26.9901702,38.0428511 27.1029362,37.8066809 C27.306766,37.8973191 27.4718723,38.0849787 27.4459149,38.3402979 Z M2.85825532,39.469234 C2.06548936,39.469234 1.48676596,38.3079574 2.14676596,37.7743404 C3.01655319,37.829234 3.0327234,38.7062553 2.85825532,39.469234 Z M9.23314894,39.7054043 L9.23314894,39.7407234 L9.16506383,39.7407234 C9.16506383,39.6602979 8.27570213,38.5215745 8.18208511,38.2139149 L8.25017021,38.2139149 C8.31782979,38.2275319 8.38591489,38.2368936 8.45357447,38.2437021 C8.72208511,38.3181702 9.46931915,38.5671064 9.67612766,38.2726383 C9.73442553,38.1075319 9.78931915,37.9428511 9.8446383,37.7743404 L9.8446383,37.7385957 C11.4033617,38.3534894 10.1548511,39.1909362 9.23314894,39.7054043 Z M20.5791064,40.5854043 C20.3595319,40.8828511 19.5829362,41.5198723 19.1948511,41.3905106 C19.014,41.3322128 17.3191064,39.1977447 16.827617,38.7900851 C16.827617,38.4215745 17.4518723,37.8037021 17.7425106,37.6062553 C18.1957021,37.8875319 20.9901702,40.0160426 20.5791064,40.5854043 Z M14.3825106,39.9964681 C14.2757021,40.0641277 14.1620851,40.0837021 14.0425106,40.0288085 C13.8063404,39.9151915 12.0761277,38.3564681 12.0374043,38.182 C11.9693191,37.874766 12.3574043,37.4058298 12.5905957,37.2309362 L12.5905957,37.1985957 C13.8616596,37.5479574 16.5463404,38.5960426 14.3825106,39.9964681 Z M5.97612766,38.722 C5.96634043,38.7351915 5.95314894,38.7449787 5.94378723,38.7577447 C5.03144681,38.7577447 4.04208511,37.5709362 5.40038298,37.0271064 C5.80506383,37.2437021 5.80165957,38.3045532 5.97612766,38.722 Z M11.2318723,37.6062553 C10.9054894,37.6062553 10.1905957,37.1437021 9.97697872,36.8913617 C9.96761702,36.8688085 9.95740426,36.8462553 9.9446383,36.8237021 C10.0446383,36.7590213 10.1484681,36.6879574 10.2488936,36.6194468 C11.2416596,36.6845532 11.8884681,36.5939149 11.2318723,37.6062553 Z M8.554,37.1632766 C8.54421277,37.1760426 8.53144681,37.1854043 8.52123404,37.1985957 C8.44421277,37.1049787 8.36974468,37.0109362 8.29187234,36.9173191 C7.91655319,36.4415745 8.26634043,36.2415745 8.62208511,35.9760426 C9.02931915,36.1960426 8.78038298,36.894766 8.554,37.1632766 Z M16.5557021,36.994766 C16.4650638,37.208383 16.3714468,37.422 16.2808085,37.6385957 C15.7761277,38.3628511 14.9578298,37.3990213 14.4148511,37.1373191 C14.0395319,36.9560426 13.3182553,36.8849787 13.0786809,36.4934894 C12.9718723,36.3185957 13.1242128,36.0637021 13.2344255,35.9437021 C14.3531489,36.0117872 15.6727234,36.4194468 16.5557021,36.994766 Z M19.4054894,35.875617 L19.4054894,35.908383 C19.3727234,36.2151915 19.3374043,36.5194468 19.3050638,36.8237021 C19.3565532,36.8330638 19.4118723,36.8398723 19.466766,36.8462553 C19.9420851,36.635617 20.4208085,36.4224255 20.8961277,36.2151915 C20.9127234,36.3837021 20.9288936,36.5517872 20.9450638,36.7232766 C21.0322979,38.1334894 22.626766,39.3011489 22.8659149,40.9602979 C22.8888936,41.128383 22.9080426,41.3385957 23.0893191,41.3968936 C23.4386809,41.5071064 23.7782553,40.7985957 24.0174043,40.6207234 C24.5578298,41.4198723 25.1008085,42.2122128 25.641234,43.0075319 C25.8288936,43.6449787 25.4374043,44.5764681 25.340383,45.2002979 C24.981234,47.4062553 24.8778298,49.8322128 22.7948511,50.9998723 L22.7948511,51.0322128 L22.7625106,51.0322128 L22.7625106,50.9998723 C22.7591064,50.954766 22.7561277,50.909234 22.7497447,50.8671064 C22.9178298,50.4079574 23.0859149,49.9517872 23.2510213,49.495617 C24.3054894,45.3815745 23.5518723,41.1705106 20.4080426,38.3951915 C19.5182553,37.6126383 18.3442128,37.1339149 17.5425106,36.3837021 C17.9884681,36.3837021 18.7778298,36.0794468 19.1693191,35.875617 L19.4054894,35.875617 Z M53.774,40.1032766 C53.9097447,40.4845532 54.220383,40.9441277 54.1493191,41.3934894 C54.0714468,41.8722128 53.2986809,42.3866809 52.9493191,42.735617 C51.7459149,43.9394468 51.0731489,46.0543404 52.0854894,47.6590213 C52.3897447,48.1407234 52.9037872,48.3249787 53.246766,48.762 C51.9854894,48.762 51.1280426,47.6879574 50.1965532,46.9632766 L50.1965532,46.9309362 C50.2127234,47.0181702 50.2288936,47.1024255 50.2484681,47.1896596 C50.7110213,47.7913617 51.4999574,48.1926383 51.9110213,48.8100851 C51.9369787,48.8654043 51.9591064,48.9202979 51.9854894,48.9751915 C51.6395319,49.6185957 49.3459149,48.0696596 49.0774043,47.9824255 C49.0420851,47.9917872 49.0097447,48.0015745 48.974,48.014766 C48.974,48.2407234 48.9710213,48.4671064 48.967617,48.6934894 C49.1165532,50.0360426 49.6501702,50.7700851 50.5914468,51.6275319 C50.6625106,51.6985957 50.7335745,51.7730638 50.8080426,51.8475319 L50.8080426,51.8798723 C50.6820851,51.8990213 50.5557021,51.9151915 50.4331489,51.9313617 C49.6918723,51.7951915 48.9578298,51.374766 48.4659149,50.7607234 C48.4761277,50.8607234 48.4825106,50.9577447 48.4888936,51.054766 C48.7608085,51.6368936 49.501234,51.9602979 49.947617,52.3679574 C49.986766,52.4100851 50.0220851,52.4517872 50.061234,52.4909362 C49.9705957,52.5228511 49.8799574,52.5585957 49.7893191,52.5913617 C48.6765532,52.5913617 48.2174043,52.1645532 47.4829362,51.4722128 L47.4829362,51.4398723 L47.4505957,51.4398723 C47.4505957,51.9117872 47.1208085,52.3585957 47.1365532,52.9049787 C47.1722979,53.2862553 47.2080426,53.668383 47.2433617,54.0496596 C47.5348511,55.0394468 48.0199574,55.5862553 46.8037872,56.1522128 C44.6365532,56.1522128 45.9208085,54.5577447 45.5259149,53.4581702 C45.4582553,53.2734894 45.2999574,53.2994468 45.1642128,53.3998723 C44.0093191,54.2275319 43.5722979,55.9905106 42.3952766,56.695617 C41.9327234,56.695617 40.3544255,56.255617 40.6459149,55.6024255 C41.1535745,54.4637021 43.0518723,54.4705106 43.414,53.2024255 C43.2910213,53.2185957 43.1684681,53.234766 43.0454894,53.2543404 C42.0880426,53.6615745 41.1271915,54.0726383 40.1697447,54.4798723 C39.5816596,54.8037021 39.041234,55.402 38.3752766,55.5637021 C37.841234,55.6930638 36.3893191,55.3305106 36.2727234,54.7517872 C36.0429362,53.5905106 37.8897447,53.1245532 38.6761277,52.9854043 C40.3510213,52.6849787 42.3144255,52.6913617 43.7731489,51.9249787 C46.7620851,50.3564681 46.3216596,46.6530638 45.1186809,44.0590213 C44.7046383,43.1628511 43.9735745,42.1505106 43.8765532,41.128383 C43.6114468,38.3760426 47.680383,36.2254043 49.7535745,35.6722128 C51.9659149,35.6722128 53.1820851,38.4407234 53.774,40.1032766 Z M15.4042128,34.789234 C15.2135745,34.9832766 15.0195319,35.1739149 14.8288936,35.3679574 C14.9518723,35.4326383 15.0778298,35.5002979 15.2008085,35.5688085 C15.3493191,35.342 15.546766,35.0768936 15.4042128,34.789234 Z M12.1310213,35.015617 C12.0535745,35.2611489 11.4778298,35.1994468 11.2671915,35.2645532 C11.1318723,35.2773191 10.9961277,35.2875319 10.8599574,35.2968936 L10.520383,35.2968936 L10.520383,35.2645532 C10.514,35.254766 10.5046383,35.242 10.4944255,35.2322128 C10.5757021,34.7985957 10.7884681,34.669234 11.1637872,34.5173191 C11.3999574,34.5402979 12.254,34.6275319 12.1310213,35.015617 Z M24.4250638,34.8249787 C24.4931489,35.1096596 24.5578298,35.3875319 24.6254894,35.6722128 C24.7254894,36.9173191 24.5288936,38.5181702 23.7782553,39.3688085 L23.7782553,39.4011489 L23.7135745,39.4011489 C23.5842128,39.1100851 23.4578298,38.8160426 23.3284681,38.5249787 C22.5591064,36.6228511 21.5042128,35.4679574 23.1701702,33.469234 C23.7846383,34.0837021 23.1054894,35.1190213 24.4250638,34.8249787 Z M15.4042128,31.4543404 C16.481234,31.4607234 17.5552766,31.4607234 18.6322979,31.4641277 C18.8718723,31.5675319 18.8199574,32.0398723 18.8327234,32.2790213 C18.926766,34.3360426 19.4246383,33.8998723 17.506766,34.8568936 L17.474,34.8568936 L17.474,34.8249787 L17.4386809,34.8249787 C17.7008085,34.4394468 17.9595319,34.054766 18.2182553,33.6700851 L18.1859149,33.6700851 L18.1859149,33.6377447 C17.8105957,33.6377447 17.1284681,34.6496596 16.6591064,34.789234 C16.6591064,34.3488085 17.141234,33.8998723 16.9080426,33.4271064 C16.8565532,33.3177447 16.7531489,33.3015745 16.6335745,33.3305106 C15.7922979,33.7930638 14.9548511,34.2590213 14.1169787,34.7211489 L14.1169787,34.7564681 L14.0816596,34.7564681 L14.0816596,34.7211489 C14.0850638,34.6726383 14.087617,34.6173191 14.087617,34.569234 C14.2595319,34.0709362 14.5731489,33.7313617 14.521234,33.1296596 L14.521234,33.062 L14.4888936,33.062 C14.4888936,33.4598723 13.5799574,34.6173191 13.3020851,34.9602979 L13.3020851,34.9926383 L13.2697447,34.9926383 L13.2697447,34.9602979 C13.2310213,34.802 13.1918723,34.6437021 13.1531489,34.488383 C12.9105957,33.4500851 11.6297447,32.9100851 10.4880426,33.1977447 C9.33357447,33.1977447 9.80889362,34.2615745 9.36931915,34.8700851 C9.16506383,35.154766 8.84804255,35.1705106 8.554,35.2968936 C8.48591489,35.3096596 8.41782979,35.3228511 8.35017021,35.3326383 C8.25953191,35.3454043 8.16889362,35.3551915 8.07825532,35.3679574 C6.18974468,35.3679574 8.5246383,32.6317872 8.86123404,32.1790213 L8.82548936,32.1790213 C8.82548936,32.0207234 8.2952766,32.1790213 8.234,32.214766 C7.40889362,32.6449787 6.66846809,33.4922128 6.4352766,34.3879574 C6.33187234,34.7858298 6.34804255,35.2807234 6.10548936,35.6105106 C5.88208511,35.914766 4.39782979,36.5228511 4.05144681,36.3160426 C2.93570213,35.6398723 5.99229787,32.8807234 6.17953191,32.314766 L6.17953191,32.2790213 C5.29357447,32.2790213 3.54378723,34.0385957 3.21740426,34.8377447 C3.04548936,35.3807234 2.87102128,35.9245532 2.69655319,36.4675319 C2.46038298,36.768383 1.78761702,36.9300851 1.45782979,36.6879574 C0.933574468,36.2994468 1.37655319,35.5330638 1.62251064,35.1513617 C2.76421277,33.375617 4.27825532,31.7841277 6.19612766,30.8751915 C6.93017021,30.5262553 7.65144681,30.6262553 8.48591489,30.448383 C10.8050638,30.7394468 13.0369787,31.3054043 15.4042128,31.4543404 Z M23.2025106,30.1117872 C23.6229362,31.8909362 22.5557021,33.734766 20.9646383,34.4173191 L20.9646383,34.3845532 C20.9705957,34.2845532 20.9774043,34.1845532 20.9833617,34.0837021 C21.1484681,33.4049787 21.9348511,32.4671064 21.8118723,31.7713617 C21.3718723,32.5509362 20.9318723,33.3339149 20.4918723,34.1096596 L20.4918723,34.1454043 L20.4565532,34.1454043 C20.4080426,33.9871064 20.3595319,33.8254043 20.3080426,33.6666809 C20.3080426,33.1849787 20.3046383,32.6994468 20.301234,32.214766 C20.427617,31.0564681 22.0897447,30.0185957 22.8982553,29.2611489 C23.1442128,29.449234 23.1344255,29.8177447 23.2025106,30.1117872 Z M28.3905957,21.9385957 L28.3582553,21.9713617 C28.3582553,22.3334894 26.9833617,24.2126383 26.8088936,24.8917872 C26.0582553,27.7837021 28.0246383,29.8373191 25.3727234,32.1790213 L25.3727234,32.214766 L25.3050638,32.214766 L25.3050638,32.1790213 C25.3242128,32.0526383 25.3437872,31.9232766 25.3629362,31.7968936 C25.7250638,30.755617 25.7220851,29.4781702 25.6446383,28.2781702 C25.6348511,28.2909362 25.6216596,28.3041277 25.6118723,28.3139149 C25.4829362,28.3139149 25.4829362,28.6790213 25.4795319,28.789234 C25.4374043,30.1607234 25.340383,31.6773191 24.4574043,32.622 L24.4250638,32.622 L24.4250638,32.6543404 L24.3893191,32.6543404 C24.3927234,32.2275319 24.3927234,31.8002979 24.3961277,31.3700851 C24.2535745,30.3709362 23.8914468,29.2517872 24.1016596,28.1811489 C24.1114468,28.1360426 24.1242128,28.0905106 24.134,28.0454043 C24.1535745,27.9871064 24.1697447,27.929234 24.1888936,27.8709362 C24.5901702,26.7517872 25.8548511,25.9105106 26.4531489,24.882 C26.8731489,24.1513617 26.7697447,23.3296596 27.0544255,22.5211489 C27.0774043,22.4722128 27.0969787,22.4271064 27.1191064,22.3815745 C27.4978298,22.2232766 27.8761277,22.0649787 28.2544255,21.9032766 C28.3033617,21.9164681 28.3450638,21.9258298 28.3905957,21.9385957 Z M25.786766,22.1360426 C26.5693191,22.9773191 25.3922979,25.8909362 24.5220851,25.8909362 C24.3314468,25.8909362 24.1825106,25.5713617 24.1080426,25.4385957 C23.4514468,24.2964681 23.1701702,22.5951915 24.4931489,21.7351915 L24.4931489,21.6994468 C24.9195319,21.754766 25.4888936,21.815617 25.786766,22.1360426 Z M27.4071915,21.3632766 L27.067617,21.3632766 C27.067617,20.6449787 27.8305957,20.1305106 28.4263404,19.9722128 C28.6522979,20.6062553 27.8501702,21.1271064 27.4071915,21.3632766 Z M23.374,20.3117872 L23.3382553,20.3117872 L23.3382553,20.3441277 C22.6948511,20.3441277 22.2744255,19.102 22.3548511,18.5815745 C23.1310213,19.0666809 23.4063404,19.2768936 23.374,20.3117872 Z M28.7301702,18.4811489 L28.7301702,18.4454043 C28.7237872,18.4002979 28.7105957,18.354766 28.7042128,18.3096596 C28.7527234,17.4981702 29.0114468,17.5015745 29.6454894,17.2262553 C29.8782553,17.7666809 29.1574043,18.3522128 28.7301702,18.4811489 Z M22.8629362,17.2262553 C22.3650638,17.2262553 22.2161277,16.2011489 22.3548511,15.8679574 C23.2446383,16.2849787 23.286766,16.249234 22.8629362,17.2262553 Z M27.1386809,16.9934894 C27.3488936,18.0249787 26.4659149,20.2730638 25.680383,20.8522128 C24.3084681,20.8522128 24.706766,19.0377447 24.7229362,18.0381702 C24.7288936,17.594766 24.6063404,17.035617 24.7969787,16.6637021 C24.9846383,16.294766 25.6642128,15.8968936 26.0195319,15.7317872 L26.0195319,15.6994468 C26.426766,15.9096596 27.0480426,16.5373191 27.1386809,16.9934894 Z M34.6425106,14.7939149 C35.1471915,14.8913617 35.6514468,14.9913617 36.1561277,15.088383 C36.1693191,15.1011489 36.1786809,15.1109362 36.1918723,15.1241277 C35.5578298,15.4054043 34.9237872,15.6866809 34.2931489,15.9713617 C34.1671915,15.9943404 34.0442128,16.0164681 33.9178298,16.0394468 C33.7271915,16.062 33.5331489,16.0849787 33.3420851,16.1071064 C33.3778298,16.1296596 33.4165532,16.1560426 33.4522979,16.1781702 C34.3382553,16.4045532 35.3701702,15.7258298 36.1918723,15.5960426 L36.1918723,15.6317872 L36.2242128,15.6317872 C36.214,15.6415745 36.201234,15.6543404 36.1918723,15.6671064 C36.1918723,16.3500851 34.6586809,16.9709362 34.1897447,17.1585957 C34.1216596,17.1679574 34.0535745,17.1811489 33.9859149,17.1905106 C33.714,17.2488085 33.4459149,17.3041277 33.174,17.362 C32.9927234,17.3717872 32.8114468,17.3815745 32.6310213,17.394766 C32.4722979,17.4168936 32.3135745,17.4398723 32.1552766,17.4624255 C32.4659149,17.7437021 32.7731489,18.022 33.0833617,18.3032766 C33.8374043,19.2381702 35.1599574,22.2300851 34.0535745,23.3973191 L34.0535745,23.4296596 L34.021234,23.4296596 C34.021234,22.2139149 33.5199574,20.522 32.6986809,19.7007234 L32.6986809,19.6654043 L32.6663404,19.6654043 C32.6663404,20.295617 33.1254894,20.8905106 33.2969787,21.4666809 C33.4748511,22.074766 33.5199574,22.7509362 33.6463404,23.3973191 C33.387617,23.3973191 33.1642128,22.9185957 33.0220851,22.7602979 C31.8348511,21.4181702 31.3271915,20.3602979 31.2042128,18.4454043 L31.1718723,18.4454043 L31.1718723,18.4811489 C31.0944255,18.5815745 31.0135745,18.6849787 30.9357021,18.7854043 C30.5510213,19.5228511 30.2501702,20.5998723 30.3442128,21.528383 C30.4216596,22.3462553 30.7969787,22.9611489 31.0008085,23.7015745 C31.4242128,25.2215745 30.9391064,27.0100851 29.8488936,27.9743404 L29.8488936,28.0066809 L29.8165532,28.0066809 L29.8165532,27.9743404 L29.8165532,27.4990213 C30.0208085,26.1241277 29.7910213,24.7722128 29.5774043,23.4977447 L29.5450638,23.4977447 L29.5450638,23.5330638 C29.5318723,23.7015745 29.5191064,23.8696596 29.5097447,24.0411489 C29.5901702,25.3543404 29.8654894,26.9777447 29.2054894,28.0743404 L29.1731489,28.0743404 L29.1731489,28.1100851 L29.1378298,28.1100851 C28.9437872,27.5632766 28.7429362,27.0168936 28.5454894,26.4671064 C28.1965532,25.5875319 27.9084681,24.4228511 28.1025106,23.3654043 C28.2769787,22.4402979 28.814,21.6960426 29.1829362,20.8717872 C29.3348511,20.3896596 29.486766,19.9045532 29.6386809,19.4190213 C29.8816596,18.7722128 30.327617,18.1581702 30.7322979,17.594766 C31.1978298,17.0645532 31.660383,16.5339149 32.1229362,16.0037021 C32.740383,15.4411489 33.1901702,15.2760426 33.3420851,14.3445532 C33.7757021,14.4930638 34.2093191,14.642 34.6425106,14.7939149 Z M19.1693191,13.2934894 C19.1693191,14.095617 19.8744255,14.3734894 20.314,14.8913617 C20.4791064,15.1951915 20.6408085,15.4960426 20.8059149,15.7968936 C20.9774043,16.388383 21.1450638,16.9773191 21.3169787,17.5658298 C21.3914468,18.2258298 21.320383,18.814766 21.4978298,19.4028511 C21.7697447,20.308383 22.6557021,20.8454043 22.9437872,21.709234 C23.160383,22.3594468 22.581234,22.9739149 22.6042128,23.6658298 C22.7531489,24.3126383 22.9016596,24.9564681 23.0505957,25.6037021 C23.3705957,27.7734894 22.1578298,28.8441277 20.6246383,29.9764681 L20.6246383,30.008383 L20.5922979,30.008383 L20.5922979,29.9764681 C20.6148511,29.8373191 20.6344255,29.6981702 20.6535745,29.5590213 C20.961234,28.8377447 22.0608085,26.8905106 21.8471915,26.1432766 L21.8471915,26.1079574 L21.8118723,26.1079574 C21.8016596,26.1207234 21.7922979,26.1305106 21.7795319,26.1432766 C21.7795319,26.6900851 20.3820851,29.4688085 19.9488936,29.8407234 L19.9488936,29.8726383 C19.9361277,29.8628511 19.9225106,29.8500851 19.9097447,29.8407234 C19.7446383,28.8054043 19.9646383,27.7479574 20.2654894,26.8581702 C20.7152766,25.5028511 22.4552766,23.4168936 21.3391064,21.8709362 L21.2714468,21.8709362 C21.2714468,23.2909362 18.9199574,25.0666809 17.946766,26.0398723 L17.9144255,26.0398723 C17.9501702,25.8585957 17.9854894,25.6777447 18.021234,25.4968936 C18.3799574,24.6751915 18.8165532,23.9475319 19.3084681,23.1939149 C19.5471915,22.828383 19.8582553,22.5241277 19.9808085,22.1071064 L19.9488936,22.1071064 L19.9488936,22.074766 L19.9131489,22.074766 C19.8774043,22.1198723 19.8386809,22.162 19.8029362,22.2071064 C18.7131489,23.2296596 17.6199574,25.2896596 17.2348511,26.6871064 L17.2029362,26.6871064 C17.1705957,26.4054043 17.1378298,26.1207234 17.1054894,25.8394468 C17.1216596,24.8173191 17.5097447,23.6564681 17.9433617,22.8151915 C18.6420851,21.4471064 19.7386809,20.4381702 19.767617,18.7173191 C19.7705957,18.4875319 19.7578298,18.1607234 19.5608085,18.0479574 C19.366766,17.934766 19.1625106,18.254766 19.0718723,18.3841277 C18.0986809,19.7585957 17.0859149,20.9973191 15.4365532,21.5666809 L15.4365532,21.5309362 L15.4042128,21.5309362 C15.4042128,20.8845532 16.7952766,19.7330638 17.2348511,19.1926383 C17.2480426,19.1798723 17.2578298,19.1705106 17.2705957,19.1573191 L17.2348511,19.1573191 L17.2348511,19.1249787 L17.2029362,19.1249787 C17.1671915,19.1573191 17.1314468,19.1926383 17.0995319,19.228383 C16.3552766,19.7037021 15.7633617,20.4313617 15.0646383,20.9879574 L15.0322979,20.9879574 C15.0322979,19.7394468 15.9735745,18.1709362 17.141234,17.714766 C17.907617,17.4139149 18.7582553,17.3785957 19.2693191,16.6509362 C19.2599574,16.6373191 19.246766,16.6245532 19.2369787,16.6151915 C18.0433617,16.6151915 16.7110213,15.7645532 16.2514468,14.6811489 C17.0731489,14.6811489 17.7135745,15.1888085 18.6254894,15.0560426 L18.6254894,14.9522128 C18.5352766,14.9232766 18.4416596,14.8913617 18.3510213,14.8590213 C17.5391064,14.6811489 16.9020851,14.4479574 16.2195319,14.0373191 L16.2195319,13.9368936 L16.2514468,13.9368936 L16.2514468,13.9015745 C17.3842128,13.9015745 18.0757021,13.7237021 18.9654894,13.222 C19.0331489,13.248383 19.101234,13.2705106 19.1693191,13.2934894 Z M27.3263404,13.5296596 C27.0029362,13.8237021 26.6791064,14.1177447 26.3557021,14.409234 L26.3557021,14.4445532 C26.1165532,14.4445532 25.2042128,13.3385957 25.3144255,13.1313617 C25.4697447,12.8373191 25.9744255,12.7500851 26.2557021,12.6462553 C26.5952766,12.688383 27.4263404,13.0568936 27.3263404,13.5296596 Z M54.434,7.29051064 C54.4693191,7.30668085 54.5050638,7.32582979 54.540383,7.342 C55.507617,7.41008511 56.0735745,6.15519149 56.3322979,5.45646809 C56.3552766,5.40114894 56.3774043,5.34625532 56.400383,5.28795745 C56.4425106,5.32668085 56.4842128,5.36242553 56.5229362,5.40114894 C57.2897447,6.582 56.3905957,7.53604255 55.3846383,7.96923404 C55.281234,7.99221277 55.1808085,8.01476596 55.0774043,8.03731915 C54.6829362,8.02455319 54.2846383,8.01476596 53.8905957,8.00157447 L53.8254894,8.00157447 C53.8254894,8.58710638 57.6905957,10.0849787 58.366766,10.1300851 C59.4080426,10.1913617 60.4144255,9.97476596 61.206766,9.50880851 C62.1284681,8.96242553 62.3386809,7.95987234 62.7748511,7.11859574 L62.8105957,7.11859574 C62.8463404,7.41348936 62.8791064,7.70412766 62.9144255,7.99859574 C62.8688936,8.47093617 62.6135745,8.79434043 62.5037872,9.22114894 L62.5391064,9.22114894 C62.5842128,9.17902128 62.6327234,9.13093617 62.6816596,9.08838298 C63.1084681,8.77817021 63.2637872,7.46497872 63.4416596,7.4713617 C63.4608085,7.47774468 63.480383,7.48455319 63.4999574,7.49051064 C63.6420851,7.70753191 63.7846383,7.92412766 63.9237872,8.14114894 C64.321234,9.26965957 63.160383,9.77731915 62.367617,10.0688085 C62.1216596,10.0688085 61.8208085,10.1168936 61.6561277,10.2722128 C61.7820851,10.3402979 61.9054894,10.408383 62.0310213,10.4760426 C64.8616596,11.1939149 68.7071915,9.33093617 70.6510213,11.7598723 C70.9454894,12.129234 71.2361277,12.4943404 71.3557021,12.9534894 L71.320383,12.9534894 C71.320383,12.3071064 68.5808085,11.7437021 67.8952766,11.9024255 C67.7727234,11.9122128 67.6463404,11.9249787 67.5233617,11.9351915 L66.5399574,11.9351915 C66.1910213,11.9122128 65.8382553,11.8896596 65.4888936,11.8666809 L65.4888936,11.9024255 L65.4565532,11.9024255 C65.4663404,11.9479574 65.4791064,11.9896596 65.4888936,12.0385957 C65.8637872,12.0900851 66.2357021,12.1385957 66.6080426,12.1900851 C68.154,12.2909362 69.5578298,12.0773191 70.7220851,12.9407234 C70.8161277,13.0117872 71.1263404,13.1994468 71.0684681,13.3517872 C71.0650638,13.354766 71.0616596,13.3611489 71.0582553,13.3679574 C71.0420851,13.3773191 71.0259149,13.3905106 71.0101702,13.4032766 C70.6701702,13.5037021 69.2697447,12.8500851 68.4710213,13.0215745 L68.066766,13.0215745 C67.9859149,13.0313617 67.9080426,13.0441277 67.827617,13.0539149 C67.7497447,13.0671064 67.6718723,13.0764681 67.5914468,13.089234 C67.2161277,13.1798723 66.8442128,13.2705106 66.4722979,13.3611489 C66.3914468,13.3709362 66.3135745,13.3807234 66.2327234,13.3934894 C66.1454894,13.4066809 66.0518723,13.4160426 65.9646383,13.4258298 C64.0497447,13.4258298 63.0305957,12.3232766 61.4718723,11.714766 C60.941234,11.5079574 60.3982553,11.4854043 59.7931489,11.4173191 C59.4629362,11.3879574 59.1301702,11.3590213 58.800383,11.3334894 C58.7514468,11.3624255 58.6999574,11.3913617 58.6514468,11.4237021 C58.8744255,11.8054043 59.886766,12.115617 60.2620851,12.6530638 C60.4786809,12.9602979 61.1935745,14.0437021 61.0127234,14.4415745 C60.7701702,14.5160426 59.427617,13.2645532 59.201234,13.0249787 C59.0037872,12.8437021 58.8033617,12.6594468 58.6063404,12.4781702 L58.5378298,12.4781702 C58.5284681,12.5011489 58.5157021,12.5232766 58.5025106,12.5462553 C58.5220851,12.5560426 58.5378298,12.5624255 58.5514468,12.5722128 C59.1365532,13.4968936 60.1327234,14.0305106 60.8084681,14.8164681 C60.8216596,14.8394468 60.8314468,14.862 60.8442128,14.8845532 L60.8084681,14.8845532 C60.7991064,14.8973191 60.7863404,14.9041277 60.7761277,14.9139149 C60.187617,14.8394468 59.5991064,14.7130638 59.101234,14.4543404 C58.580383,14.1794468 58.0948511,13.6879574 57.6616596,13.2415745 C57.3220851,12.889234 55.6174043,10.3790213 54.980383,10.909234 C54.8642128,11.0066809 54.9710213,11.1939149 55.0225106,11.2845532 C55.5463404,12.2224255 55.0450638,13.0730638 54.527617,13.8364681 C54.1944255,14.3313617 53.5897447,14.8590213 53.0105957,14.9522128 L53.0105957,14.9202979 L52.9748511,14.9202979 L52.9748511,14.8845532 C53.460383,14.8845532 53.906766,12.7824255 53.8905957,12.3071064 L53.8578298,12.3071064 L53.8578298,12.2743404 L53.8254894,12.2743404 C53.8254894,13.1602979 52.9748511,14.0990213 52.3995319,14.7164681 L52.2633617,14.7164681 C52.3637872,14.5224255 52.4608085,14.328383 52.5578298,14.1309362 C52.7484681,13.7168936 52.9105957,13.2126383 52.9199574,12.7143404 C52.9522979,10.6602979 50.6463404,8.8007234 48.5344255,9.28923404 C47.0433617,9.28923404 45.4386809,10.9258298 44.8633617,12.1675319 C44.1288936,13.7526383 44.5237872,15.5734894 45.3063404,16.9577447 C45.9918723,18.1675319 47.3178298,18.8985957 48.521234,19.3866809 C52.5995319,21.0364681 57.2671915,19.3479574 61.080383,18.3066809 C62.4905957,17.9215745 63.8459149,17.4330638 65.4859149,17.5109362 C67.0999574,17.5888085 68.1637872,18.1998723 69.3701702,19.0730638 C70.5344255,19.9143404 71.1199574,21.3666809 70.9744255,22.8866809 C70.9616596,23.0224255 70.9161277,23.3100851 71.0778298,23.3551915 C71.3914468,23.4398723 73.6522979,21.9190213 74.034,21.6351915 L74.0697447,21.6351915 L74.0697447,21.6671064 C74.0505957,21.7317872 74.034,21.7964681 74.0148511,21.8611489 C73.6395319,22.4722128 72.8663404,23.1517872 72.2714468,23.4977447 C72.2808085,23.5075319 72.2944255,23.5168936 72.3037872,23.5271064 C72.7731489,23.4330638 74.0829362,22.2590213 74.2054894,22.514766 C74.606766,23.374766 70.9225106,25.2896596 70.4731489,25.8722128 C70.4633617,25.8849787 70.4505957,25.8943404 70.4374043,25.9075319 C71.9250638,25.9075319 73.0705957,26.6028511 74.4744255,26.8228511 L74.4744255,26.8551915 C74.2701702,26.9330638 74.066766,27.0100851 73.8625106,27.0879574 C73.5586809,27.1109362 73.2514468,27.1364681 72.947617,27.1590213 C72.3037872,27.1041277 71.6599574,27.0458298 71.0165532,26.9909362 L70.6446383,26.9909362 C70.5991064,27.0041277 70.554,27.0134894 70.5084681,27.0232766 C70.2820851,27.0717872 70.0557021,27.1139149 69.8297447,27.1590213 L69.8297447,27.2624255 L69.8620851,27.2624255 C69.9880426,27.2658298 70.1144255,27.269234 70.2369787,27.269234 C71.2042128,27.1688085 72.4557021,27.382 73.3871915,27.6024255 C73.3871915,27.8224255 72.6918723,27.9905106 72.5433617,28.0743404 C72.3944255,28.1002979 72.2488936,28.1232766 72.100383,28.1454043 C71.7505957,28.168383 71.3982553,28.1909362 71.0488936,28.2105106 C70.9582553,28.2232766 70.867617,28.2326383 70.780383,28.2462553 L69.5254894,28.2462553 L67.7271915,28.2462553 C67.5459149,28.2590213 67.3650638,28.268383 67.1837872,28.2781702 C66.8020851,28.3722128 66.4169787,28.4624255 66.0322979,28.5530638 C65.9382553,28.5824255 65.5761277,28.6985957 65.6927234,28.8602979 C65.7637872,28.8866809 65.8348511,28.9088085 65.9063404,28.934766 C67.4974043,29.0254043 68.7910213,29.3326383 69.6935745,30.6879574 C69.706766,30.6973191 69.7161277,30.7105106 69.7259149,30.7202979 C68.5905957,30.7202979 67.6625106,29.9794468 66.4722979,29.9407234 L66.4722979,29.9764681 C66.5497447,30.0313617 66.6271915,30.0896596 66.7084681,30.1509362 C67.0897447,30.3322128 69.4186809,30.8624255 69.2471915,31.2798723 C69.0208085,31.3088085 68.7978298,31.3377447 68.5744255,31.3641277 C67.294,31.3641277 66.2199574,31.1700851 65.1591064,30.7658298 C62.9722979,29.9339149 61.080383,28.7926383 58.7063404,28.2781702 C58.1888936,28.1649787 57.5259149,27.9615745 56.9791064,28.1454043 C56.4484681,28.1454043 55.966766,28.1326383 55.6208085,28.482 C55.6335745,28.5045532 55.6433617,28.5275319 55.6595319,28.5500851 C56.1416596,28.7215745 56.6233617,28.8960426 57.1084681,29.0705106 C58.8488936,29.7726383 60.3625106,31.3411489 61.1837872,33.0262553 C61.9182553,34.5368936 62.2250638,36.3028511 62.6233617,37.9815745 C62.801234,38.7351915 62.9986809,39.6568936 63.4186809,40.2973191 C63.9688936,41.1249787 65.0327234,41.6751915 66.0935745,41.5326383 C66.8442128,41.429234 67.2127234,40.7402979 67.8629362,40.4522128 C67.8629362,41.3322128 66.8957021,42.1377447 66.200383,42.4866809 C66.3331489,42.4866809 66.4654894,42.4837021 66.5982553,42.4837021 C67.261234,42.3185957 67.7433617,41.6360426 68.166766,41.1317872 C68.2025106,41.1994468 68.2378298,41.2675319 68.2705957,41.3385957 C68.4548511,42.4288085 67.4361277,43.1339149 66.6399574,43.509234 C66.5982553,43.5317872 66.5497447,43.5509362 66.507617,43.5734894 C66.4365532,43.5837021 66.3688936,43.5930638 66.3008085,43.6058298 L65.8608085,43.6058298 C65.446766,43.6058298 65.1718723,43.3407234 64.8097447,43.2696596 C64.767617,43.2794468 64.7191064,43.2888085 64.6735745,43.3015745 L64.641234,43.3015745 C64.7999574,43.4930638 64.9616596,43.6837021 65.1199574,43.8743404 C66.2974043,45.129234 67.5008085,45.6177447 69.3216596,45.6760426 C69.3216596,45.9088085 68.7233617,46.022 68.5744255,46.0802979 C68.5063404,46.0930638 68.4386809,46.1032766 68.3705957,46.1160426 C68.2446383,46.1288085 68.1216596,46.1385957 67.9986809,46.148383 C67.8497447,46.1837021 67.7042128,46.2160426 67.5591064,46.2517872 C67.1059149,46.2160426 66.6535745,46.1837021 66.200383,46.148383 C66.1910213,46.1837021 66.1778298,46.2160426 66.1680426,46.2517872 C66.2229362,46.2777447 66.2782553,46.3066809 66.3297447,46.335617 C67.2093191,46.6007234 68.2480426,46.4168936 69.1859149,46.3875319 L69.1859149,46.4202979 L69.1859149,46.4717872 C68.7684681,47.128383 67.8437872,47.2734894 67.1837872,47.5394468 C66.9118723,47.574766 66.6433617,47.6071064 66.3688936,47.6428511 C66.4169787,47.7232766 66.4620851,47.8011489 66.507617,47.882 C67.4391064,48.9751915 68.8978298,49.7028511 70.4050638,49.609234 L70.4050638,49.6415745 C70.1331489,49.7449787 69.8620851,49.8449787 69.5901702,49.9488085 C69.3995319,49.968383 69.2054894,49.9905106 69.0114468,50.0100851 C69.0080426,50.1428511 69.486766,50.1717872 69.6254894,50.1845532 L69.6254894,50.2202979 L69.6578298,50.2202979 L69.6254894,50.2526383 C69.4799574,50.3564681 69.3314468,50.4564681 69.1859149,50.5564681 C69.0271915,50.5696596 68.8688936,50.5794468 68.7105957,50.5922128 C67.9242128,50.5922128 67.280383,50.3334894 66.5722979,50.2202979 L66.5722979,50.2526383 C66.5820851,50.3402979 66.5918723,50.4275319 66.6016596,50.5113617 C66.8442128,51.1679574 68.6259149,52.0832766 67.9633617,52.6590213 C67.840383,52.6722128 67.714,52.6815745 67.5914468,52.694766 C67.4454894,52.7168936 67.2965532,52.7398723 67.1514468,52.7624255 C66.9118723,52.7624255 66.2518723,52.6134894 66.1322979,52.8305106 C66.5982553,52.8305106 68.4293191,55.0394468 68.3416596,55.5279574 C68.2735745,55.9032766 67.9565532,55.9807234 67.6591064,56.1198723 C67.3357021,56.1198723 67.0382553,56.1649787 66.7795319,56.2879574 C65.8382553,56.2879574 65.666766,54.9585957 65.226766,54.3700851 C64.0880426,52.8500851 63.9688936,54.9164681 63.6127234,55.6768936 C63.4642128,55.9905106 63.2569787,56.1879574 62.9791064,56.3879574 C62.6552766,56.3879574 62.386766,56.268383 62.1637872,56.0811489 C61.2871915,55.3594468 62.7169787,54.2181702 62.8433617,53.4385957 L62.8105957,53.4385957 L62.8105957,53.4062553 L62.7429362,53.4062553 C62.7429362,53.5517872 59.4765532,56.3751915 59.1625106,56.4207234 C58.7616596,56.482 58.4863404,55.9390213 58.1531489,55.8028511 C57.9463404,55.715617 57.4548511,55.6573191 57.380383,55.4049787 C57.1020851,54.4705106 61.5429362,53.9854043 61.3165532,52.5228511 L61.3165532,52.4909362 C60.9608085,52.6654043 60.6050638,52.8368936 60.2527234,53.0117872 C58.9978298,53.5258298 57.4871915,53.7488085 56.387617,54.5543404 C55.8471915,54.949234 55.6301702,55.5475319 55.0774043,55.9160426 C54.9025106,55.8934894 54.7246383,55.8709362 54.5471915,55.8513617 C52.2114468,55.1815745 53.9259149,53.6032766 55.3135745,53.1602979 C57.8331489,52.348383 62.1348511,52.8854043 62.1961277,49.0654043 C62.2157021,47.8207234 61.7497447,46.7594468 60.9608085,45.922 C60.3527234,45.274766 59.4825106,44.6539149 58.6999574,44.3305106 C58.0463404,44.0624255 56.9535745,43.8454043 56.4714468,43.295617 C55.646766,42.3543404 55.5527234,40.6888085 55.0901702,39.5466809 C54.2948511,37.5837021 52.787617,35.3164681 50.8080426,34.2777447 C50.1935745,33.954766 49.514,33.834766 48.8284681,33.6471064 C48.1880426,33.469234 47.2957021,33.2300851 46.5680426,33.4015745 C46.3544255,33.4437021 46.1378298,33.4888085 45.9208085,33.5339149 C45.594,33.6024255 45.267617,33.6700851 44.9374043,33.7377447 C43.200383,33.7377447 40.3157021,35.8207234 38.7957021,36.6488085 C38.4008085,36.7973191 38.0059149,36.9462553 37.6148511,37.0951915 C37.4693191,37.1177447 37.320383,37.1437021 37.1748511,37.1632766 C37.0974043,37.1760426 37.0165532,37.1854043 36.9357021,37.1985957 C36.5995319,37.1632766 36.2599574,37.1309362 35.9199574,37.0951915 C35.9199574,37.2632766 35.6744255,37.3279574 35.7454894,37.5641277 C35.8327234,37.8615745 36.1786809,37.9909362 36.3893191,38.188383 C37.1714468,38.9224255 36.3922979,39.5373191 35.7842128,39.9445532 C35.6710213,39.9675319 35.5578298,39.9896596 35.4446383,40.0126383 C34.8365532,40.0126383 34.0991064,39.8768936 33.5782553,40.0802979 C33.5782553,40.6402979 35.3118723,41.242 35.7165532,41.4037021 L35.7842128,41.4037021 C35.7842128,41.8628511 33.4684681,42.0662553 33.3778298,42.4773191 C33.261234,42.994766 34.3965532,43.0594468 34.7008085,43.1339149 L34.7008085,43.1981702 C34.6195319,43.2437021 34.5391064,43.2888085 34.461234,43.3343404 C34.3935745,43.3471064 34.3254894,43.3568936 34.2578298,43.3700851 C34.1348511,43.3922128 34.0084681,43.4151915 33.8859149,43.4377447 C33.8178298,43.4505106 33.7497447,43.4573191 33.6816596,43.4700851 C33.3420851,43.4700851 32.9799574,43.4313617 32.7310213,43.6058298 C32.0905957,43.6058298 34.4033617,43.6930638 34.494,43.7062553 L34.5650638,43.7062553 L34.5650638,43.742 C34.2995319,43.8841277 34.0374043,44.0232766 33.7757021,44.1658298 C33.0544255,44.3985957 32.3331489,44.628383 31.6118723,44.8611489 C31.6118723,45.6790213 33.9629362,45.614766 34.5974043,45.6760426 L34.5974043,45.7407234 C34.4161277,45.7990213 34.2348511,45.8568936 34.0535745,45.9122128 C33.9408085,45.934766 33.8305957,45.9577447 33.714,45.9798723 C33.5910213,45.9930638 33.4654894,46.0024255 33.3420851,46.015617 C33.174,46.0381702 33.0029362,46.0577447 32.8344255,46.0802979 C32.6761277,46.0930638 32.5174043,46.1032766 32.3591064,46.1160426 C32.2135745,46.1288085 32.0650638,46.1385957 31.9191064,46.148383 L31.4437872,46.148383 C31.4437872,46.374766 33.3199574,46.2973191 33.7497447,46.2871064 C33.7497447,46.5330638 32.727617,46.7628511 32.5301702,46.8373191 C32.1522979,46.9726383 29.9884681,47.4645532 30.140383,47.9628511 C30.3408085,48.6258298 32.1974043,48.6581702 32.3914468,49.3373191 C32.2233617,49.3598723 32.0548511,49.3828511 31.8837872,49.4049787 C31.7931489,49.4151915 31.7025106,49.4279574 31.6118723,49.4373191 C31.1008085,49.4373191 30.3957021,49.2951915 29.9527234,49.4730638 L29.9174043,49.4730638 L29.9174043,49.5058298 L29.9527234,49.5411489 C30.1791064,49.5411489 31.980383,49.7905106 32.1905957,49.8807234 C32.200383,49.8905106 32.2101702,49.8998723 32.2233617,49.9130638 C31.7446383,50.1458298 31.2659149,50.3785957 30.7871915,50.6117872 C27.086766,52.3160426 31.2850638,55.1722128 30.246766,56.249234 C30.0625106,56.4432766 28.7527234,55.6930638 27.9829362,56.0517872 C27.1259149,56.0517872 27.2748511,54.1437021 27.1386809,53.542 C25.7059149,53.542 25.5280426,58.4032766 23.2250638,56.494766 C22.487617,55.8871064 25.5442128,53.655617 25.5442128,52.5585957 L25.5084681,52.5585957 L25.5084681,52.5228511 L25.4761277,52.5228511 C25.4761277,52.9632766 21.8761277,55.9194468 21.3620851,56.0939149 C21.0161277,56.2075319 20.3208085,56.0811489 20.1361277,55.7768936 C19.7093191,55.0943404 23.1863404,53.894766 23.5097447,52.9339149 L23.5097447,52.8628511 C23.2025106,53.0343404 22.8952766,53.2024255 22.5914468,53.3709362 C21.6629362,53.8232766 20.7348511,54.2764681 19.8063404,54.7258298 C19.1591064,55.1364681 18.6386809,55.6637021 17.946766,55.9841277 C17.0829362,55.9841277 15.4948511,55.5245532 16.6395319,54.6062553 C17.4063404,53.994766 18.4152766,53.8394468 19.3471915,53.5517872 C21.3135745,52.9471064 24.140383,52.0798723 25.3501702,50.2658298 C27.2293191,47.4513617 26.6182553,43.3471064 27.7399574,40.1385957 C27.9991064,39.394766 28.4778298,38.8288085 29.1182553,38.3339149 C29.4191064,38.0977447 29.8361277,37.8875319 30.0208085,37.5385957 L29.9850638,37.5385957 C29.8037872,37.5479574 29.6225106,37.5573191 29.441234,37.5709362 C27.1518723,37.5709362 27.0833617,35.0832766 27.7663404,33.4402979 C27.9829362,32.9164681 28.3710213,32.5441277 28.6974043,32.0785957 C28.707617,32.0560426 28.720383,32.0334894 28.7301702,32.0105106 C28.720383,31.9977447 28.707617,31.988383 28.6974043,31.9751915 L28.6297447,31.9751915 L28.5616596,31.9751915 C28.3225106,32.088383 28.0829362,32.2015745 27.8437872,32.3113617 C26.6927234,32.9973191 26.214,33.9160426 25.9161277,35.1968936 L25.8837872,35.1968936 C25.8837872,34.6275319 25.6931489,34.4173191 25.8837872,33.734766 C26.2493191,32.4441277 27.4557021,31.5709362 27.8825106,30.3126383 C28.0637872,29.7790213 28.0186809,29.1160426 28.0186809,28.482 L28.0510213,28.482 L28.0510213,28.4496596 L28.0863404,28.4496596 C28.2254894,28.9543404 28.367617,29.462 28.5101702,29.9696596 C28.5522979,30.0990213 28.6459149,30.4811489 28.8531489,30.4615745 C29.0957021,30.435617 31.7863404,26.9649787 32.0420851,26.5415745 C32.2425106,26.0824255 32.4429362,25.6228511 32.6471915,25.1666809 C32.7080426,25.0858298 32.7697447,25.002 32.8344255,24.9241277 C32.8574043,24.9790213 32.8799574,25.0377447 32.9020851,25.0926383 C33.2582553,25.8037021 33.5459149,26.4509362 33.7399574,27.2530638 C33.827617,27.6573191 33.9148511,28.0615745 34.0020851,28.4624255 C34.2025106,28.6632766 34.4774043,28.1615745 34.5322979,28.042 C35.4025106,26.0271064 38.7565532,25.2637021 40.9042128,25.2317872 C44.0774043,25.1828511 47.0820851,25.9266809 50.0637872,26.3534894 C53.5084681,26.848383 56.9952766,27.3368936 60.6050638,27.5049787 C62.286766,27.5828511 64.2693191,27.8675319 65.8901702,27.4113617 C68.4871915,26.6837021 69.5186809,24.0249787 68.3514468,21.4730638 C67.7433617,20.1441277 65.961234,18.9985957 64.4054894,19.2607234 C64.2242128,19.2705106 64.0433617,19.2832766 63.8620851,19.2934894 C63.7846383,19.3062553 63.7033617,19.315617 63.6254894,19.3288085 C61.6752766,19.3288085 60.1620851,20.7258298 59.101234,22.1943404 C58.8910213,22.5402979 58.680383,22.8832766 58.4701702,23.2262553 L58.4701702,23.262 L58.4344255,23.262 C58.4344255,23.0577447 58.2437872,22.8509362 58.2437872,22.5824255 C58.2437872,21.9096596 58.6837872,21.6866809 58.9097447,21.1590213 C56.9629362,21.1590213 56.6527234,22.0943404 55.1744255,22.9479574 C54.5922979,23.2841277 53.9714468,23.4168936 53.3501702,23.669234 L53.2791064,23.669234 C53.2791064,23.6075319 55.3199574,22.0198723 55.5850638,21.7705106 C55.5982553,21.7577447 55.6080426,21.7479574 55.6208085,21.7351915 L55.5850638,21.7351915 C55.4880426,21.7445532 55.3910213,21.7513617 55.2910213,21.7607234 C54.3948511,22.162 53.8254894,23.1322128 52.8391064,23.3973191 C52.8391064,23.0968936 54.1135745,22.0326383 54.2982553,21.5994468 L54.2625106,21.5994468 L54.2625106,21.5666809 C53.8254894,21.7122128 53.3825106,21.8581702 52.9425106,22.0071064 C52.7165532,22.0522128 52.4901702,22.0973191 52.2633617,22.1428511 C52.127617,22.1522128 51.9918723,22.1654043 51.8557021,22.174766 C50.7497447,22.174766 49.6888936,22.1071064 48.6701702,22.0390213 L48.6701702,21.9713617 C49.3459149,21.8351915 50.0254894,21.6994468 50.7042128,21.5666809 L50.7042128,21.5309362 L50.0254894,21.5309362 C49.9348511,21.5445532 49.8442128,21.5539149 49.7535745,21.5666809 C49.6888936,21.5764681 49.6178298,21.5896596 49.5531489,21.5994468 C49.3718723,21.6122128 49.1910213,21.6215745 49.0097447,21.6351915 C48.9420851,21.6445532 48.8735745,21.6539149 48.8059149,21.6671064 C48.5565532,21.6994468 48.307617,21.7351915 48.0586809,21.7705106 C48.1008085,21.709234 48.1429362,21.6479574 48.1846383,21.5862553 C48.2948511,21.4858298 49.0322979,21.2079574 48.9548511,21.0075319 C48.8833617,20.9785957 48.8088936,20.9488085 48.7378298,20.9198723 C46.9135745,20.7743404 44.2357021,19.1054043 43.3561277,17.4526383 C41.1535745,13.3288085 44.3616596,7.97944681 48.974,7.83348936 C51.6748511,7.74965957 54.9416596,7.32880851 55.9927234,4.74795745 C56.4263404,5.74114894 55.2293191,6.97646809 54.434,7.29051064 Z M28.0510213,4.40838298 L28.0863404,4.40838298 C28.2450638,3.80668085 28.4033617,3.20838298 28.5616596,2.61008511 L28.594,2.61008511 L28.594,2.57476596 L28.6297447,2.57476596 C28.7237872,2.83987234 28.814,3.102 28.9080426,3.36710638 C29.0633617,4.11093617 28.8531489,4.9326383 29.2378298,5.55987234 C29.4548511,5.55987234 30.146766,4.18838298 30.4927234,3.93306383 L30.4927234,3.9007234 L30.5284681,3.9007234 C30.4250638,4.3726383 30.3246383,4.84838298 30.221234,5.32370213 L30.221234,5.39178723 L30.2565532,5.39178723 C30.460383,4.94880851 30.6642128,4.50838298 30.8680426,4.06880851 L30.900383,4.06880851 C30.9131489,4.05902128 30.9229362,4.04625532 30.9357021,4.03306383 C30.9459149,4.04625532 30.9552766,4.05604255 30.9680426,4.06880851 C30.9680426,4.67689362 30.7191064,6.91859574 30.8744255,7.25178723 C30.9101702,7.27731915 30.9459149,7.3032766 30.9782553,7.33221277 C31.1654894,7.342 32.0744255,6.15178723 32.5952766,6.03519149 L32.5952766,6.06753191 L32.6310213,6.06753191 C32.6178298,6.0807234 32.6080426,6.09008511 32.5952766,6.1032766 C32.5952766,6.462 32.1293191,6.85348936 32.0871915,7.29051064 L32.1229362,7.29051064 L32.1229362,7.32285106 L32.1552766,7.32285106 C32.1552766,7.09604255 32.7731489,6.51391489 32.9701702,6.40710638 C32.9701702,7.42285106 32.6825106,8.21859574 32.3591064,9.08838298 L32.3914468,9.08838298 L32.3914468,9.15306383 C32.6761277,9.15306383 33.3131489,8.82668085 33.7237872,8.77178723 C34.374,8.68412766 36.4505957,9.45093617 36.6088936,10.0815745 C36.6637872,10.3109362 36.3599574,10.5343404 36.2335745,10.6930638 C35.2701702,11.8960426 34.6552766,12.1351915 33.3420851,12.7500851 C33.2518723,12.7594468 33.161234,12.7722128 33.0705957,12.7824255 C32.9250638,12.7951915 32.7761277,12.8049787 32.6310213,12.8177447 C32.5174043,12.8275319 32.4042128,12.8373191 32.2910213,12.8500851 C32.0871915,12.908383 31.8837872,12.9637021 31.6795319,13.0215745 L31.7152766,13.0215745 C31.7152766,13.1637021 32.3169787,13.5649787 32.401234,13.7785957 C32.7050638,14.5322128 32.0225106,15.3054043 31.2493191,15.1530638 C30.9263404,15.0917872 30.0174043,14.4024255 29.8654894,14.4577447 C29.8459149,14.4802979 29.8233617,14.4998723 29.8037872,14.5190213 C29.4157021,15.2922128 29.9914468,15.395617 29.0693191,16.0713617 C28.9565532,16.0977447 28.8433617,16.1168936 28.7301702,16.1394468 C27.9152766,16.1394468 27.0029362,15.3926383 27.520383,14.5513617 C27.7986809,14.0990213 28.8399574,13.9237021 28.9208085,13.6526383 C29.1114468,13.0313617 26.7408085,11.8343404 26.1522979,11.9705106 C25.2918723,11.9705106 24.3637872,12.5300851 23.5774043,12.7824255 C23.5774043,13.354766 25.6574043,13.8143404 23.814,14.9202979 C23.7361277,14.9300851 23.6552766,14.9428511 23.5774043,14.9522128 C22.2480426,14.9522128 22.1578298,13.5875319 22.9310213,12.8177447 C22.8820851,12.814766 22.8301702,12.8113617 22.7820851,12.8113617 C22.3518723,12.9343404 21.7854894,13.6458298 21.2714468,13.869234 C20.7182553,13.869234 20.3237872,13.4807234 20.2884681,12.9471064 C20.2429362,12.3394468 21.2357021,11.6794468 21.187617,11.5015745 C21.1195319,11.255617 20.6442128,11.2330638 20.4242128,11.2202979 C18.3829362,11.0905106 18.2701702,10.0977447 17.506766,8.60668085 C17.2122979,8.16668085 16.9182553,7.73008511 16.6233617,7.29051064 C16.9408085,7.29051064 17.2578298,7.01519149 17.6748511,7.02497872 C18.8361277,7.04157447 19.5863404,7.73348936 20.5242128,8.16668085 C20.6961277,8.24795745 20.9705957,8.30582979 21.106766,8.12455319 C21.4008085,7.73008511 20.9480426,6.75689362 20.9646383,6.2713617 L20.9999574,6.2713617 L20.9999574,6.23902128 L21.0322979,6.2713617 C21.507617,6.2713617 21.8178298,7.22880851 22.3322979,7.28710638 C22.8335745,7.33902128 22.7237872,5.34285106 22.7625106,4.94880851 C23.0927234,4.94880851 23.3416596,5.87051064 23.4420851,6.1032766 L23.474,6.1032766 L23.474,6.06753191 C23.4514468,5.60540426 23.4288936,5.14285106 23.4063404,4.68029787 L23.4420851,4.68029787 C23.4514468,4.66710638 23.4646383,4.65731915 23.474,4.64455319 C23.474,4.64795745 24.6029362,5.65987234 24.794,5.5632766 C25.2948511,5.31391489 25.2693191,4.22114894 25.3050638,3.69348936 L25.340383,3.69348936 L25.340383,3.66114894 L25.3727234,3.66114894 C25.4535745,3.93306383 25.5310213,4.20497872 25.6118723,4.47604255 L25.6118723,4.50838298 L25.6446383,4.50838298 C25.6446383,4.2432766 25.7897447,3.75519149 25.8480426,3.45774468 L25.8837872,3.45774468 C25.8935745,3.44753191 25.9033617,3.43476596 25.9161277,3.42540426 C25.9161277,3.78753191 26.5791064,4.39902128 26.8671915,4.54412766 C26.9122979,4.47306383 26.9608085,4.39902128 27.0063404,4.32753191 C27.2646383,3.58370213 27.4101702,2.90795745 28.0186809,2.33859574 C28.2578298,2.7232766 27.8731489,3.83561702 28.0510213,4.40838298 Z M26.7637872,2.47434043 C26.6114468,2.47434043 25.7574043,0.87987234 25.6446383,0.643276596 L25.6118723,0.643276596 L25.6118723,0.676042553 C25.1331489,0.676042553 24.4314468,3.57731915 24.1535745,3.96540426 C23.914,3.96540426 23.3250638,2.67817021 23.2025106,2.47434043 C22.3744255,2.47434043 21.8991064,4.82242553 21.7110213,5.39178723 L21.7110213,5.42412766 C21.7016596,5.41434043 21.6888936,5.40114894 21.6791064,5.39178723 C21.420383,5.09731915 21.1646383,4.8032766 20.9093191,4.50838298 C20.4305957,4.38880851 20.2429362,6.32625532 20.0842128,6.57902128 C20.0748511,6.58838298 20.0616596,6.60114894 20.0488936,6.61093617 C20.0488936,6.362 18.1731489,5.87348936 17.8105957,5.93178723 C17.5518723,5.95774468 17.2901702,5.97731915 17.0310213,6.00285106 C16.3259149,6.00285106 15.2169787,6.50455319 14.9288936,7.15434043 C14.9195319,7.19008511 14.9063404,7.222 14.8965532,7.25476596 C15.8769787,7.25476596 16.7497447,9.89093617 17.2059149,10.5764681 C17.5425106,11.0811489 18.046766,11.482 18.5220851,11.8343404 C18.5220851,12.1028511 17.9918723,12.3909362 17.8105957,12.5105106 C17.6654894,12.5364681 17.5195319,12.5560426 17.3705957,12.5781702 C16.1514468,12.5781702 15.9446383,12.374766 15.0999574,11.7309362 C15.0999574,11.5045532 14.6671915,12.5071064 14.6378298,12.6173191 C14.2884681,13.9951915 14.6799574,15.2888085 15.6374043,16.249234 C15.9446383,16.5177447 16.2514468,16.7862553 16.5557021,17.054766 C16.2646383,17.2717872 15.9701702,17.4854043 15.6727234,17.7015745 C14.0233617,18.8011489 13.7808085,20.3475319 13.9391064,22.3462553 C13.9842128,22.9288085 14.000383,23.5305106 14.1850638,24.0411489 L14.2493191,24.0411489 C14.2884681,24.0117872 14.3242128,23.9794468 14.3629362,23.9505106 C15.187617,22.8577447 15.7863404,22.1296596 17.2348511,21.8028511 C17.2348511,22.3075319 16.5914468,22.8509362 16.394,23.2973191 C15.5595319,25.1798723 15.6957021,27.8190213 17.2029362,29.229234 C17.2608085,29.1577447 17.3225106,29.0866809 17.3842128,29.015617 C17.7331489,28.1909362 18.0888936,27.4534894 18.8297447,26.8551915 L18.8616596,26.8551915 C18.7552766,27.2624255 18.6450638,27.6700851 18.5382553,28.0777447 C18.5127234,28.6598723 18.4833617,29.2454043 18.4578298,29.8271064 C18.4480426,29.8568936 18.4382553,29.8824255 18.4284681,29.9117872 C18.3118723,30.1117872 18.0016596,30.1313617 17.8105957,30.2126383 C17.7425106,30.2254043 17.6748511,30.234766 17.6071915,30.2479574 C17.506766,30.2577447 17.4063404,30.2675319 17.3029362,30.2802979 C16.840383,30.2705106 16.3744255,30.2577447 15.9122979,30.2479574 C15.5629362,30.234766 15.2135745,30.2254043 14.861234,30.2126383 C12.7229362,30.2126383 10.8050638,29.449234 8.72548936,29.2551915 C8.30165957,29.2130638 7.74846809,29.0577447 7.33442553,29.1968936 C7.14038298,29.2062553 6.94974468,29.2160426 6.75910638,29.229234 C4.58208511,29.229234 0.920808511,33.3466809 0.19612766,35.2028511 C-0.0238723404,35.7560426 -0.0655744681,36.4968936 0.105489362,37.0854043 C0.454851064,37.8875319 0.804638298,38.6866809 1.15017021,39.4854043 C1.42548936,39.8254043 2.86761702,40.7402979 2.88080851,40.902 C2.58974468,41.9177447 2.29570213,42.9296596 2.00421277,43.9424255 C1.37357447,47.2445532 2.47017021,51.0905106 4.58506383,53.2734894 C6.58080851,55.3339149 8.93868085,56.5466809 11.8433617,56.8215745 C12.4446383,56.8802979 14.5697447,56.6177447 14.8965532,56.8641277 C14.9161277,57.0254043 14.9382553,57.1871064 14.9578298,57.3454043 C15.3169787,58.5066809 16.9242128,59.1990213 18.0501702,59.3058298 L18.0501702,59.2734894 C18.0535745,59.2279574 18.0565532,59.1828511 18.0595319,59.1373191 C17.9595319,58.6364681 17.726766,58.2351915 17.8786809,57.6790213 L17.9144255,57.6790213 L17.9144255,57.7113617 C17.9501702,57.7598723 17.9820851,57.802 18.0178298,57.8471064 C18.5322979,58.8271064 19.0395319,59.0632766 20.1429362,59.2990213 C20.4080426,59.3543404 20.7348511,59.4837021 21.0127234,59.3573191 C21.320383,59.2185957 20.7893191,57.9994468 21.3391064,57.5105106 C21.4237872,57.6722128 21.5042128,57.8343404 21.5884681,57.9960426 C22.1608085,59.309234 23.7493191,59.7717872 25.2369787,59.4768936 C25.2369787,59.1828511 24.7808085,58.9594468 24.7322979,58.6262553 C24.7033617,58.4096596 24.7097447,58.1479574 24.8454894,57.9926383 L24.894,57.9441277 C25.1854894,57.7079574 25.6701702,57.6951915 25.9969787,57.4462553 C26.1782553,57.1934894 26.3591064,56.9445532 26.540383,56.695617 C26.5595319,56.6862553 26.5757021,56.6726383 26.5952766,56.6598723 C27.2259149,56.6598723 28.054,59.6130638 28.3774043,59.5807234 C28.4454894,59.5581702 28.5135745,59.5385957 28.581234,59.5160426 C29.3378298,59.1632766 29.8459149,58.4615745 30.4020851,57.8534894 C30.7705957,57.4462553 31.2561277,57.1032766 31.4888936,56.6177447 C32.407617,54.6968936 29.9527234,53.4641277 30.6191064,52.2998723 C31.5280426,50.7215745 33.7850638,50.5828511 34.6586809,48.9232766 C34.694,48.7909362 34.7297447,48.6551915 34.7654894,48.5224255 L34.7331489,48.5224255 L34.5293191,48.5224255 C34.1314468,48.5224255 33.6757021,48.5807234 33.3748511,48.3866809 C33.3646383,48.3671064 33.3552766,48.3411489 33.3420851,48.3185957 C34.0054894,48.3185957 36.1105957,46.3262553 36.5731489,45.714766 C36.8063404,45.4045532 36.9195319,45.0551915 37.0391064,44.6926383 C36.994,44.6249787 36.9484681,44.5568936 36.9033617,44.4858298 C36.7901702,44.5215745 36.6769787,44.5568936 36.5637872,44.589234 C36.4378298,44.6122128 36.3148511,44.6343404 36.1918723,44.6573191 C35.806766,44.6475319 35.4220851,44.6343404 35.0369787,44.6249787 L35.0369787,44.589234 L35.0727234,44.589234 C35.121234,44.5505106 35.1697447,44.508383 35.2182553,44.4662553 C36.0365532,43.9939149 37.434,43.4058298 37.7510213,42.3509362 C37.546766,42.3739149 37.3433617,42.3964681 37.1395319,42.4190213 C36.9484681,42.4190213 36.2757021,42.5194468 36.2888936,42.2249787 C36.2952766,42.2054043 36.3020851,42.1828511 36.3080426,42.1637021 C36.547617,41.9917872 36.7833617,41.8207234 37.0229362,41.649234 C37.6501702,41.1900851 38.4463404,40.4075319 38.6271915,39.6568936 C38.7501702,39.1390213 38.5237872,38.7190213 38.4625106,38.2496596 C38.9633617,38.0041277 39.4650638,37.7615745 39.9663404,37.515617 C42.4922979,36.2185957 45.1122979,33.5730638 48.4659149,34.6207234 L48.5344255,34.6207234 C48.5242128,34.6662553 48.5114468,34.7113617 48.4986809,34.7564681 C47.8195319,34.7564681 45.626766,36.228383 45.0505957,36.7364681 C43.8569787,37.7875319 42.2722979,39.1168936 42.1395319,40.7922128 C42.0297447,42.1279574 42.8969787,43.2117872 43.5369787,44.194766 C44.5846383,45.8117872 45.826766,48.6645532 43.9578298,50.2590213 C43.3978298,50.7377447 42.7671915,50.8671064 42.126766,51.1679574 C41.8778298,51.2262553 41.6288936,51.2811489 41.3795319,51.3394468 C41.2991064,51.349234 41.221234,51.3590213 41.140383,51.3717872 C40.9365532,51.3849787 40.7361277,51.3943404 40.5322979,51.4045532 C40.3254894,51.4526383 40.1246383,51.4943404 39.9208085,51.5398723 C39.7952766,51.5530638 39.6718723,51.5628511 39.5488936,51.575617 C39.4684681,51.588383 39.3905957,51.5981702 39.3097447,51.6079574 C38.9088936,51.6079574 38.5271915,51.6432766 38.1905957,51.7790213 C37.7957021,51.9117872 37.3982553,52.0445532 37.000383,52.1773191 C34.9786809,53.008383 33.6174043,55.9871064 35.1310213,57.9309362 C35.8944255,58.9109362 37.1361277,59.2671064 38.3944255,59.3058298 L38.3944255,59.2734894 C38.381234,59.1602979 38.3650638,59.0466809 38.3488936,58.9339149 C37.9480426,57.7011489 38.4463404,57.0254043 39.3097447,56.3237021 L39.3454894,56.3237021 L39.3454894,56.3879574 C39.3548511,56.4015745 39.3680426,56.4109362 39.3778298,56.4237021 C39.2097447,56.4237021 39.2420851,57.1807234 39.261234,57.3360426 C39.4488936,58.7785957 41.3314468,59.3445532 42.6671915,59.0339149 C42.6671915,58.6526383 42.2497447,58.4066809 42.3144255,57.9568936 C42.3693191,57.5722128 43.0357021,57.3649787 43.2816596,57.0675319 C43.5859149,56.6177447 43.8897447,56.1649787 44.1935745,55.7126383 C44.2033617,55.7024255 44.2161277,55.6896596 44.2263404,55.6768936 C44.2391064,55.6896596 44.2484681,55.6994468 44.2616596,55.7126383 C44.2616596,57.7530638 45.0829362,58.8143404 47.1080426,58.975617 C47.5637872,59.0143404 48.1846383,59.0305106 48.5114468,58.7398723 C48.6927234,58.5811489 48.3727234,58.3322128 48.2786809,58.2288085 C47.2433617,57.0900851 48.5050638,56.928383 48.5633617,55.7449787 C48.5991064,54.9522128 48.3174043,54.3734894 48.2301702,53.6777447 L48.2625106,53.6777447 C48.4659149,53.6875319 48.6701702,53.6973191 48.8735745,53.7071064 C49.1748511,53.7360426 49.4786809,53.762 49.7825106,53.7913617 C50.6786809,53.6973191 53.0816596,52.7594468 53.6637872,52.1190213 C53.7671915,52.0058298 53.8548511,51.6696596 53.5863404,51.7113617 C52.3216596,51.7113617 50.9957021,51.2394468 50.6042128,50.0134894 C52.5093191,50.0134894 54.0748511,50.1168936 55.4880426,48.9654043 C55.6433617,48.8360426 55.966766,48.5773191 55.9442128,48.3509362 C55.9216596,48.3122128 55.8957021,48.2730638 55.8731489,48.2343404 C55.4850638,48.1662553 55.0969787,48.0951915 54.7118723,48.0309362 C53.3663404,47.5258298 52.2765532,46.0611489 53.1365532,44.602 C53.3986809,44.1590213 54.081234,43.1726383 54.6991064,43.2339149 C54.9416596,43.2568936 55.4591064,44.3079574 55.8437872,44.5666809 C57.3254894,45.5696596 59.3595319,45.5339149 60.4237872,47.2445532 C61.601234,49.1432766 60.8314468,50.6377447 59.0459149,51.4722128 C58.8552766,51.5300851 58.6608085,51.588383 58.4701702,51.6432766 C58.3216596,51.6530638 58.1761277,51.6662553 58.0271915,51.675617 C57.9042128,51.6985957 57.7778298,51.7241277 57.6552766,51.7437021 C57.4965532,51.7568936 57.3382553,51.7662553 57.1799574,51.7790213 C57.0569787,51.789234 56.9305957,51.802 56.807617,51.8117872 C56.6718723,51.8245532 56.5361277,51.8343404 56.400383,51.8475319 C56.3225106,51.8568936 56.2416596,51.8696596 56.1637872,51.8798723 C55.9280426,51.9151915 55.6884681,51.9475319 55.4522979,51.9832766 C54.8220851,51.9832766 54.106766,52.5845532 53.6442128,52.9564681 C51.3220851,54.8164681 51.3093191,58.4066809 54.6374043,58.9628511 C54.9318723,59.0113617 55.4914468,59.0730638 55.7046383,58.8500851 C55.7565532,58.574766 55.8080426,58.2934894 55.8569787,58.0181702 C55.8697447,58.0088085 55.8795319,57.9960426 55.8927234,57.9828511 C55.8927234,58.562 58.6254894,59.3543404 58.9714468,58.9466809 C59.1395319,58.749234 58.887617,58.0475319 58.987617,57.7437021 C59.0557021,57.5394468 59.2080426,57.3943404 59.3791064,57.2615745 C59.5731489,57.142 59.7671915,57.0190213 59.961234,56.8994468 L59.961234,56.9317872 C59.9774043,57.0224255 59.9905957,57.1130638 60.006766,57.2032766 C60.0518723,57.9377447 60.3561277,58.574766 61.0284681,58.869234 C61.4199574,59.0407234 63.9816596,59.3254043 64.0688936,58.7688085 C64.1335745,58.3713617 63.4901702,58.1509362 63.6744255,57.6109362 C63.9718723,56.7441277 64.4927234,56.0100851 64.7774043,55.1011489 L64.8454894,55.1011489 C64.9522979,55.3432766 65.0616596,55.5828511 65.1718723,55.822 C65.7182553,57.2811489 66.9574043,59.1632766 68.8463404,58.794766 C69.1986809,58.7237021 69.661234,58.6232766 69.9199574,58.3739149 C69.9365532,58.3577447 69.9493191,58.342 69.9620851,58.3258298 C69.9782553,58.3028511 69.9910213,58.2807234 70.0042128,58.2543404 C70.0135745,58.1900851 70.020383,58.128383 70.026766,58.0637021 C69.9263404,57.7530638 69.2246383,57.4394468 69.0663404,56.9607234 C68.8914468,56.4466809 69.1986809,56.0585957 69.2310213,55.5730638 C69.2927234,54.6385957 68.5905957,54.2794468 68.1344255,53.6100851 C68.1216596,53.5871064 68.1118723,53.5649787 68.0991064,53.542 C68.2216596,53.542 69.7357021,52.5977447 69.7288936,52.4488085 C69.7161277,52.2194468 68.8557021,51.8475319 69.0531489,51.5530638 C69.4088936,51.4624255 69.7680426,51.374766 70.1271915,51.2875319 C71.414,50.828383 71.754,48.9751915 71.7961277,47.7105106 L71.760383,47.7105106 C71.7505957,47.7007234 71.741234,47.6943404 71.7310213,47.6845532 C71.3850638,47.8045532 70.5931489,48.3832766 70.2016596,48.5900851 C70.0786809,48.6032766 69.9522979,48.6130638 69.8297447,48.6258298 C69.3216596,48.6258298 68.8752766,48.6194468 68.5420851,48.2858298 C68.820383,48.0790213 69.0986809,47.8688085 69.3799574,47.662 C70.434,46.7594468 71.5727234,45.5888085 71.5501702,44.0815745 C71.5437872,43.9228511 71.5501702,43.6479574 71.3982553,43.5700851 C71.3369787,43.5768936 71.2786809,43.5837021 71.2169787,43.5862553 C71.0101702,43.7802979 70.8029362,43.974766 70.5957021,44.1688085 C70.2629362,44.3113617 69.9263404,44.4505106 69.5901702,44.589234 C69.2697447,44.589234 68.4548511,44.6539149 68.3705957,44.2917872 C68.3318723,44.1232766 68.4646383,43.9615745 68.5518723,43.8517872 C68.907617,43.3730638 69.2765532,42.7585957 69.3344255,42.1475319 C69.4122979,41.348383 68.6782553,38.2368936 67.714,38.4181702 C67.7042128,38.4215745 67.6948511,38.4245532 67.6850638,38.4275319 C67.5008085,38.7479574 67.3161277,39.0645532 67.1322979,39.388383 C66.8731489,39.695617 66.546766,39.795617 66.200383,39.9445532 C65.6927234,39.9445532 65.2561277,39.8990213 64.9097447,39.5662553 C63.7454894,38.4373191 63.7263404,34.9445532 62.9986809,33.3368936 C62.6361277,32.7190213 62.2705957,32.1011489 61.9084681,31.4866809 C61.6110213,31.0632766 61.3101702,30.6360426 61.0127234,30.2126383 C61.3744255,30.2126383 61.740383,30.3964681 62.0310213,30.5551915 C63.6033617,31.4088085 66.4620851,32.7381702 68.3705957,32.7381702 C69.9425106,32.7381702 71.2914468,32.2662553 72.5850638,31.7164681 C72.7374043,31.6517872 73.3842128,31.4837021 73.3229362,31.2377447 C73.2901702,31.1049787 73.0348511,31.0985957 72.9118723,31.0922128 C71.7569787,31.0177447 70.8965532,30.2705106 70.1688936,29.4330638 L70.1688936,29.3973191 L70.2016596,29.3973191 C70.5735745,29.4007234 70.9454894,29.4037021 71.314,29.4037021 C73.6620851,29.1190213 76.2433617,28.168383 76.7152766,25.6002979 C76.9225106,24.4713617 75.4833617,25.6713617 75.0531489,25.8722128 C74.2701702,25.8722128 73.5361277,25.9202979 72.947617,25.5679574 C72.947617,25.454766 73.8786809,24.8624255 74.0310213,24.7462553 C75.4250638,23.669234 76.1459149,21.9224255 75.3697447,20.2505106 C75.1629362,19.8075319 74.9395319,19.0666809 74.4416596,18.8530638 L74.4416596,18.8858298 C74.4191064,18.9985957 74.3931489,19.1122128 74.367617,19.2249787 C74.2799574,19.9305106 73.0961277,21.5960426 72.2586809,21.3985957 C72.2586809,21.3985957 71.1880426,19.1215745 70.9905957,18.8334894 C69.9391064,17.2973191 66.7795319,15.9130638 64.7774043,16.3790213 C64.6544255,16.4015745 64.5284681,16.4241277 64.4054894,16.4466809 C64.3344255,16.4568936 64.2693191,16.4662553 64.1982553,16.4790213 C64.1335745,16.4922128 64.0625106,16.502 63.9978298,16.514766 C63.907617,16.5245532 63.8135745,16.5339149 63.7263404,16.5466809 C63.5544255,16.5794468 63.3863404,16.6151915 63.2152766,16.6509362 C63.1374043,16.6602979 63.0595319,16.6700851 62.9791064,16.6828511 C62.8654894,16.6960426 62.7561277,16.7058298 62.6395319,16.7151915 C62.5714468,16.7279574 62.5037872,16.7381702 62.4357021,16.7509362 C61.3718723,16.7509362 60.2391064,17.3526383 59.2688936,17.6466809 C58.4701702,17.8794468 57.6744255,18.1126383 56.8757021,18.3454043 C56.6620851,18.4002979 56.4454894,18.4585957 56.2318723,18.5139149 C56.1637872,18.5266809 56.0961277,18.5360426 56.0284681,18.5462553 C55.960383,18.5590213 55.8927234,18.568383 55.8242128,18.5815745 C55.5625106,18.6394468 55.3037872,18.694766 55.0450638,18.7496596 C54.9769787,18.7628511 54.9093191,18.7722128 54.841234,18.7854043 C54.6957021,18.8079574 54.5471915,18.8305106 54.3982553,18.8530638 C54.2880426,18.8662553 54.1748511,18.875617 54.0616596,18.8858298 C53.9714468,18.8985957 53.8808085,18.9079574 53.7901702,18.9211489 C51.1250638,18.9211489 48.8318723,18.6688085 47.020383,17.0709362 C44.5786809,14.9168936 45.7816596,10.6671064 48.9774043,10.194766 C52.9425106,9.60923404 52.3344255,15.742 49.6535745,15.1241277 L49.6178298,15.1241277 C49.6080426,15.1334894 49.5952766,15.1437021 49.5850638,15.1564681 L49.5850638,15.2241277 C49.5757021,15.2368936 49.5629362,15.2471064 49.5531489,15.2598723 C49.7374043,15.4117872 49.9216596,15.5637021 50.1093191,15.7126383 C50.9305957,16.1560426 52.0761277,16.4922128 53.1365532,16.2139149 C53.6608085,16.0781702 54.2718723,15.7645532 54.6795319,15.395617 C54.9191064,15.1726383 56.1544255,13.6781702 56.1608085,13.6781702 C56.5391064,13.6781702 57.1020851,14.4802979 57.4254894,14.6709362 C59.3859149,15.829234 61.9148511,16.1139149 64.1982553,15.2598723 C64.1693191,15.2207234 64.1369787,15.1854043 64.107617,15.1496596 C63.2374043,14.5032766 61.9471915,14.3185957 61.520383,13.122 L61.5557021,13.122 L61.5557021,13.089234 C62.0310213,13.348383 62.5037872,13.6071064 62.9791064,13.869234 C63.5450638,14.1534894 64.1531489,14.3768936 64.7901702,14.5224255 C66.4237872,14.9007234 67.8080426,13.9922128 69.3863404,14.1177447 C70.6025106,14.2151915 71.7765532,14.7360426 72.6237872,15.5832766 C72.9246383,15.9066809 73.2254894,16.2271064 73.5263404,16.5466809 L73.5263404,16.514766 C73.4905957,16.062 73.4552766,15.6088085 73.4161277,15.1564681 C73.3033617,12.7173191 72.2357021,10.3760426 69.8297447,9.72242553 C69.2991064,9.57987234 68.5582553,9.43476596 67.9633617,9.5607234 C67.840383,9.57391489 67.714,9.5832766 67.5914468,9.59604255 C67.4684681,9.61902128 67.3420851,9.64157447 67.2161277,9.66455319 C67.0284681,9.68668085 66.8344255,9.70965957 66.6433617,9.73221277 C66.507617,9.75519149 66.3688936,9.77731915 66.2327234,9.80029787 C66.0191064,9.8326383 65.8059149,9.86455319 65.5893191,9.90029787 C65.4208085,9.91348936 65.2527234,9.92285106 65.081234,9.93306383 C64.6837872,9.93306383 64.9488936,9.4832766 65.0165532,9.32497872 C66.1391064,6.61434043 62.934,5.84114894 61.1480426,5.42412766 L61.1480426,5.45987234 L61.1161277,5.45987234 C61.2488936,5.80880851 61.3778298,6.16157447 61.514,6.51093617 C61.8114468,7.92114894 60.6761277,8.57774468 59.6569787,9.05306383 C59.5535745,9.07561702 59.4535745,9.09859574 59.3501702,9.1207234 C59.2820851,9.13093617 59.214,9.14370213 59.1463404,9.15306383 C58.4701702,9.15306383 57.5127234,9.1207234 57.0442128,8.68114894 C57.1799574,8.49689362 57.3127234,8.31221277 57.4480426,8.12795745 C58.7842128,6.45604255 57.3480426,3.422 55.5850638,2.61008511 C55.5850638,4.25944681 54.4497447,5.55348936 53.0429362,6.13561702 C52.4995319,6.29731915 51.9591064,6.4526383 51.4161277,6.61093617 C51.3025106,6.62412766 51.1897447,6.63391489 51.0761277,6.64668085 C50.9178298,6.65604255 50.7595319,6.66965957 50.6042128,6.67902128 C50.5008085,6.69178723 50.3974043,6.70157447 50.2969787,6.71434043 C50.061234,6.72412766 49.8246383,6.73391489 49.5850638,6.74668085 C49.5174043,6.75944681 49.4497447,6.76965957 49.3816596,6.78242553 C49.2233617,6.79221277 49.0646383,6.802 48.9063404,6.81476596 C48.6927234,6.83731915 48.4795319,6.86029787 48.2625106,6.88285106 C47.5799574,7.10582979 46.8978298,7.32582979 46.2148511,7.54923404 C42.3016596,9.30880851 39.8561277,14.0211489 42.3144255,18.0837021 C42.8837872,19.0215745 43.6922979,19.7330638 44.6008085,20.3475319 C44.9633617,20.5930638 46.2054894,21.0590213 46.3765532,21.414766 C46.480383,21.6317872 44.6042128,22.8024255 45.047617,23.274766 C45.0769787,23.2841277 45.1088936,23.2973191 45.141234,23.3100851 C45.7625106,23.2002979 46.3833617,23.0934894 47.0042128,22.9866809 C47.7195319,22.8866809 49.5046383,23.135617 50.161234,23.362 L50.161234,23.4296596 C49.9122979,23.6109362 49.6663404,23.7922128 49.414,23.9734894 L49.1778298,23.9734894 L49.1778298,24.0058298 L49.1778298,24.109234 C49.2233617,24.1185957 49.2684681,24.1317872 49.314,24.1445532 C52.5284681,25.1960426 53.9744255,24.7981702 56.6718723,23.1939149 C56.7786809,23.1581702 56.8820851,23.1258298 56.9854894,23.0900851 C57.2637872,23.1905106 57.5905957,25.0760426 58.7420851,25.3641277 C58.9263404,25.3641277 59.0620851,24.3709362 59.1335745,24.1998723 C60.0778298,21.8351915 63.3705957,19.0926383 66.0808085,20.9488085 C67.6105957,21.9968936 67.966766,24.2449787 66.4331489,25.4611489 C65.8220851,25.9462553 65.1591064,26.0526383 64.4378298,26.3117872 C64.1433617,26.3798723 63.8493191,26.4475319 63.5544255,26.5151915 C63.4901702,26.5288085 63.4186809,26.5381702 63.3510213,26.5509362 C62.8791064,26.5739149 62.4029362,26.5964681 61.927617,26.6190213 C57.386766,26.6190213 53.1654894,25.862 49.0029362,25.114766 C46.8037872,24.7202979 44.6625106,24.2126383 42.2595319,24.0994468 C41.5931489,24.1024255 40.9271915,24.1058298 40.260383,24.109234 C40.1697447,24.1185957 40.0795319,24.1317872 39.9893191,24.1415745 C39.8174043,24.1543404 39.6493191,24.1641277 39.481234,24.1768936 C39.4131489,24.1871064 39.3454894,24.1998723 39.274,24.209234 C39.1965532,24.2224255 39.1191064,24.2322128 39.0378298,24.2449787 C38.9505957,24.254766 38.8565532,24.2675319 38.7663404,24.2768936 C38.7016596,24.2905106 38.6305957,24.2998723 38.5659149,24.3126383 C38.4042128,24.3454043 38.2454894,24.3811489 38.0905957,24.4130638 C37.9318723,24.4488085 37.7735745,24.4811489 37.6148511,24.5164681 C37.4693191,24.5394468 37.320383,24.5615745 37.1748511,24.5845532 C36.3859149,24.5845532 35.7386809,25.0858298 35.0050638,25.228383 C35.1114468,24.7624255 35.2182553,24.2998723 35.3280426,23.8339149 C35.7225106,21.1462553 35.8714468,20.3896596 34.4288936,18.1743404 C34.600383,18.0866809 34.7718723,17.9994468 34.9433617,17.9117872 C35.6514468,17.6402979 36.3471915,17.1424255 36.8548511,16.5309362 C37.1037872,16.2271064 38.1974043,14.0922128 37.6731489,13.7849787 C37.4727234,13.668383 36.6927234,14.0143404 36.4961277,14.1049787 C36.114,14.1049787 34.6033617,13.8624255 34.6297447,13.4032766 C34.6327234,13.3807234 34.6425106,13.3577447 34.6488936,13.3385957 C35.0629362,13.0279574 35.4769787,12.7173191 35.8910213,12.4105106 C36.3374043,11.928383 36.7808085,11.4462553 37.2237872,10.9645532 C37.660383,10.6539149 38.0965532,10.3466809 38.5301702,10.0364681 C38.5429362,10.0134894 38.5531489,9.99093617 38.5659149,9.96838298 C38.5301702,9.94242553 38.4982553,9.91646809 38.4659149,9.89391489 C37.5437872,8.94285106 36.0884681,8.0407234 34.8527234,7.6913617 C34.4842128,7.64923404 34.1152766,7.60412766 33.7497447,7.562 C33.8016596,7.17689362 33.8565532,6.79221277 33.9084681,6.40710638 C33.9310213,6.03859574 34.0054894,5.24625532 33.6620851,5.07178723 C33.261234,4.86157447 32.3135745,5.66668085 32.1165532,5.35902128 C31.7735745,4.83519149 32.4395319,2.762 31.4501702,2.37093617 C31.0816596,2.22497872 30.2757021,2.99519149 29.9850638,3.18582979 C29.926766,3.10497872 29.8684681,3.0207234 29.8071915,2.93987234 C29.5935745,2.24795745 29.2250638,0.423702128 28.6974043,-0.000127659574 C28.1025106,0.818595745 27.3229362,1.61093617 26.7637872,2.47434043 Z M68.3386809,49.8807234 C68.3935745,49.8905106 68.4514468,49.9032766 68.5063404,49.9130638 C68.4514468,49.8998723 68.3935745,49.8905106 68.3386809,49.8807234 Z M21.9152766,31.7713617 L21.9829362,31.7713617 L21.9829362,31.6709362 C21.9735745,31.6258298 21.960383,31.5807234 21.947617,31.5351915 C21.9378298,31.6130638 21.9246383,31.6934894 21.9152766,31.7713617 Z M45.7335745,30.8658298 C45.1965532,31.0564681 44.6625106,31.2445532 44.1254894,31.4317872 L43.9220851,31.4317872 L43.9220851,31.3994468 L43.8897447,31.3994468 C43.8897447,30.782 45.1735745,30.222 45.041234,29.2968936 C45.041234,29.1900851 44.6982553,29.5075319 44.6531489,29.5590213 C43.7535745,30.5777447 42.5505957,31.7066809 41.347617,32.1790213 L41.347617,32.1432766 C41.3569787,32.075617 41.366766,32.0075319 41.3795319,31.9364681 C41.5735745,31.4739149 42.4795319,30.4322128 42.0914468,29.9407234 C42.0684681,29.9313617 42.0463404,29.9177447 42.0233617,29.9049787 C41.9910213,29.9441277 41.9586809,29.9828511 41.9263404,30.0185957 C41.1050638,30.7879574 40.4774043,31.7713617 39.626766,32.5994468 C38.8957021,33.3045532 37.0425106,34.6207234 36.6122979,35.4326383 C36.6029362,35.5037021 36.5927234,35.5717872 36.5833617,35.6428511 C36.8322979,36.4160426 39.2480426,34.5951915 39.6105957,34.3394468 C41.9910213,32.6543404 46.5225106,31.7326383 49.7148511,32.402 C51.1863404,32.709234 52.2633617,33.2202979 53.5863404,33.7058298 L53.5863404,33.6700851 C53.5833617,33.6313617 53.5799574,33.5922128 53.5765532,33.5500851 C53.3952766,33.149234 52.7195319,32.8062553 52.3637872,32.615617 C51.8688936,32.3632766 51.3710213,32.1139149 50.8761277,31.8654043 C50.5233617,31.742 50.1705957,31.6130638 49.8148511,31.4866809 C49.7791064,31.4190213 49.7437872,31.3509362 49.7080426,31.2798723 C49.7765532,30.7751915 51.0863404,30.1768936 50.7820851,29.6202979 C50.7110213,29.4909362 50.5297447,29.6466809 50.4586809,29.7015745 C49.5369787,30.3709362 48.5795319,30.6943404 47.5833617,31.195617 C46.461234,31.195617 47.8808085,29.7079574 47.9229362,29.0611489 L47.8905957,29.0611489 C47.8322979,29.0479574 47.7774043,29.0381702 47.7195319,29.0254043 C47.0527234,29.6526383 46.5386809,30.4228511 45.7335745,30.8658298 Z M17.3382553,19.0215745 L17.3705957,19.0215745 L17.3382553,19.0215745 Z M58.4344255,12.374766 C58.4574043,12.4105106 58.4799574,12.4428511 58.5025106,12.4781702 C58.4799574,12.4428511 58.4574043,12.4105106 58.4344255,12.374766 Z M34.4288936,9.93306383 C33.8242128,9.93306383 31.8416596,11.2879574 32.6633617,11.8539149 C32.7859149,11.9377447 32.9054894,11.8896596 33.0059149,11.7990213 C33.3842128,11.4237021 33.7595319,11.0454043 34.1382553,10.6700851 C34.6195319,10.3760426 35.166766,10.3402979 35.7165532,10.1722128 C35.706766,10.1364681 35.6935745,10.1041277 35.6837872,10.0688085 C35.6837872,9.91646809 34.8561277,9.84838298 34.7008085,9.8326383 C34.6101702,9.86455319 34.5195319,9.90029787 34.4288936,9.93306383 Z M30.9910213,10.0781702 C30.9842128,10.0849787 30.9229362,10.175617 30.9131489,10.1815745 C30.6318723,10.4049787 30.2629362,10.8479574 30.2629362,10.8322128 C30.2437872,10.4824255 30.221234,10.175617 30.4961277,9.99434043 C30.5446383,9.95859574 30.8259149,9.97817021 30.9910213,10.0781702 Z M29.2280426,9.8032766 C29.4157021,10.0458298 29.3833617,10.4049787 29.0727234,10.7479574 C29.0633617,10.7415745 29.0825106,10.5279574 29.0727234,10.5245532 C29.0633617,10.3824255 28.9982553,10.2722128 28.9888936,10.1300851 C29.0922979,9.82285106 29.2310213,9.76455319 29.2280426,9.8032766 Z M28.9565532,7.89817021 C28.0991064,8.51944681 28.0408085,10.1654043 28.0118723,10.7641277 C28.0054894,10.8930638 28.0280426,11.8768936 28.0280426,11.8768936 C28.0084681,11.8539149 28.5684681,11.6888085 28.594,11.6888085 C29.1505957,11.6471064 30.460383,11.695617 30.4314468,11.6985957 C31.1786809,11.482 31.9837872,10.3594468 31.9965532,10.3662553 C32.3135745,9.91646809 32.0969787,9.76795745 31.8480426,9.63519149 C31.6314468,9.56710638 31.3952766,9.45093617 30.981234,9.33434043 C30.547617,9.18880851 29.4965532,8.96582979 29.1310213,8.78455319 C29.0505957,8.5032766 28.9820851,8.05348936 28.9437872,7.92753191 C28.946766,7.91774468 28.9531489,7.90795745 28.9565532,7.89817021 Z M24.7582553,10.3143404 C24.7484681,10.3271064 24.7357021,10.3373191 24.7254894,10.3500851 L24.7254894,10.3143404 C24.7127234,10.2917872 24.6999574,10.269234 24.6871915,10.2432766 C24.6871915,9.87774468 24.7484681,9.30880851 24.9974043,9.06285106 L24.9974043,9.02710638 C25.5118723,9.41221277 25.1527234,10.0037021 24.7582553,10.3143404 Z M23.8782553,8.8913617 C23.8105957,9.01731915 23.7425106,9.14029787 23.6748511,9.2632766 L23.6391064,9.2632766 C23.4318723,9.2632766 23.4705957,8.87178723 23.606766,8.78795745 C23.6969787,8.8232766 23.787617,8.85902128 23.8782553,8.8913617 Z M25.8093191,7.4326383 C25.4957021,7.4326383 24.9101702,8.00157447 24.6220851,8.14412766 C24.2148511,8.15731915 23.8105957,8.16668085 23.4029362,8.17944681 C22.7110213,8.17944681 21.9637872,8.542 21.8084681,9.23093617 L21.8442128,9.23093617 C21.9314468,9.2407234 22.0220851,9.25051064 22.1127234,9.25987234 C22.1220851,9.25987234 22.1352766,9.25987234 22.1446383,9.2632766 C22.1578298,9.2632766 22.167617,9.2632766 22.1769787,9.26625532 C22.1871915,9.26625532 22.1965532,9.26965957 22.2093191,9.26965957 C22.2191064,9.27306383 22.2288936,9.27306383 22.2386809,9.27646809 C22.8982553,9.402 23.0437872,10.2594468 23.5454894,10.6475319 C24.0174043,10.909234 24.4897447,11.1717872 24.9620851,11.4334894 C24.9846383,11.4462553 25.007617,11.4564681 25.0297447,11.469234 C25.0297447,11.469234 25.5957021,10.6573191 25.6446383,10.5534894 C25.8965532,10.0105106 26.2199574,7.90497872 25.8093191,7.40029787 L25.8093191,7.4326383 Z M17.4063404,7.45859574 C17.4225106,7.49731915 17.4357021,7.53306383 17.4518723,7.56838298 C17.7105957,7.77859574 17.9693191,7.98540426 18.2280426,8.19561702 C18.7650638,8.84625532 18.8778298,9.70285106 19.6769787,10.1041277 C19.6965532,10.0585957 19.7157021,10.0105106 19.7352766,9.96540426 C19.9616596,8.5513617 18.8974043,7.4032766 17.474,7.35817021 C17.4518723,7.39051064 17.4259149,7.42625532 17.4063404,7.45859574 Z M27.306766,6.33944681 C29.2378298,6.40114894 27.2714468,8.34795745 27.2714468,9.18880851 C27.2616596,9.17561702 27.2484681,9.16625532 27.2391064,9.15306383 C26.9705957,8.61646809 26.7697447,6.71434043 27.306766,6.33944681 Z" id="Fill-1" fill="#295289" mask="url(#mask-2)"></path>
                    </g>
                </g>
            </g>
        </g>
    </g>
</svg>