<svg xmlns="http://www.w3.org/2000/svg" width="50" height="58" viewBox="0 0 50 58">
  <g id="Group_1" data-name="Group 1" transform="translate(0 0)">
    <path id="Shape" d="M37.9-57.941a2.532,2.532,0,0,0-.845.774,2.992,2.992,0,0,1-2.089,1.281,2.837,2.837,0,0,0-.558.146,1.869,1.869,0,0,0-.653.845,4.205,4.205,0,0,1-1.506,1.722,2.251,2.251,0,0,0-.824.924c-.2.416-.329.549-1.011,1.119a5.356,5.356,0,0,0-.766.732c-.878,1.248-.928,1.336-.9,1.689.042.624.329.774,1.656.861a25.318,25.318,0,0,0,3.012-.075l.279-.025-.129.2a2.337,2.337,0,0,0-.212.483c-.079.262-.1.283-.2.283-.162,0-.337.158-.491.449a3.646,3.646,0,0,0-.32,1.548,3.5,3.5,0,0,1-.254,1.352c-.291.4-.32.466-.761,1.872a4.523,4.523,0,0,1-.25.67l-.079.133-.89-.021a17.662,17.662,0,0,0-2.863.137,1.277,1.277,0,0,1-.753-.025,1.343,1.343,0,0,1-.2-.166.583.583,0,0,0-.254-.15l-.129-.025.1-.083a.737.737,0,0,0,.183-.57.828.828,0,0,1,.1-.383,1.621,1.621,0,0,0,.162-1.015,2.43,2.43,0,0,0-.449-1.007,1.145,1.145,0,0,1-.283-.928,1.567,1.567,0,0,1,.079-.624,1.523,1.523,0,0,0-.021-1.1,1.787,1.787,0,0,1-.1-.811,1.1,1.1,0,0,0-.1-.674,1.51,1.51,0,0,1-.129-.524c0-.27-.05-.4-.349-.94a1.548,1.548,0,0,0-.437-.583c-.1-.071-.241-.175-.308-.233l-.121-.108.108-.2a.831.831,0,0,0,0-.8c-.137-.37-.162-.391-.4-.391h-.2l-.025-.208a1.644,1.644,0,0,0-.158-.462c-.221-.408-.474-.52-.682-.3-.121.129-.162.254-.262.757-.05.245-.091.362-.142.387s-.108.05-.146.067a.654.654,0,0,0-.179.245c-.15.3-.2.354-.3.3-.142-.075-.212-.279-.229-.7-.012-.221-.029-.441-.037-.487-.029-.141-.208-.187-.666-.175l-.416.013.013-.42c.021-.541-.038-.695-.279-.77-.15-.046-.233-.037-.612.042a1.43,1.43,0,0,1-.478.058,1.537,1.537,0,0,1-.046-.387l-.013-.35-.146-.083c-.125-.075-.212-.087-.657-.083-.5,0-.512,0-.632.121a1.251,1.251,0,0,0-.233,1.365l.1.241-.142.233a1.925,1.925,0,0,0-.183.387,1.469,1.469,0,0,0,.038.82l.079.171-.27.162a3.469,3.469,0,0,0-1.273,1.365,4.251,4.251,0,0,0-.4,1.718l-.025.474h-.62c-.72,0-.687.021-.82-.445-.05-.162-.1-.337-.116-.4-.054-.187-.183-.154-.483.125-.262.241-.275.25-.362.187-.225-.154-.379-.033-.474.387a.932.932,0,0,0,.067.786.854.854,0,0,1,.125.445,2.108,2.108,0,0,1-.25,1.036c-.229.445-.225.574.017.745l.183.129-.137.133a1.6,1.6,0,0,0-.354.632c0,.083-.075.063-.1-.021A14.852,14.852,0,0,1,11.967-47a7.462,7.462,0,0,0-.133-2.205,4.628,4.628,0,0,0-2.426-3.279,2.089,2.089,0,0,0-1.727.067A2.748,2.748,0,0,0,6.628-51.2a4.371,4.371,0,0,0-.5,2.205A8.6,8.6,0,0,0,6.5-46.6a7.288,7.288,0,0,1,.341,2.259,3.132,3.132,0,0,1-.487,1.61,10.33,10.33,0,0,0-1,2.68,4.591,4.591,0,0,0-.1,1.165,2.817,2.817,0,0,0,.087,1.044,1.755,1.755,0,0,0,.474.778.69.69,0,0,0,.3.1c.2.025.441-.046.441-.125a.761.761,0,0,0-.15-.208,2.2,2.2,0,0,1-.221-2.268,2.662,2.662,0,0,1,.35-.749,2.585,2.585,0,0,1-.1.366,3.938,3.938,0,0,0-.171,1.506c.037.275.1.449.166.449.083,0,.187-.191.279-.52a5.421,5.421,0,0,1,.67-1.444,8.246,8.246,0,0,0,.5-1.007,5.461,5.461,0,0,0-.316-4.024,9.523,9.523,0,0,1-.632-2.222,6.539,6.539,0,0,1,.316-3.674,1.886,1.886,0,0,1,.932-.94,1.045,1.045,0,0,1,.712,0A3.126,3.126,0,0,1,10.656-50.1a13.26,13.26,0,0,1,.857,5.925,30.719,30.719,0,0,1-1.648,8.53,18.478,18.478,0,0,0-1,4.04,7.945,7.945,0,0,0,.15,2.829c.2.949.146,1.261-.3,1.743a2.142,2.142,0,0,1-2.326.5c-.262-.058-.666-.146-.895-.191s-.458-.092-.512-.1c-.183-.037-.412-.3-.649-.761-.275-.52-.387-.649-.537-.612-.2.05-.512.686-.7,1.44A4.211,4.211,0,0,0,3-25.528v.832l.137.375a15.707,15.707,0,0,1,.678,2.139,4.321,4.321,0,0,1,.083,1.19,5.669,5.669,0,0,0,.075,1.91,1.74,1.74,0,0,0,.478.766c.216.2.2.2.94.133a6.744,6.744,0,0,0,4.019-1.7A8.656,8.656,0,0,0,11.7-23.368c.008-.029.116,0,.287.092a2.719,2.719,0,0,0,2.105.1,3.415,3.415,0,0,0,.491-.191c.054-.037.108-.058.116-.046a1.5,1.5,0,0,1-.05.324,9.13,9.13,0,0,0-.1,1.431,5.48,5.48,0,0,1-.283,2.039,10.415,10.415,0,0,1-.749,1.823,5.583,5.583,0,0,1-.533.4,7.5,7.5,0,0,0-1.519,1.423c-.82,1.028-1.219,2.047-1.847,4.714A5.644,5.644,0,0,1,8.7-8.718c-.121.158-.591.682-1.044,1.165A6.44,6.44,0,0,0,6.333-5.909a1.034,1.034,0,0,0-.125.6,1.419,1.419,0,0,0,.678,1.269,5.659,5.659,0,0,0,.67.312,3.819,3.819,0,0,1,.6.287,4.657,4.657,0,0,1,.782,1.223A7.869,7.869,0,0,0,10-.638a2.608,2.608,0,0,0,1.073.574,4.9,4.9,0,0,0,1.6,0c.774-.191,1.165-.558,1.169-1.086,0-.3-.037-.379-.329-.7a.91.91,0,0,1-.337-.645,3.255,3.255,0,0,0-.749-1.248c-.216-.279-.487-.62-.6-.761a4.473,4.473,0,0,1-.366-.591,2.685,2.685,0,0,1-.279-1.415,1.2,1.2,0,0,1,.171-.753,11.159,11.159,0,0,1,1.964-2.263,13.211,13.211,0,0,0,2.205-2.6A3.1,3.1,0,0,1,17.1-13.557c.861-.458.882-.466.915-.333.054.208.27.4.7.608a2.258,2.258,0,0,1,1.069.92,1.532,1.532,0,0,0,.753.662,3.168,3.168,0,0,0,1.5.191,4.55,4.55,0,0,0,1.24-.092c.724-.166.965-.387.965-.89a4.778,4.778,0,0,1,.229-1.252,1.646,1.646,0,0,1,.67-.949c.416-.291.479-.383.882-1.365l.233-.566.008-.832a3.866,3.866,0,0,1,.158-1.411,6.2,6.2,0,0,0,.15-.666.41.41,0,0,0-.262-.337l-.129-.054.125-.062a8.483,8.483,0,0,0,1.34-1.14,3.881,3.881,0,0,1,.528-.474,7.769,7.769,0,0,0-.229,1.893,8.785,8.785,0,0,1-.541,2.742,9.024,9.024,0,0,1-.632,1.465c-.1.15-.129.17-.362.216-.449.083-.574.22-.632.682a1.248,1.248,0,0,1-.266.657,2.234,2.234,0,0,0-.5,1.111c0,.408.187.558,1.248.986a10.56,10.56,0,0,1,.994.445,7.266,7.266,0,0,1,.832.712,6.2,6.2,0,0,0,2.155,1.51,3.056,3.056,0,0,0,1.323.316,1.1,1.1,0,0,0,.558-.1,1.205,1.205,0,0,0,.678-1.09l.017-.3-.383-.408a4.667,4.667,0,0,1-.5-.624A2.308,2.308,0,0,0,31-12.2c-.25-.154-.487-.3-.524-.329a1.251,1.251,0,0,1-.312-.641,2.442,2.442,0,0,0-.458-.945.82.82,0,0,1-.146-.89,7.066,7.066,0,0,1,1.465-2.176,29.691,29.691,0,0,0,3.632-5.767,14.771,14.771,0,0,1,1.39-2.313l.354-.491.15.162a2.772,2.772,0,0,0,1.652.608,23.266,23.266,0,0,0,3.1.1,4.471,4.471,0,0,0,1.876-1.153c.266-.229.632-.528.811-.666a2.077,2.077,0,0,0,.7-.741c.05-.2-.054-.312-.453-.512a1.9,1.9,0,0,1-.911-.849,1.237,1.237,0,0,1-.15-.607,1.42,1.42,0,0,0-.137-.6.778.778,0,0,1-.033-.757,3.4,3.4,0,0,0,.083-1.344,2.006,2.006,0,0,0-.545-.978,1.655,1.655,0,0,1-.412-.674c-.208-.57-.229-.6-.453-.6-.4,0-.616.233-1.049,1.119-.187.379-.424.815-.524.965a3.31,3.31,0,0,1-1,.944A2.909,2.909,0,0,1,37.2-31.1c-1.161-.345-2.305-1.6-3.408-3.728a18.361,18.361,0,0,1-.857-1.9c0-.025.079-.067.179-.1a5.661,5.661,0,0,0,.57-.241,1.841,1.841,0,0,0,.97-.907,11.033,11.033,0,0,0,.279-2.122,12.425,12.425,0,0,1,.375-2.9.183.183,0,0,1,.141-.079c.362,0,.649-.978.649-2.218,0-.89-.017-.87.749-.924a7.007,7.007,0,0,0,1.956-.408c.037-.029.225-.266.424-.528a2.969,2.969,0,0,1,.454-.528,8.813,8.813,0,0,1,1.223-.1c2.413-.1,3.47-.233,3.932-.512a4.156,4.156,0,0,0,.37-.271,1.9,1.9,0,0,1,.774-.4,1.028,1.028,0,0,0,.84-.766c.042-.312-.013-.437-.37-.845a10.689,10.689,0,0,1-1.531-2.426,2.5,2.5,0,0,0-.641-.957,2.674,2.674,0,0,0-1.323-.753,6.849,6.849,0,0,1-1.178-.528c-.387-.208-.924-.487-1.186-.616a2.922,2.922,0,0,1-1.311-1.244c-.441-.628-.541-.749-.682-.84A.967.967,0,0,0,37.9-57.941Zm-1.465,2.759a5.6,5.6,0,0,0-1.889,1.86,5.454,5.454,0,0,1-1.66,1.868.916.916,0,0,0-.416.37,3.345,3.345,0,0,0-.445.832c-.025.087-.054.154-.063.146a2.53,2.53,0,0,1,.171-.824c.137-.3.25-.412.732-.732a3.893,3.893,0,0,0,1.465-1.648,3.445,3.445,0,0,1,.333-.562,4.838,4.838,0,0,1,1.6-1.306C36.5-55.273,36.569-55.273,36.432-55.182Zm2.484,2.372c.345.345.566.42,1.61.549a3.681,3.681,0,0,1,2.621,1.444c.108.212.083.2-.183-.067a4.067,4.067,0,0,0-1.09-.8,3.078,3.078,0,0,0-1.5-.349,2.048,2.048,0,0,1-1.1-.233,2.062,2.062,0,0,1-.641-.757c-.167-.358-.208-.574-.046-.246A2.115,2.115,0,0,0,38.916-52.81ZM12.378-41.056a3.07,3.07,0,0,0,1.294,1.44,2.646,2.646,0,0,0,1.386.308,1.587,1.587,0,0,1,.458.029c-.017.017-.183.129-.366.254a7.083,7.083,0,0,0-1.319,1.244,4.04,4.04,0,0,0-.741,1.735c0,.058-.125.212-.349.437a2.178,2.178,0,0,0-.67,1.123c-.091.383-.083.67.021.761a.256.256,0,0,1,.083.125c0,.1-.179.275-.483.479a2.491,2.491,0,0,0-.454.4,9.318,9.318,0,0,0-1.165,3.466c-.058.308-.116.566-.125.578-.037.033-.141-.271-.2-.6a10.768,10.768,0,0,1-.137-2.139,6.2,6.2,0,0,1,.578-2.663,22.417,22.417,0,0,0,1.261-3.811,24.486,24.486,0,0,0,.691-3.649v-.175l.075.229C12.254-41.36,12.329-41.164,12.378-41.056ZM15.911-36.8a9.806,9.806,0,0,1,2.613,1.523A8.144,8.144,0,0,1,20.9-32.01a9.3,9.3,0,0,0,.724,1.585,3.656,3.656,0,0,0,1.515,1.444,3.6,3.6,0,0,0,2.759.062l.35-.116-.1.1a2.219,2.219,0,0,1-.849.454,2.8,2.8,0,0,1-2.5-.4A5.933,5.933,0,0,1,21.682-30a12.754,12.754,0,0,1-1.061-1.781,11.744,11.744,0,0,0-4.743-4.943,3.1,3.1,0,0,1-.4-.221C15.491-36.949,15.691-36.883,15.911-36.8ZM14.33-35.634a8.943,8.943,0,0,1,3.612,2.567,8.264,8.264,0,0,1,1.452,2.546A5.41,5.41,0,0,0,20.6-28.482c.329.32.8.641.849.566.025-.038.042-.029.054.029s.112.112.37.2a3.961,3.961,0,0,0,2.367-.083c.166-.058.316-.1.325-.1s-.021.046-.075.1a3.165,3.165,0,0,1-1.069.5,3.229,3.229,0,0,1-1.444-.062.929.929,0,0,0-.262-.071,1.791,1.791,0,0,0,.108.408,11.729,11.729,0,0,1,.628,3.674,5.46,5.46,0,0,1-.67,2.854,7.676,7.676,0,0,0-.641,1.743,8.933,8.933,0,0,0-.062,2.093,7.592,7.592,0,0,0,.375,1.5c.125.3.083.312-.117.042a3.256,3.256,0,0,1-.62-2.035,6.941,6.941,0,0,1,.674-3.121,8.818,8.818,0,0,0,.757-3.928,12.26,12.26,0,0,0-.445-2.8L21.57-27.5l-.279-.158a6.048,6.048,0,0,1-1.41-1.415c-.142-.212-.449-.732-.678-1.161a15.063,15.063,0,0,0-1.211-1.981A10.559,10.559,0,0,0,14.2-35.6a2.031,2.031,0,0,1-.4-.225C13.818-35.826,14.059-35.738,14.33-35.634Zm18.15,1.3c1.677,2.521,3.424,4.048,5.118,4.469a4.221,4.221,0,0,0,1.768-.008A4.387,4.387,0,0,0,41.3-31.02c.429-.408.429-.4.054.062a4.7,4.7,0,0,1-1.594,1.327,2.845,2.845,0,0,1-1.814.279,5.626,5.626,0,0,1-3.121-1.877,15.958,15.958,0,0,1-2.68-3.537C31.976-35.06,32.126-34.861,32.479-34.332Zm-4.036.807a5.09,5.09,0,0,1-.566,2.263,2.354,2.354,0,0,1-.637.72c-.075.037-.062.013.046-.1a5.878,5.878,0,0,0,.986-2.942c.046-.308.1-.712.117-.895l.029-.333.033.333A8.209,8.209,0,0,1,28.443-33.525Zm1.019.707a4.821,4.821,0,0,1-.445,1.5,2.378,2.378,0,0,1-.7.836c-.121.067-.116.058.05-.1a4.063,4.063,0,0,0,.8-1.91c.108-.491.246-1.386.3-1.976.029-.291.033-.237.046.437A7.638,7.638,0,0,1,29.463-32.818Zm1.556-.5a8.622,8.622,0,0,0,.666,1.9c.137.27.246.5.237.5a6.847,6.847,0,0,0-1.265.312c-.3.1-.557.187-.566.187a.662.662,0,0,1,.062-.2,20.176,20.176,0,0,0,.649-3.312l.075-.583.029.4A8.147,8.147,0,0,0,31.019-33.313ZM11.347-28.349a2.14,2.14,0,0,1,.025.633,4.181,4.181,0,0,1-.487,1.814,3.628,3.628,0,0,1-1.768,1.789,4.621,4.621,0,0,1-2.193.479,9.178,9.178,0,0,1-1.577-.158,4.9,4.9,0,0,1,.807-.033,5.117,5.117,0,0,0,1.381-.108,3.9,3.9,0,0,0,2.908-1.985,3.868,3.868,0,0,0,.42-1.385c.125-.857.229-1.2.37-1.2C11.268-28.5,11.318-28.436,11.347-28.349Zm3.062.728a4.749,4.749,0,0,0,.121,1.539,3.873,3.873,0,0,0,.333.462,1.628,1.628,0,0,1,.266.4c0,.2-.774.578-1.5.732a1.926,1.926,0,0,1-1.365-.141l-.1-.075.162-.35a3.222,3.222,0,0,0,.32-1.664,6.664,6.664,0,0,0-.033-.8c-.025-.1-.017-.112.05-.112a10.21,10.21,0,0,0,1.477-.4,1.5,1.5,0,0,1,.25-.1A1.539,1.539,0,0,1,14.409-27.621Zm27.782-.046a4.048,4.048,0,0,1-1.577.911,3.007,3.007,0,0,1-1.29.021,3.41,3.41,0,0,1-1.061-.516l-.146-.129.354.162a3.178,3.178,0,0,0,1.252.324,3.605,3.605,0,0,0,2.284-.687C42.274-27.775,42.3-27.787,42.191-27.666ZM23.7-25.557a10.993,10.993,0,0,1,.612,3.895,5.339,5.339,0,0,1-.716,2.709,5.424,5.424,0,0,0-.674,2.684,5.907,5.907,0,0,0,.3,2.234c.083.245.162.478.171.512.054.167-.3-.308-.445-.591a4.1,4.1,0,0,1-.366-2.2,8.065,8.065,0,0,1,.662-2.5,8.875,8.875,0,0,0,.778-3.953,12.823,12.823,0,0,0-.508-3.029c-.1-.4-.187-.736-.187-.749A5.529,5.529,0,0,1,23.7-25.557ZM10.182-23.048q-.7,2.035-3.474,2.259a.725.725,0,0,1-.225,0,2.86,2.86,0,0,1,.412-.121,5.853,5.853,0,0,0,3.141-2.122,1.319,1.319,0,0,1,.212-.258A.879.879,0,0,1,10.182-23.048Z" transform="translate(0 58)" fill="#fff" opacity="0.196"/>
    <path id="Combined-Shape" d="M44.083,38.461V33.136H50V44.379H10.947V38.461ZM50,13.609v5.325H44.083V13.609H10.947V7.692H50Z" transform="translate(0 7)" fill="#63808e" fill-rule="evenodd"/>
    <path id="Combined-Shape-2" data-name="Combined-Shape" d="M33.136,15.828V5.917H5.917v9.911Zm0,5.917H5.917V36.686H0V0H39.053V36.686H33.136Z" transform="translate(0 7)" fill="#fff" fill-rule="evenodd"/>
  </g>
</svg>
