<svg xmlns="http://www.w3.org/2000/svg" width="18.099" height="9.5" viewBox="0 0 18.099 9.5">
  <path id="Path_1" data-name="Path 1" d="M2.5,12c0-.276.358-.5.8-.5h16c.442,0,.8.224.8.5s-.358.5-.8.5H3.3C2.858,12.5,2.5,12.276,2.5,12Zm0-4c0-.276.358-.5.8-.5h16c.442,0,.8.224.8.5s-.358.5-.8.5H3.3C2.858,8.5,2.5,8.276,2.5,8Zm0-4c0-.276.358-.5.8-.5h16c.442,0,.8.224.8.5s-.358.5-.8.5H3.3C2.858,4.5,2.5,4.276,2.5,4Z" transform="translate(-2.25 -3.25)" stroke="#09100f" stroke-width="0.5" fill-rule="evenodd"/>
</svg>
