<?xml version="1.0" encoding="UTF-8"?>
<svg width="289px" height="58px" viewBox="0 0 289 58" version="1.1" xmlns="http://www.w3.org/2000/svg" xmlns:xlink="http://www.w3.org/1999/xlink">
    <!-- Generator: Sketch 51.2 (57519) - http://www.bohemiancoding.com/sketch -->
    <title>Group 2</title>
    <desc>Created with Sketch.</desc>
    <defs></defs>
    <g id="designs" stroke="none" stroke-width="1" fill="none" fill-rule="evenodd">
        <g id="1-Home" transform="translate(-1031.000000, -3724.000000)">
            <g id="Group-3" transform="translate(-1.000000, 2721.000000)">
                <g id="Group-5" transform="translate(0.000000, 945.000000)">
                    <g id="Group-2" transform="translate(1032.000000, 58.000000)">
                        <path d="M231.442308,45.1357858 C226.236141,47.1681931 220.46339,48.2963213 214.353896,48.2963213 C204.734426,48.2963213 190.701652,43.5564064 190.701652,28.6615616 C190.701652,16.9272521 199.187952,8.91487732 212.99623,8.91487732 C218.426892,8.91487732 224.764446,9.81737985 231.442308,13.2017643 L231.442308,3.49808558 C226.800945,1.4674549 219.332003,0 211.298257,0 C186.288348,0 169.538462,11.2848347 169.538462,29.5640641 C169.538462,47.054492 185.835793,58 211.86306,58 C218.088367,58 225.331031,56.8718718 231.442308,54.72754 L231.442308,45.1357858" id="Fill-3" fill="#000000"></path>
                        <path d="M236.90381,44.9101602 C243.651059,48.4082458 249.733159,49.4244494 257.474648,49.4244494 C262.341373,49.4244494 268.865746,48.1826201 268.865746,43.4444819 C268.865746,37.8020645 260.018579,36.7858609 250.619443,33.627102 C243.097349,31.031519 236.461538,26.1796796 236.461538,17.2648023 C236.461538,6.31929427 246.194989,0 263.225916,0 C269.419455,0 276.276401,1.01620363 281.917972,2.70750758 L281.917972,12.5248874 C277.272382,10.2686311 271.630812,8.46362606 266.102421,8.46362606 C261.899102,8.46362606 256.701544,9.92930438 256.701544,13.8804178 C256.701544,18.9578828 265.990982,20.1979355 274.065045,22.9072197 C284.129328,26.2916041 288.884615,30.6921922 288.884615,39.7207707 C288.884615,46.7169418 283.908193,58 259.245474,58 C252.167393,58 243.651059,56.7581707 236.90381,54.8412412 L236.90381,44.9101602" id="Fill-4" fill="#000000"></path>
                        <polygon id="Fill-5" fill="#000000" points="143.326923 56.3269231 162.288462 56.3269231 162.288462 1.67307692 143.326923 1.67307692"></polygon>
                        <path d="M111.444293,31.1823236 C119.657727,28.4901334 125.651787,22.9926953 125.651787,16.3717447 C125.651787,10.6499573 123.542507,6.27426503 117.104573,3.58030834 C112.332043,1.56116572 105.006359,1.67422357 99.7899548,1.67422357 L69.1538462,1.67422357 L69.1538462,56.8764876 L89.0233662,56.8764876 L89.0233662,9.86385191 L93.4621156,9.86385191 C100.899642,9.86385191 105.228297,12.5578086 105.228297,18.5039451 C105.228297,27.4796789 91.9085533,32.1927782 91.9085533,32.1927782 C97.1249576,39.9354747 102.343109,46.8920658 105.340139,50.2573035 C111.110513,56.3164979 115.329073,58 123.210474,58 C127.649224,58 132.089721,57.7756508 137.75,56.8764876 C129.868598,52.0520969 115.55101,36.2310634 111.444293,31.1823236" id="Fill-6" fill="#000000"></path>
                        <g id="Group">
                            <path d="M0.0487936508,28.8531587 C0.0487936508,12.9772698 12.942746,0.0833174603 28.8186349,0.0833174603 C44.7235238,0.0833174603 57.6174762,12.9772698 57.6174762,28.8531587 C57.6174762,44.7580476 44.7235238,57.652 28.8186349,57.652 C12.942746,57.652 0.0487936508,44.7580476 0.0487936508,28.8531587" id="Fill-2" fill="#FFFFFF"></path>
                            <path d="M43.5543175,30.8118095 C43.5543175,30.8118095 45.3670476,31.0456508 47.7349206,32.7999206 C50.2496349,34.6421111 52.0333651,34.2618889 53.2610317,33.2970635 C54.6350794,32.2153175 54.4012381,30.9287302 54.4012381,30.9287302 C54.4012381,30.9287302 52.6764286,31.7476349 51.0975397,31.7476349 C49.2263492,31.7766349 48.4953651,31.3379524 47.2672381,30.9581905 C45.4255079,30.373127 43.5543175,30.8118095 43.5543175,30.8118095 Z M57.6174762,28.8531587 C57.6174762,39.670619 51.6236825,49.1144921 42.764873,54.0265397 C42.9987143,53.032254 43.4958571,48.7052698 38.2915079,42.9163175 C34.1983651,38.3844921 27.5030476,37.2732857 25.7487778,30.9581905 C24.1404286,25.1692381 26.9179841,20.6374127 26.9179841,20.6374127 C26.9179841,20.6374127 24.1404286,20.0233492 24.1404286,16.7486508 C24.1404286,14.643619 25.6903175,13.4739524 25.7193175,13.5034127 C25.5439365,13.9420952 25.4560159,14.4387778 25.4560159,14.965381 C25.4560159,17.157873 27.210746,18.9121429 29.3742381,18.9121429 C29.696,18.9121429 30.0173016,18.8831429 30.2806032,18.7952222 C29.9588413,19.3218254 23.2340635,30.373127 37.8528254,37.302746 C39.9873175,36.6592222 42.5894921,37.4196667 44.197381,40.0803016 C44.197381,40.0803016 47.2672381,37.7998889 46.6826349,33.4724444 C45.8931905,34.2618889 44.8699048,34.992873 43.6417778,34.992873 C41.3029048,34.992873 39.3147937,33.1506825 39.3147937,30.8118095 C39.3147937,28.4434762 41.2154444,26.5138254 43.5833175,26.5138254 C45.5714286,26.5138254 47.1503175,27.9173333 47.6474603,29.7300635 C50.2496349,27.9757937 50.4250159,25.6659206 50.4250159,25.6659206 C50.4250159,25.6659206 52.0623651,25.1103175 52.6764286,23.7947302 C52.8223492,23.4734286 52.5010476,23.2395873 52.5010476,23.2395873 C52.5010476,23.2395873 47.3551587,20.8127937 42.9987143,18.7662222 C42.5894921,18.5908413 43.2910159,18.0352381 43.6127778,17.4211746 C44.2853016,16.1640476 39.7824762,14.1759365 37.3561429,13.6203333 L41.5952063,3.03625397 C51.0680794,7.74346032 57.6174762,17.5380952 57.6174762,28.8531587 Z M28.8186349,57.652 C28.2045714,57.652 27.5905079,57.6225397 26.9764444,57.5930794 C27.1812857,57.0084762 27.7368889,54.9913651 27.1812857,51.6582063 C26.011619,44.5826667 21.8894762,42.6824762 20.0472857,38.9396349 C20.0472857,38.9396349 19.3163016,40.7233651 19.0534603,43.0622381 C19.0534603,43.0622381 16.685127,41.4248889 16.3049048,36.8346032 C16.0416032,33.6478254 17.5330317,25.7828413 24.0819683,22.4501429 C24.0819683,22.4501429 17.5620317,29.4672222 21.3044127,35.8992381 C21.3044127,35.8992381 21.8310159,34.7295714 22.6494603,33.7942063 C22.6494603,33.7942063 23.0586825,36.2794603 27.1812857,39.963381 C30.3975238,42.8283968 36.1864762,47.6525238 35.3675714,56.8915556 C33.2625397,57.3886984 31.0700476,57.652 28.8186349,57.652 Z M30.4265238,0.0833174603 C33.321,0.258698413 36.1280159,0.843761905 38.7301905,1.80812698 C38.3209683,3.70877778 36.6251587,5.22920635 34.6075873,5.22920635 C32.2687143,5.22920635 30.3680635,3.35801587 30.3680635,1.04814286 C30.3680635,0.814301587 30.3975238,0.375619048 30.4265238,0.0833174603 Z M18.7022381,1.86704762 C21.333873,0.902222222 24.1404286,0.28815873 27.0643651,0.112777778 C27.0933651,0.405079365 27.1228254,0.785301587 27.1228254,1.01914286 C27.1228254,3.35801587 25.2221746,5.25820635 22.8833016,5.25820635 C20.8367302,5.25820635 19.1119206,3.79669841 18.7022381,1.86704762 Z M0.0487936508,28.8531587 C0.0487936508,17.6260159 6.48126984,7.88984127 15.8372222,3.1241746 L20.076746,13.6787937 C18.1760952,14.2633968 12.2702222,15.8422857 7.91377778,21.8360794 C7.91377778,21.8360794 10.3700317,21.1925556 12.0948413,22.2163016 C12.0948413,22.2163016 7.24125397,25.8707619 5.19468254,31.1041111 C5.19468254,31.1041111 4.22985714,46.775619 18.1760952,55.6054286 C7.56301587,51.3659048 0.0487936508,40.9866667 0.0487936508,28.8531587 Z" id="Fill-7" fill="#000000"></path>
                            <path d="M38.6132698,19.467746 C39.6655556,19.467746 40.5719206,18.7662222 40.8936825,17.7719365 C40.8936825,17.7719365 39.8703968,17.2747937 38.7007302,16.7781111 C37.5899841,16.2809683 36.3908571,16.0176667 36.3908571,16.0176667 C35.6603333,18.1226984 37.2976825,19.467746 38.6132698,19.467746" id="Fill-8" fill="#000000"></path>
                            <path d="M38.6132698,19.467746 C39.6655556,19.467746 40.5719206,18.7662222 40.8936825,17.7719365 C40.8936825,17.7719365 39.8703968,17.2747937 38.7007302,16.7781111 C37.5899841,16.2809683 36.3908571,16.0176667 36.3908571,16.0176667 C35.6603333,18.1226984 37.2976825,19.467746 38.6132698,19.467746" id="Fill-9" fill="#000000"></path>
                        </g>
                    </g>
                </g>
            </g>
        </g>
    </g>
</svg>